<?xml version="1.0" encoding="utf-8"?>
<!-- Generator: Adobe Illustrator 22.0.1, SVG Export Plug-In . SVG Version: 6.00 Build 0)  -->
<svg version="1.1" id="Layer_1" xmlns="http://www.w3.org/2000/svg" xmlns:xlink="http://www.w3.org/1999/xlink" x="0px" y="0px"
	 viewBox="0 0 239.97 44.33" style="enable-background:new 0 0 239.97 44.33;" xml:space="preserve">
<style type="text/css">
	.st0{fill:#502B3A;}
	.st1{fill:#888B8D;}
</style>
<g id="brm-logo">
	<g>
		<path class="st0" d="M37.42,37.9c0,1.42,0.05,4.06,0.09,4.41c0.07,0.47,0.24,0.9,0.61,0.9h1.18c0.14,0,0.19,0.07,0.19,0.17v0.57
			c0,0.17-0.07,0.21-0.26,0.21c-0.31,0-0.78-0.07-3.23-0.07c-2.31,0-2.88,0.07-3.11,0.07c-0.14,0-0.19-0.07-0.19-0.21v-0.54
			c0-0.12,0.05-0.19,0.14-0.19h0.8c0.52,0,0.9-0.14,0.9-0.78c0.05-2.36,0.05-4.58,0.05-6.79v-6.21c0-0.8-0.33-1.18-0.76-1.18h-0.92
			c-0.12,0-0.17-0.05-0.17-0.14v-0.64c0-0.12,0.05-0.17,0.17-0.17c0.16,0,0.92,0.07,3.23,0.07c1.32,0,3.49-0.07,4.2-0.07
			c1.89,0,3.35,0.64,4.29,1.49c0.85,0.75,1.27,1.75,1.27,2.64c0,2.97-1.79,4.2-4.39,4.62v0.09c0.66,0.24,1.09,0.66,1.42,1.09
			c0.28,0.38,1.75,2.6,1.93,2.88c0.14,0.24,1.65,2.36,2.01,2.69c0.45,0.4,1.11,0.45,1.68,0.45c0.14,0,0.19,0.07,0.19,0.17v0.5
			c0,0.17-0.05,0.24-0.19,0.24c-0.19,0-0.8-0.07-2.31-0.07c-0.66,0-1.56,0.05-2.08,0.07c-0.28-0.21-0.73-0.85-1.04-1.34
			c-0.42-0.66-1.34-2.36-1.56-2.74c-0.24-0.42-0.9-1.51-1.27-2.03c-0.59-0.83-1.13-1.46-2.12-1.46c-0.09,0-0.5,0.02-0.76,0.05V37.9z
			 M37.47,35.77c0.33,0.05,0.61,0.09,0.9,0.09c3.68,0,4.44-2.97,4.44-4.06c0-1.09-0.45-2.1-1.04-2.64
			c-0.85-0.75-1.93-1.01-3.11-1.01c-0.38,0-0.66,0.02-0.85,0.14c-0.19,0.12-0.28,0.4-0.28,0.68L37.47,35.77z"/>
		<path class="st0" d="M54.31,37.24c0.02,1.27,0.07,3.59,0.07,4.01c0,1.23,0.42,1.7,0.94,1.84c0.38,0.09,0.94,0.19,1.84,0.19
			c0.42,0,1.51-0.05,1.98-0.09c0.42-0.05,1.32-0.28,1.93-0.8c0.42-0.38,1.75-1.93,2.19-2.5c0.09-0.12,0.17-0.14,0.26-0.09l0.38,0.24
			c0.07,0.05,0.09,0.12,0.05,0.24l-1.13,3.54c-0.07,0.21-0.24,0.35-0.52,0.35c-0.12,0-0.64-0.02-2.1-0.05
			c-1.49,0-3.92-0.02-7.86-0.02c-0.87,0-1.51,0.02-2.01,0.02c-0.47,0.02-0.8,0.05-1.01,0.05c-0.14,0-0.19-0.05-0.19-0.19v-0.57
			c0-0.14,0.05-0.19,0.24-0.19h0.8c1.09,0,1.18-0.14,1.18-1.01v-5.61v-2.31c0-1.93-0.05-4.86-0.09-5.19
			c-0.09-0.64-0.33-0.83-1.04-0.83h-0.9c-0.09,0-0.14-0.05-0.14-0.17v-0.61c0-0.12,0.02-0.17,0.14-0.17c0.52,0,1.37,0.09,3.3,0.07
			h0.66c1.04,0,6.46-0.05,7.5-0.05c0.38,0,0.83-0.02,0.94-0.02c0.12,0,0.16,0.05,0.19,0.14c0.09,0.31,0.99,3.52,1.09,3.75
			c0.05,0.14,0.02,0.21-0.07,0.26l-0.42,0.19c-0.07,0.02-0.14,0-0.21-0.12c-0.09-0.14-2.03-2.31-2.6-2.64
			c-0.5-0.28-1.13-0.59-1.79-0.61l-3.59-0.09l-0.05,6.82c0.71,0,2.41-0.05,2.69-0.12c0.52-0.09,0.8-0.28,1.09-0.85
			c0.14-0.31,0.38-0.9,0.38-1.32c0-0.14,0.09-0.19,0.19-0.19l0.61,0.05c0.09,0,0.16,0.05,0.14,0.19c-0.05,0.38-0.05,1.93-0.05,2.55
			c0,0.94,0.09,2.08,0.14,2.59c0,0.12-0.05,0.14-0.19,0.17l-0.52,0.09c-0.09,0.02-0.14-0.02-0.19-0.17
			c-0.09-0.38-0.26-0.9-0.38-1.18c-0.21-0.47-0.66-0.8-1.18-0.85c-0.85-0.09-1.98-0.14-2.74-0.14L54.31,37.24z"/>
		<path class="st0" d="M66.58,38.82c0.09,0,0.14,0.05,0.14,0.19c0.05,0.75,0.24,1.65,0.9,2.69c0.71,1.13,1.93,1.7,3.11,1.7
			c1.27,0,3.07-0.8,3.07-2.76c0-2.17-0.99-2.88-3.49-3.82c-0.76-0.28-2.31-0.94-3.44-1.98c-0.8-0.75-1.18-1.93-1.18-3.37
			c0-1.32,0.52-2.41,1.65-3.3c0.94-0.8,1.98-1.13,3.35-1.13c1.56,0,2.5,0.38,2.97,0.57c0.24,0.09,0.38,0.05,0.5-0.07l0.31-0.31
			c0.09-0.09,0.19-0.14,0.33-0.14c0.14,0,0.19,0.14,0.19,0.38c0,0.38,0.38,3.68,0.38,3.92c0,0.09-0.05,0.14-0.14,0.17l-0.38,0.12
			c-0.09,0.02-0.19,0-0.24-0.14c-0.24-0.66-0.61-1.6-1.46-2.5c-0.61-0.66-1.37-0.99-2.45-0.99c-1.89,0-2.64,1.51-2.64,2.38
			c0,0.8,0.09,1.51,0.66,2.12c0.61,0.61,1.93,1.18,2.88,1.46c1.37,0.42,2.5,0.9,3.4,1.84c0.75,0.8,1.18,1.79,1.18,3.37
			c0,2.88-1.89,5.24-5,5.24c-1.93,0-3.07-0.42-4.01-1.13c-0.28-0.19-0.42-0.28-0.57-0.28c-0.14,0-0.24,0.19-0.38,0.42
			c-0.14,0.24-0.24,0.28-0.42,0.28s-0.28-0.14-0.28-0.38c0.05-0.28,0.38-4.11,0.42-4.39c0.02-0.14,0.05-0.19,0.14-0.19L66.58,38.82z
			"/>
		<path class="st0" d="M94.19,40.23c0.07,0.07,0.09,0.14,0.05,0.24c-1.42,2.03-3.68,3.96-7.03,3.96c-3.02,0-4.72-0.9-6.18-2.22
			c-1.75-1.56-2.55-4.29-2.55-6.37c0-2.31,0.76-4.53,2.41-6.32c1.27-1.37,3.3-2.5,6.13-2.5c2.17,0,3.92,0.66,4.77,1.13
			c0.33,0.19,0.42,0.19,0.47,0l0.19-0.61c0.05-0.14,0.09-0.14,0.38-0.14c0.28,0,0.33,0.05,0.33,0.38c0,0.42,0.47,4.2,0.57,4.91
			c0.02,0.14,0,0.21-0.09,0.24l-0.45,0.14c-0.12,0.05-0.19-0.05-0.26-0.24c-0.28-0.85-0.85-2.03-1.84-3.07
			c-1.04-0.99-2.27-1.75-4.1-1.75c-3.78,0-5.33,3.4-5.33,6.79c0,1.46,0.42,4.25,2.17,6.13c1.56,1.65,2.93,1.84,4.06,1.84
			c2.59,0,4.65-1.3,5.64-2.74c0.12-0.16,0.21-0.24,0.28-0.16L94.19,40.23z"/>
		<path class="st0" d="M97.28,29.43c0-0.8-0.19-1.18-0.8-1.18h-1.09c-0.14,0-0.19-0.05-0.19-0.21v-0.54c0-0.14,0.05-0.19,0.24-0.19
			c0.24,0,1.37,0.07,3.63,0.07c1.98,0,3.11-0.07,3.4-0.07c0.14,0,0.19,0.05,0.19,0.17v0.59c0,0.14-0.05,0.19-0.19,0.19h-0.99
			c-0.71,0-1.13,0.42-1.16,0.92c-0.02,0.28-0.07,1.7-0.07,3.07v2.93c0,1.18,0.02,2.85,0.07,3.61c0.07,1.09,0.26,2.17,0.83,2.93
			c0.8,1.09,2.08,1.46,3.21,1.46c1.09,0,2.41-0.42,3.16-1.13c0.9-0.9,1.37-2.26,1.37-3.99v-4.25c0-1.89-0.19-3.96-0.26-4.51
			c-0.07-0.61-0.45-1.04-0.97-1.04h-0.85c-0.14,0-0.19-0.07-0.19-0.17v-0.59c0-0.14,0.05-0.19,0.19-0.19c0.24,0,1.32,0.07,2.88,0.07
			c1.46,0,2.22-0.07,2.41-0.07c0.21,0,0.24,0.07,0.24,0.19v0.54c0,0.14-0.02,0.21-0.14,0.21h-0.85c-0.85,0-0.94,0.66-0.99,0.92
			c-0.05,0.28-0.05,3.59-0.05,3.89c0,0.33-0.05,4.44-0.14,5.38c-0.14,1.93-0.71,3.4-1.98,4.53c-0.99,0.9-2.5,1.46-4.29,1.46
			c-1.13,0-2.5-0.19-3.4-0.57c-1.37-0.57-2.31-1.65-2.78-3.16c-0.33-1.04-0.42-2.59-0.42-5.69V29.43z"/>
		<path class="st0" d="M118.68,37.24c0.02,1.27,0.07,3.59,0.07,4.01c0,1.23,0.42,1.7,0.94,1.84c0.38,0.09,0.94,0.19,1.84,0.19
			c0.42,0,1.51-0.05,1.98-0.09c0.42-0.05,1.32-0.28,1.93-0.8c0.42-0.38,1.75-1.93,2.19-2.5c0.09-0.12,0.17-0.14,0.26-0.09l0.38,0.24
			c0.07,0.05,0.09,0.12,0.05,0.24l-1.13,3.54c-0.07,0.21-0.24,0.35-0.52,0.35c-0.12,0-0.64-0.02-2.1-0.05
			c-1.49,0-3.92-0.02-7.86-0.02c-0.87,0-1.51,0.02-2.01,0.02c-0.47,0.02-0.8,0.05-1.01,0.05c-0.14,0-0.19-0.05-0.19-0.19v-0.57
			c0-0.14,0.05-0.19,0.24-0.19h0.8c1.09,0,1.18-0.14,1.18-1.01v-5.61v-2.31c0-1.93-0.05-4.86-0.09-5.19
			c-0.09-0.64-0.33-0.83-1.04-0.83h-0.9c-0.09,0-0.14-0.05-0.14-0.17v-0.61c0-0.12,0.02-0.17,0.14-0.17c0.52,0,1.37,0.09,3.3,0.07
			h0.66c1.04,0,6.46-0.05,7.5-0.05c0.38,0,0.83-0.02,0.94-0.02s0.16,0.05,0.19,0.14c0.09,0.31,0.99,3.52,1.09,3.75
			c0.05,0.14,0.02,0.21-0.07,0.26l-0.42,0.19c-0.07,0.02-0.14,0-0.21-0.12c-0.09-0.14-2.03-2.31-2.6-2.64
			c-0.5-0.28-1.13-0.59-1.79-0.61l-3.59-0.09l-0.05,6.82c0.71,0,2.41-0.05,2.69-0.12c0.52-0.09,0.8-0.28,1.09-0.85
			c0.14-0.31,0.38-0.9,0.38-1.32c0-0.14,0.09-0.19,0.19-0.19l0.61,0.05c0.09,0,0.16,0.05,0.14,0.19c-0.05,0.38-0.05,1.93-0.05,2.55
			c0,0.94,0.09,2.08,0.14,2.59c0,0.12-0.05,0.14-0.19,0.17l-0.52,0.09c-0.09,0.02-0.14-0.02-0.19-0.17
			c-0.09-0.38-0.26-0.9-0.38-1.18c-0.21-0.47-0.66-0.8-1.18-0.85c-0.85-0.09-1.98-0.14-2.74-0.14L118.68,37.24z"/>
		<path class="st0" d="M151.31,35.54c0-0.71,0-6.56-0.05-6.65h-0.09c-0.19,0.33-3.16,7.22-3.44,7.83c-0.35,0.75-2.76,6.32-2.88,6.56
			c-0.09,0.19-0.28,0.52-0.52,0.52c-0.14,0-0.28-0.14-0.38-0.42c-0.09-0.14-3.16-7.5-3.3-7.88c-0.42-1.09-2.59-6.37-2.88-6.65
			c-0.09,0.33-0.12,6.28-0.12,6.56c0,0.28-0.02,4.29,0.12,5.83c0.09,1.09,0.38,1.98,1.13,1.98h1.04c0.14,0,0.19,0.09,0.19,0.17v0.59
			c0,0.09-0.05,0.19-0.24,0.19c-0.24,0-0.9-0.07-2.69-0.07c-2.03,0-2.83,0.07-3.07,0.07c-0.19,0-0.19-0.05-0.19-0.21v-0.59
			c0-0.05,0-0.14,0.14-0.14h1.09c0.8,0,1.06-0.85,1.18-1.68c0.21-1.65,0.35-7.46,0.35-7.88v-4.03c0-0.85-0.12-1.37-1.16-1.37h-1.04
			c-0.14,0-0.19-0.09-0.19-0.17v-0.64c0-0.05,0.05-0.14,0.19-0.14c0.24,0,0.85,0.07,3.35,0.07c1.13,0,1.79-0.07,2.08-0.07
			s0.45,0.09,0.57,0.4c0.85,2.22,4.15,10.05,4.86,11.99c0.21-0.42,1.89-4.32,2.5-5.71c0.42-0.99,2.55-5.85,2.67-6.32
			c0.07-0.24,0.35-0.28,0.92-0.28c3.44,0.02,4.25-0.07,4.53-0.07c0.09,0,0.14,0.09,0.14,0.21v0.5c0,0.14-0.05,0.24-0.19,0.24h-1.04
			c-0.61,0-0.66,0.42-0.68,0.92c-0.02,0.52-0.02,5.24-0.02,5.85v1.65c0,1.42,0.05,4.86,0.05,5.26c0.02,0.9,0.24,1.27,0.66,1.27h1.27
			c0.14,0,0.14,0.09,0.14,0.17v0.54c0,0.14,0,0.24-0.19,0.24c-0.28,0-1.42-0.07-3.49-0.07c-2.31,0-3.21,0.07-3.54,0.07
			c-0.14,0-0.19-0.09-0.19-0.21v-0.54c0-0.14,0.05-0.19,0.19-0.19h1.46c0.42,0,0.61-0.14,0.68-0.83c0.02-0.24,0.07-3.63,0.07-5.52
			V35.54z"/>
		<path class="st0" d="M163.25,36.43c0,0.24,0.05,5.66,0.05,5.92c0,0.75,0.38,0.85,0.94,0.85h0.99c0.09,0,0.19,0.05,0.19,0.17v0.59
			c0,0.14-0.09,0.19-0.24,0.19c-0.28,0-1.23-0.07-3.44-0.07c-2.36,0-3.4,0.07-3.63,0.07c-0.14,0-0.19-0.05-0.19-0.17v-0.64
			c0-0.09,0.05-0.14,0.19-0.14h0.94c0.47,0,0.99-0.05,1.09-0.68c0.05-0.33,0.09-5.43,0.09-6.7v-1.65c0-0.57-0.05-4.81-0.07-5.12
			c-0.07-0.57-0.31-0.8-0.97-0.8h-1.23c-0.14,0-0.19-0.05-0.19-0.17v-0.61c0-0.12,0.05-0.17,0.14-0.17c0.28,0,1.51,0.07,3.82,0.07
			c2.26,0,3.02-0.07,3.35-0.07c0.14,0,0.19,0.09,0.19,0.21v0.54c0,0.14-0.09,0.19-0.19,0.19h-0.9c-0.52,0-0.9,0.19-0.9,0.64
			c0,0.24-0.05,5.43-0.05,5.71V36.43z"/>
		<path class="st0" d="M168.67,38.82c0.09,0,0.14,0.05,0.14,0.19c0.05,0.75,0.24,1.65,0.9,2.69c0.71,1.13,1.93,1.7,3.11,1.7
			c1.27,0,3.07-0.8,3.07-2.76c0-2.17-0.99-2.88-3.49-3.82c-0.76-0.28-2.31-0.94-3.44-1.98c-0.8-0.75-1.18-1.93-1.18-3.37
			c0-1.32,0.52-2.41,1.65-3.3c0.94-0.8,1.98-1.13,3.35-1.13c1.56,0,2.5,0.38,2.97,0.57c0.24,0.09,0.38,0.05,0.5-0.07l0.31-0.31
			c0.09-0.09,0.19-0.14,0.33-0.14s0.19,0.14,0.19,0.38c0,0.38,0.38,3.68,0.38,3.92c0,0.09-0.05,0.14-0.14,0.17l-0.38,0.12
			c-0.09,0.02-0.19,0-0.24-0.14c-0.24-0.66-0.61-1.6-1.46-2.5c-0.61-0.66-1.37-0.99-2.45-0.99c-1.89,0-2.64,1.51-2.64,2.38
			c0,0.8,0.09,1.51,0.66,2.12c0.61,0.61,1.93,1.18,2.88,1.46c1.37,0.42,2.5,0.9,3.4,1.84c0.75,0.8,1.18,1.79,1.18,3.37
			c0,2.88-1.89,5.24-5,5.24c-1.93,0-3.07-0.42-4.01-1.13c-0.28-0.19-0.42-0.28-0.57-0.28c-0.14,0-0.24,0.19-0.38,0.42
			c-0.14,0.24-0.24,0.28-0.42,0.28c-0.19,0-0.28-0.14-0.28-0.38c0.05-0.28,0.38-4.11,0.42-4.39c0.02-0.14,0.05-0.19,0.14-0.19
			L168.67,38.82z"/>
		<path class="st0" d="M181.7,38.82c0.09,0,0.14,0.05,0.14,0.19c0.05,0.75,0.24,1.65,0.9,2.69c0.71,1.13,1.93,1.7,3.11,1.7
			c1.27,0,3.07-0.8,3.07-2.76c0-2.17-0.99-2.88-3.49-3.82c-0.76-0.28-2.31-0.94-3.44-1.98c-0.8-0.75-1.18-1.93-1.18-3.37
			c0-1.32,0.52-2.41,1.65-3.3c0.94-0.8,1.98-1.13,3.35-1.13c1.56,0,2.5,0.38,2.97,0.57c0.24,0.09,0.38,0.05,0.5-0.07l0.31-0.31
			c0.09-0.09,0.19-0.14,0.33-0.14s0.19,0.14,0.19,0.38c0,0.38,0.38,3.68,0.38,3.92c0,0.09-0.05,0.14-0.14,0.17l-0.38,0.12
			c-0.09,0.02-0.19,0-0.24-0.14c-0.24-0.66-0.61-1.6-1.46-2.5c-0.61-0.66-1.37-0.99-2.45-0.99c-1.89,0-2.64,1.51-2.64,2.38
			c0,0.8,0.09,1.51,0.66,2.12c0.61,0.61,1.93,1.18,2.88,1.46c1.37,0.42,2.5,0.9,3.4,1.84c0.75,0.8,1.18,1.79,1.18,3.37
			c0,2.88-1.89,5.24-5,5.24c-1.93,0-3.07-0.42-4.01-1.13c-0.28-0.19-0.42-0.28-0.57-0.28c-0.14,0-0.24,0.19-0.38,0.42
			c-0.14,0.24-0.24,0.28-0.42,0.28c-0.19,0-0.28-0.14-0.28-0.38c0.05-0.28,0.38-4.11,0.42-4.39c0.02-0.14,0.05-0.19,0.14-0.19
			L181.7,38.82z"/>
		<path class="st0" d="M198.45,36.43c0,0.24,0.05,5.66,0.05,5.92c0,0.75,0.38,0.85,0.94,0.85h0.99c0.09,0,0.19,0.05,0.19,0.17v0.59
			c0,0.14-0.09,0.19-0.24,0.19c-0.28,0-1.23-0.07-3.44-0.07c-2.36,0-3.4,0.07-3.63,0.07c-0.14,0-0.19-0.05-0.19-0.17v-0.64
			c0-0.09,0.05-0.14,0.19-0.14h0.94c0.47,0,0.99-0.05,1.09-0.68c0.05-0.33,0.09-5.43,0.09-6.7v-1.65c0-0.57-0.05-4.81-0.07-5.12
			c-0.07-0.57-0.31-0.8-0.97-0.8h-1.23c-0.14,0-0.19-0.05-0.19-0.17v-0.61c0-0.12,0.05-0.17,0.14-0.17c0.28,0,1.51,0.07,3.82,0.07
			c2.26,0,3.02-0.07,3.35-0.07c0.14,0,0.19,0.09,0.19,0.21v0.54c0,0.14-0.09,0.19-0.19,0.19h-0.9c-0.52,0-0.9,0.19-0.9,0.64
			c0,0.24-0.05,5.43-0.05,5.71V36.43z"/>
		<path class="st0" d="M217.25,28.91c1.77,1.44,3.21,3.77,3.21,6.98c0,1.75-0.47,3.59-1.75,5.19c-1.51,1.89-3.54,3.35-7.08,3.35
			c-1.42,0-3.44-0.42-5.33-1.56c-1.67-1.01-3.44-3.59-3.44-6.98c0-1.42,0.4-3.66,2.17-5.85c2.08-2.55,4.62-3.02,6.65-3.02
			C213.43,27.02,215.32,27.35,217.25,28.91z M208.19,29.38c-1.44,1.39-2.12,3.82-2.12,5.71c0,6.13,3.78,8.3,5.76,8.3
			c4.77,0,5.52-5.28,5.52-7.27c0-5.14-3.49-8.07-5.76-8.07C211.17,28.06,209.8,27.82,208.19,29.38z"/>
		<path class="st0" d="M225.7,33.41c0,4.01,0.19,7.31,0.24,8.05c0.05,1.18,0.33,1.75,1.18,1.75h0.61c0.19,0,0.19,0.09,0.19,0.21
			v0.54c0,0.14,0,0.19-0.19,0.19c-0.24,0-1.65-0.07-2.55-0.07c-0.61,0-2.22,0.07-2.45,0.07c-0.09,0-0.14-0.05-0.14-0.21v-0.59
			c0-0.05,0.05-0.14,0.14-0.14h0.8c0.61,0,0.94-0.52,1.06-1.96c0.02-0.42,0.16-3.73,0.16-7.5v-3c0-1.42-0.8-2.5-1.84-2.5h-0.75
			c-0.09-0.02-0.14-0.07-0.14-0.17v-0.64c0-0.09,0.05-0.14,0.14-0.14c0.12,0,0.31,0.02,0.73,0.05c0.42,0.02,1.06,0.02,2.1,0.02
			c0.4,0,0.75-0.02,1.04-0.05c0.31,0,0.52-0.02,0.66-0.02c0.28,0,0.42,0.07,0.57,0.21c0.24,0.24,4.86,6.04,5.33,6.7
			c0.33,0.38,4.01,4.95,4.39,5.43h0.09v-2.45c0-2.08,0-3.26-0.05-4.44c-0.05-0.9-0.14-3.21-0.26-3.61c-0.17-0.57-0.69-0.9-1.25-0.9
			h-0.76c-0.14,0-0.14-0.09-0.14-0.21v-0.54c0-0.14,0-0.19,0.19-0.19c0.28,0,1.04,0.07,2.64,0.07c1.42,0,1.98-0.07,2.26-0.07
			c0.19,0,0.24,0.09,0.24,0.17v0.54c0,0.14-0.05,0.24-0.14,0.24h-0.66c-0.47,0-0.71,0.38-0.78,1.25c-0.12,1.6-0.35,5.57-0.35,7.97
			v6.23c0,0.33,0,0.66-0.28,0.66c-0.33,0-0.61-0.19-0.8-0.38c-0.19-0.24-1.46-1.7-2.93-3.44c-1.65-2.03-3.49-4.25-3.78-4.62
			c-0.33-0.33-4.1-5.05-4.39-5.38h-0.14V33.41z"/>
	</g>
	<path class="st0" d="M18.81,44.43c-0.02-7.01-0.03-19.23,0.1-25.58c3.92,0,8.51,0,12.68,0c0-2.01,0-4.02,0-6.03
		c-4.25,0-8.51,0-12.76,0c0-4.25,0-8.51,0-12.76c-2.01,0-4.02,0-6.03,0c0,4.25,0,8.51,0,12.76c-4.25,0-8.51,0-12.76,0
		c0,2.01,0,4.02,0,6.03c4.25,0,8.51,0,12.76,0c0,6.88-0.03,18.7-0.03,25.57"/>
	<g>
		<path class="st1" d="M36.04,10.12c0-1.18-0.07-5.2-0.1-5.76c-0.1-1.91-0.62-1.97-1.88-1.97h-1.05c-0.2,0-0.26-0.07-0.26-0.26V1.37
			c0-0.2,0.07-0.3,0.26-0.3c0.46,0,2.04,0.13,4.8,0.1c1.05,0,3.03-0.1,4.8-0.1c2.5,0,4.61,0.23,5.79,0.89
			c1.84,0.99,2.5,2.5,2.5,4.48c0,2.63-1.38,4.21-4.47,5.36v0.16c3.75,0.99,5.92,2.96,5.92,6.45c0,1.78-0.99,4.15-2.57,5
			c-1.38,0.79-3.49,1.15-7.17,1.15c-1.32,0-3.49-0.1-4.8-0.1c-2.57,0-3.95,0.1-4.64,0.1c-0.13,0-0.23-0.1-0.23-0.26v-0.82
			c0-0.16,0.1-0.23,0.23-0.23h1.41c0.99,0,1.22-0.4,1.32-1.41c0.07-0.79,0.13-5.13,0.13-7.83V10.12z M40.05,11.5
			c0.53,0.03,0.99,0.03,1.51,0.03c1.45,0,2.76-0.36,3.49-0.95c1.25-0.99,1.71-2.43,1.71-3.88c0-1.25-0.39-2.57-1.45-3.36
			c-1.18-0.86-2.76-1.15-3.75-1.15c-0.33,0-0.72,0-0.99,0.07c-0.2,0.07-0.4,0.26-0.43,0.53c-0.03,0.63-0.1,3.45-0.1,6.22V11.5z
			 M40.05,19.14c0,3.09,0.72,4.38,2.83,4.38c2.57,0,4.94-1.22,4.94-5.23c0-2.7-1.32-4.41-3.16-5.13c-1.25-0.53-2.63-0.59-3.75-0.59
			h-0.86v2.04V19.14z"/>
		<path class="st1" d="M60.48,15.42c-0.26,0.76-1.88,5.46-2.04,6.35c-0.07,0.26-0.07,0.53-0.07,0.69c0,0.43,0.53,0.79,1.18,0.79
			h1.38c0.26,0,0.33,0.07,0.33,0.16v0.82c0,0.2-0.07,0.33-0.26,0.33c-0.46,0-1.84-0.1-4.15-0.1c-2.44,0-3.16,0.1-3.62,0.1
			c-0.2,0-0.2-0.2-0.2-0.43v-0.63c0-0.2,0.07-0.26,0.2-0.26h0.99c0.92,0,1.51-0.46,2.11-1.48c0.33-0.59,2.7-6.51,3.68-9.28
			c0.23-0.66,2.89-7.76,3.22-8.62c0.07-0.33,0.26-0.92,0.07-1.12c-0.1-0.1-0.2-0.3-0.2-0.4c0-0.13,0.07-0.26,0.33-0.33
			c1.05-0.26,2.86-1.25,3.26-1.65c0.2-0.2,0.33-0.33,0.49-0.33c0.2,0,0.33,0.4,0.39,0.59c0.59,2.04,3.16,9.41,3.75,11.52
			c0.79,2.57,2.9,8.69,3.36,9.57c0.59,1.12,1.45,1.51,2.11,1.51h1.05c0.2,0,0.26,0.07,0.26,0.23v0.69c0,0.2-0.07,0.4-0.33,0.4
			c-0.59,0-1.25-0.1-4.87-0.1c-2.76,0-3.88,0.1-4.61,0.1c-0.26,0-0.33-0.2-0.33-0.4v-0.66c0-0.2,0.07-0.26,0.26-0.26h0.86
			c0.92,0,1.18-0.33,0.99-1.22c-0.26-1.18-1.58-5.4-1.97-6.61H60.48z M67.78,14.1c-0.33-0.95-2.57-8.46-2.76-9.11
			c-0.13-0.4-0.2-0.59-0.33-0.59c-0.2,0-0.33,0.13-0.43,0.43c-0.13,0.43-3.09,8.52-3.32,9.28H67.78z"/>
		<path class="st1" d="M99.53,17.69c0.07,0.07,0.07,0.13,0.07,0.33c-0.13,0.2-1.45,5.66-1.64,6.55c-0.86-0.03-10.33-0.1-13.69-0.1
			c-2.96,0-4.15,0.1-4.54,0.1c-0.26,0-0.26-0.07-0.26-0.3v-0.76c0-0.2,0-0.26,0.2-0.26h1.32c1.18,0,1.38-0.46,1.38-0.89
			c0-0.59,0.13-8.82,0.13-10.79V9.73c0-2.11-0.07-5.59-0.13-6.15c-0.07-0.86-0.2-1.18-1.05-1.18h-1.38c-0.2,0-0.26-0.2-0.26-0.3
			V1.34c0-0.2,0.07-0.26,0.26-0.26c0.33,0,1.51,0.1,4.54,0.1c3.55,0,4.93-0.1,5.2-0.1c0.26,0,0.33,0.13,0.33,0.3v0.76
			c0,0.13-0.07,0.26-0.33,0.26h-1.78c-0.99,0-1.12,0.33-1.12,1.22c0,0.46-0.13,5.4-0.13,7.7v2.83c0,0.59,0,7.7,0.13,9.11h1.84
			c1.84,0,4.21,0,5.53-0.16c1.84-0.26,3.95-4.21,4.41-5.46c0.13-0.13,0.2-0.2,0.4-0.13L99.53,17.69z"/>
		<path class="st1" d="M105.84,2.55h-0.92c-1.05,0-3.42,0-4.8,0.46c-1.05,0.46-2.3,2.63-2.93,3.75c-0.1,0.16-0.2,0.3-0.36,0.23
			l-0.66-0.23C96.04,6.7,96,6.6,96.04,6.44c0.33-1.25,1.45-5.59,1.58-6.05c0.07-0.46,0.26-0.59,0.39-0.59c0.2,0,0.33,0.13,0.53,0.33
			c0.66,0.66,1.32,0.82,2.24,0.86c1.78,0.07,3.16,0.2,6.38,0.2h1.78c3.62,0,5-0.13,6.51-0.2c0.63-0.03,1.88-0.49,2.37-0.86
			c0.26-0.2,0.39-0.33,0.59-0.33s0.26,0.13,0.33,0.53c0.07,0.59,0.72,4.67,0.99,6.25c0.03,0.2-0.03,0.26-0.13,0.3l-0.66,0.23
			c-0.13,0.03-0.2-0.07-0.3-0.26c-0.46-0.92-1.68-3.03-2.6-3.68c-0.92-0.53-3.88-0.59-5.07-0.59h-0.92v17.54
			c0,2.5,0.33,3.16,1.12,3.16h1.91c0.13,0,0.2,0.13,0.2,0.3v0.69c0,0.2-0.07,0.33-0.33,0.33c-0.33,0-1.38-0.1-4.94-0.1
			c-3.36,0-4.74,0.1-5.2,0.1c-0.2,0-0.26-0.07-0.26-0.3v-0.76c0-0.2,0.1-0.26,0.23-0.26h1.88c0.66,0,1.05-0.4,1.09-0.89
			c0.1-0.86,0.1-10.92,0.1-11.58V2.55z"/>
		<path class="st1" d="M129.03,13.81c0,0.33,0.07,7.9,0.07,8.26c0,1.05,0.53,1.18,1.32,1.18h1.38c0.13,0,0.26,0.07,0.26,0.23v0.82
			c0,0.2-0.13,0.26-0.33,0.26c-0.4,0-1.71-0.1-4.8-0.1c-3.29,0-4.74,0.1-5.07,0.1c-0.2,0-0.26-0.07-0.26-0.23v-0.89
			c0-0.13,0.07-0.2,0.26-0.2h1.32c0.66,0,1.38-0.07,1.51-0.95c0.07-0.46,0.13-7.57,0.13-9.34v-2.3c0-0.79-0.07-6.71-0.1-7.14
			c-0.1-0.79-0.43-1.12-1.35-1.12h-1.71c-0.2,0-0.26-0.07-0.26-0.23V1.3c0-0.16,0.07-0.23,0.2-0.23c0.39,0,2.11,0.1,5.33,0.1
			c3.16,0,4.21-0.1,4.67-0.1c0.2,0,0.26,0.13,0.26,0.3v0.76c0,0.2-0.13,0.26-0.26,0.26h-1.25c-0.72,0-1.25,0.26-1.25,0.89
			c0,0.33-0.07,7.57-0.07,7.96V13.81z"/>
		<path class="st1" d="M158.08,12.56c0-0.99,0-9.15-0.07-9.28h-0.13c-0.26,0.46-4.41,10.07-4.8,10.92
			c-0.49,1.05-3.85,8.82-4.01,9.15c-0.13,0.26-0.39,0.72-0.72,0.72c-0.2,0-0.4-0.2-0.53-0.59c-0.13-0.2-4.41-10.46-4.61-10.99
			c-0.59-1.51-3.62-8.88-4.01-9.28c-0.13,0.46-0.16,8.75-0.16,9.15c0,0.4-0.03,5.99,0.16,8.13c0.13,1.51,0.53,2.76,1.58,2.76h1.45
			c0.2,0,0.26,0.13,0.26,0.23v0.82c0,0.13-0.07,0.26-0.33,0.26c-0.33,0-1.25-0.1-3.75-0.1c-2.83,0-3.95,0.1-4.28,0.1
			c-0.26,0-0.26-0.07-0.26-0.3v-0.82c0-0.07,0-0.2,0.2-0.2h1.51c1.12,0,1.48-1.18,1.64-2.34c0.3-2.3,0.49-10.4,0.49-10.99V4.3
			c0-1.18-0.17-1.91-1.61-1.91h-1.45c-0.2,0-0.26-0.13-0.26-0.23V1.27c0-0.07,0.07-0.2,0.26-0.2c0.33,0,1.18,0.1,4.67,0.1
			c1.58,0,2.5-0.1,2.9-0.1c0.4,0,0.63,0.13,0.79,0.56c1.18,3.09,5.79,14.02,6.78,16.71c0.3-0.59,2.63-6.02,3.49-7.96
			c0.59-1.38,3.55-8.16,3.72-8.82c0.1-0.33,0.49-0.39,1.28-0.39c4.8,0.03,5.92-0.1,6.32-0.1c0.13,0,0.2,0.13,0.2,0.3v0.69
			c0,0.2-0.07,0.33-0.26,0.33h-1.45c-0.86,0-0.92,0.59-0.95,1.28c-0.03,0.72-0.03,7.3-0.03,8.16v2.3c0,1.97,0.07,6.78,0.07,7.34
			c0.03,1.25,0.33,1.78,0.92,1.78h1.78c0.2,0,0.2,0.13,0.2,0.23v0.76c0,0.2,0,0.33-0.26,0.33c-0.4,0-1.97-0.1-4.87-0.1
			c-3.22,0-4.48,0.1-4.94,0.1c-0.2,0-0.26-0.13-0.26-0.3v-0.76c0-0.2,0.07-0.26,0.26-0.26h2.04c0.59,0,0.86-0.2,0.95-1.15
			c0.03-0.33,0.1-5.07,0.1-7.7V12.56z"/>
		<path class="st1" d="M188.17,3.31c2.47,2.01,4.47,5.26,4.47,9.74c0,2.43-0.66,5-2.44,7.24c-2.11,2.63-4.93,4.67-9.87,4.67
			c-1.97,0-4.8-0.59-7.44-2.17c-2.34-1.41-4.8-5-4.8-9.74c0-1.97,0.56-5.1,3.03-8.16c2.9-3.55,6.45-4.21,9.28-4.21
			C182.84,0.68,185.48,1.14,188.17,3.31z M175.54,3.97c-2.01,1.94-2.96,5.33-2.96,7.96c0,8.55,5.26,11.58,8.03,11.58
			c6.65,0,7.7-7.37,7.7-10.13c0-7.17-4.87-11.25-8.03-11.25C179.69,2.13,177.78,1.8,175.54,3.97z"/>
		<path class="st1" d="M202.74,15.85c0,1.97,0.07,5.66,0.13,6.15c0.1,0.66,0.33,1.25,0.86,1.25h1.64c0.2,0,0.26,0.1,0.26,0.23v0.79
			c0,0.23-0.1,0.3-0.36,0.3c-0.43,0-1.09-0.1-4.51-0.1c-3.22,0-4.01,0.1-4.34,0.1c-0.2,0-0.26-0.1-0.26-0.3v-0.76
			c0-0.16,0.07-0.26,0.2-0.26h1.12c0.72,0,1.25-0.2,1.25-1.09c0.07-3.29,0.07-6.38,0.07-9.48V4.04c0-1.12-0.46-1.64-1.05-1.64h-1.28
			c-0.16,0-0.23-0.07-0.23-0.2V1.3c0-0.16,0.07-0.23,0.23-0.23c0.23,0,1.28,0.1,4.51,0.1c1.84,0,4.87-0.1,5.86-0.1
			c2.63,0,4.67,0.89,5.99,2.07c1.18,1.05,1.78,2.43,1.78,3.68c0,4.15-2.5,5.86-6.12,6.45v0.13c0.92,0.33,1.51,0.92,1.97,1.51
			c0.4,0.53,2.44,3.62,2.7,4.01c0.2,0.33,2.3,3.29,2.8,3.75c0.63,0.56,1.55,0.63,2.34,0.63c0.2,0,0.26,0.1,0.26,0.23v0.69
			c0,0.23-0.07,0.33-0.26,0.33c-0.26,0-1.12-0.1-3.22-0.1c-0.92,0-2.17,0.07-2.9,0.1c-0.39-0.3-1.02-1.18-1.45-1.88
			c-0.59-0.92-1.88-3.29-2.17-3.82c-0.33-0.59-1.25-2.11-1.78-2.83c-0.82-1.15-1.58-2.04-2.96-2.04c-0.13,0-0.69,0.03-1.05,0.07
			V15.85z M202.81,12.89c0.46,0.07,0.86,0.13,1.25,0.13c5.13,0,6.19-4.15,6.19-5.66s-0.63-2.93-1.45-3.68
			c-1.18-1.05-2.7-1.41-4.34-1.41c-0.53,0-0.92,0.03-1.18,0.2c-0.26,0.16-0.39,0.56-0.39,0.95L202.81,12.89z"/>
		<path class="st1" d="M226.46,14.93c0.03,1.78,0.1,5,0.1,5.59c0,1.71,0.59,2.37,1.32,2.57c0.53,0.13,1.32,0.26,2.57,0.26
			c0.59,0,2.11-0.07,2.76-0.13c0.59-0.07,1.84-0.39,2.7-1.12c0.59-0.53,2.44-2.7,3.06-3.49c0.13-0.16,0.23-0.2,0.36-0.13l0.53,0.33
			c0.1,0.07,0.13,0.17,0.07,0.33l-1.58,4.93c-0.1,0.3-0.33,0.49-0.72,0.49c-0.16,0-0.89-0.03-2.93-0.07
			c-2.07,0-5.46-0.03-10.96-0.03c-1.22,0-2.11,0.03-2.8,0.03c-0.66,0.03-1.12,0.07-1.41,0.07c-0.2,0-0.26-0.07-0.26-0.26v-0.79
			c0-0.2,0.07-0.26,0.33-0.26h1.12c1.51,0,1.64-0.2,1.64-1.41V14v-3.22c0-2.7-0.07-6.78-0.13-7.24c-0.13-0.89-0.46-1.15-1.45-1.15
			h-1.25c-0.13,0-0.2-0.07-0.2-0.23V1.3c0-0.16,0.03-0.23,0.2-0.23c0.72,0,1.91,0.13,4.61,0.1h0.92c1.45,0,9.02-0.07,10.46-0.07
			c0.53,0,1.15-0.03,1.32-0.03s0.23,0.07,0.26,0.2c0.13,0.43,1.38,4.9,1.51,5.23c0.07,0.2,0.03,0.3-0.1,0.36l-0.59,0.26
			c-0.1,0.03-0.2,0-0.3-0.16c-0.13-0.2-2.83-3.22-3.62-3.68c-0.69-0.4-1.58-0.82-2.5-0.86l-5-0.13l-0.07,9.51
			c0.99,0,3.36-0.07,3.75-0.16c0.72-0.13,1.12-0.39,1.51-1.18c0.2-0.43,0.53-1.25,0.53-1.84c0-0.2,0.13-0.26,0.26-0.26l0.86,0.07
			c0.13,0,0.23,0.07,0.2,0.26c-0.07,0.53-0.07,2.7-0.07,3.55c0,1.32,0.13,2.89,0.2,3.62c0,0.16-0.07,0.2-0.26,0.23l-0.72,0.13
			c-0.13,0.03-0.2-0.03-0.26-0.23c-0.13-0.53-0.36-1.25-0.53-1.64c-0.3-0.66-0.92-1.12-1.64-1.18c-1.18-0.13-2.76-0.2-3.82-0.2
			L226.46,14.93z"/>
	</g>
</g>
</svg>
