<?xml version="1.0" encoding="utf-8"?>
<!-- Generator: Adobe Illustrator 22.0.1, SVG Export Plug-In . SVG Version: 6.00 Build 0)  -->
<svg version="1.1" id="Layer_1" xmlns="http://www.w3.org/2000/svg" xmlns:xlink="http://www.w3.org/1999/xlink" x="0px" y="0px"
	 viewBox="0 0 239.34 200.96" style="enable-background:new 0 0 239.34 200.96;" xml:space="preserve">
<style type="text/css">
	.st0{fill-rule:evenodd;clip-rule:evenodd;fill:#934054;}
	.st1{fill-rule:evenodd;clip-rule:evenodd;fill:#732E4A;}
	.st2{fill:#888B8D;}
	.st3{fill:#502B3A;}
</style>
<g id="brm-logo">
	<g>
		<polygon class="st0" points="155.05,139.49 160.38,139.49 160.38,125.43 155.05,125.43 155.05,124.32 154.56,124.32 
			154.56,115.77 153.86,115.77 153.86,108.81 153.42,108.81 153.42,105.99 152.81,105.99 152.81,105.51 151.36,98.55 150.46,98.55 
			150.46,98.03 149.88,98.03 149.88,97.78 149.38,97.78 149.38,98.03 149.29,98.03 149.29,98.55 148.6,98.55 148.6,87.8 
			148.35,87.8 148.35,98.55 148.06,98.55 148.06,97.93 147.03,97.93 147.03,98.55 146.17,98.55 144.73,105.51 144.73,105.99 
			144.11,105.99 144.11,108.81 143.67,108.81 143.67,115.77 142.97,115.77 142.97,124.32 142.48,124.32 142.48,125.43 
			137.15,125.43 137.15,139.49 142.48,139.49 		"/>
		<polygon class="st0" points="235.6,158.62 235.6,126.33 226.11,126.33 226.11,125.05 215.76,125.05 215.76,126.33 214.74,126.33 
			214.74,158.62 197,158.62 197,146.37 187.38,146.37 187.38,158.62 78.76,158.62 78.76,140.53 71.04,140.53 71.04,153.77 
			68.96,153.77 68.96,158.62 57.93,158.62 57.93,129.13 37.33,129.13 37.33,158.62 19.68,158.62 19.68,123.25 0.06,123.25 
			0.06,162.36 0.89,162.36 0.89,166.96 239.32,166.96 239.32,158.62 		"/>
	</g>
	<g>
		<rect x="207.79" y="135.8" class="st1" width="9.51" height="27.48"/>
		<rect x="224.89" y="149.49" class="st1" width="8.72" height="13.61"/>
		<polygon class="st1" points="46.88,149.59 48.98,149.59 32.96,133.57 27.97,138.56 22.68,138.56 22.68,143.84 16.94,149.59 
			20.24,149.59 20.24,151.5 12.63,151.5 12.63,164.1 54.49,164.1 54.49,151.5 46.88,151.5 		"/>
		<path class="st1" d="M182,127.79l-3.69-4.71h-2.05v-4.19h-2.07v-0.24v-7.88h0.66v0.58h0.44V89.1h-0.44v14.81h-0.66v-2.86
			l-3.01,3.33v14.26v4.43v4.71v2.31h-3.02v-0.83h-3.32v0.83h-0.72v32.67h7.06v1.33h7.12h1.22H182h1.84v-1.85h0.11V135.5H182V127.79z
			 M174.2,109.01v-0.79h0.66v0.79H174.2z M174.85,105.67v0.79h-0.66v-0.79H174.85z"/>
		<polygon class="st1" points="143.51,121.6 141.64,121.6 141.64,121 137.76,121 137.76,120.5 137.21,120.5 137.21,121 136.84,121 
			136.84,121.6 135.61,121.6 135.61,120.82 134.47,120.82 134.47,121.6 131.46,121.6 131.46,122.01 129.68,122.01 129.68,123.87 
			124.47,123.87 124.47,122.01 113.83,122.01 113.83,123.87 108.22,123.87 108.22,162.91 145.23,162.91 145.23,126.95 
			145.23,123.87 145.23,122.01 143.51,122.01 		"/>
		<rect x="0.06" y="149.49" class="st1" width="8.72" height="13.61"/>
	</g>
	<g>
		<path class="st2" d="M5.31,193.56c0,1.64,0.05,4.69,0.11,5.1c0.08,0.55,0.27,1.04,0.71,1.04h1.36c0.16,0,0.22,0.08,0.22,0.19v0.65
			c0,0.19-0.08,0.25-0.3,0.25c-0.35,0-0.9-0.08-3.73-0.08c-2.67,0-3.33,0.08-3.6,0.08c-0.16,0-0.22-0.08-0.22-0.25v-0.63
			c0-0.14,0.05-0.22,0.16-0.22h0.93c0.6,0,1.04-0.16,1.04-0.9c0.05-2.73,0.05-5.29,0.05-7.85v-7.17c0-0.93-0.38-1.36-0.87-1.36H0.1
			c-0.14,0-0.19-0.05-0.19-0.16v-0.74c0-0.14,0.05-0.19,0.19-0.19c0.19,0,1.06,0.08,3.73,0.08c1.53,0,4.03-0.08,4.85-0.08
			c2.18,0,3.87,0.74,4.96,1.72c0.98,0.87,1.47,2.02,1.47,3.05c0,3.43-2.07,4.85-5.07,5.34v0.11c0.76,0.27,1.25,0.76,1.64,1.25
			c0.33,0.44,2.02,3,2.24,3.33c0.16,0.27,1.91,2.73,2.32,3.11c0.52,0.46,1.28,0.52,1.94,0.52c0.16,0,0.22,0.08,0.22,0.19v0.57
			c0,0.19-0.05,0.27-0.22,0.27c-0.22,0-0.93-0.08-2.67-0.08c-0.76,0-1.8,0.05-2.4,0.08c-0.33-0.25-0.85-0.98-1.2-1.55
			c-0.49-0.76-1.55-2.73-1.8-3.16c-0.27-0.49-1.04-1.74-1.47-2.34c-0.68-0.95-1.31-1.69-2.45-1.69c-0.11,0-0.57,0.03-0.87,0.05
			V193.56z M5.36,191.1c0.38,0.05,0.71,0.11,1.04,0.11c4.25,0,5.13-3.43,5.13-4.69c0-1.25-0.52-2.43-1.2-3.05
			c-0.98-0.87-2.24-1.17-3.6-1.17c-0.44,0-0.76,0.03-0.98,0.16c-0.22,0.14-0.33,0.46-0.33,0.79L5.36,191.1z"/>
		<path class="st2" d="M24.83,192.79c0.03,1.47,0.08,4.14,0.08,4.63c0,1.42,0.49,1.96,1.09,2.13c0.44,0.11,1.09,0.22,2.13,0.22
			c0.49,0,1.74-0.05,2.29-0.11c0.49-0.05,1.53-0.33,2.23-0.93c0.49-0.44,2.02-2.24,2.54-2.89c0.11-0.14,0.19-0.16,0.3-0.11
			l0.44,0.27c0.08,0.05,0.11,0.14,0.05,0.27l-1.31,4.09c-0.08,0.25-0.27,0.41-0.6,0.41c-0.14,0-0.74-0.03-2.43-0.05
			c-1.72,0-4.53-0.03-9.08-0.03c-1.01,0-1.74,0.03-2.32,0.03c-0.55,0.03-0.93,0.05-1.17,0.05c-0.16,0-0.22-0.05-0.22-0.22v-0.65
			c0-0.16,0.05-0.22,0.27-0.22h0.93c1.25,0,1.36-0.16,1.36-1.17v-6.49v-2.67c0-2.24-0.05-5.62-0.11-6c-0.11-0.74-0.38-0.95-1.2-0.95
			h-1.04c-0.11,0-0.16-0.05-0.16-0.19v-0.71c0-0.14,0.03-0.19,0.16-0.19c0.6,0,1.58,0.11,3.82,0.08h0.76c1.2,0,7.47-0.05,8.67-0.05
			c0.44,0,0.95-0.03,1.09-0.03s0.19,0.05,0.22,0.16c0.11,0.35,1.14,4.06,1.25,4.33c0.05,0.16,0.03,0.25-0.08,0.3l-0.49,0.22
			c-0.08,0.03-0.16,0-0.24-0.14c-0.11-0.16-2.34-2.67-3-3.05c-0.57-0.33-1.31-0.68-2.07-0.71l-4.14-0.11l-0.05,7.88
			c0.82,0,2.78-0.05,3.11-0.14c0.6-0.11,0.93-0.33,1.25-0.98c0.16-0.35,0.44-1.04,0.44-1.53c0-0.16,0.11-0.22,0.22-0.22l0.71,0.05
			c0.11,0,0.19,0.05,0.16,0.22c-0.05,0.44-0.05,2.24-0.05,2.94c0,1.09,0.11,2.4,0.16,3c0,0.14-0.05,0.16-0.22,0.19l-0.6,0.11
			c-0.11,0.03-0.16-0.03-0.22-0.19c-0.11-0.44-0.3-1.04-0.44-1.36c-0.24-0.55-0.76-0.93-1.36-0.98c-0.98-0.11-2.29-0.16-3.16-0.16
			L24.83,192.79z"/>
		<path class="st2" d="M39,194.62c0.11,0,0.16,0.05,0.16,0.22c0.05,0.87,0.27,1.91,1.04,3.11c0.82,1.31,2.23,1.96,3.6,1.96
			c1.47,0,3.54-0.93,3.54-3.19c0-2.51-1.15-3.33-4.03-4.42c-0.87-0.33-2.67-1.09-3.98-2.29c-0.93-0.87-1.36-2.24-1.36-3.9
			c0-1.53,0.6-2.78,1.91-3.82c1.09-0.93,2.29-1.31,3.87-1.31c1.8,0,2.89,0.44,3.43,0.65c0.27,0.11,0.44,0.05,0.57-0.08l0.35-0.35
			c0.11-0.11,0.22-0.16,0.38-0.16s0.22,0.16,0.22,0.44c0,0.44,0.44,4.25,0.44,4.53c0,0.11-0.05,0.16-0.16,0.19l-0.44,0.14
			c-0.11,0.03-0.22,0-0.27-0.16c-0.27-0.76-0.71-1.85-1.69-2.89c-0.71-0.76-1.58-1.15-2.83-1.15c-2.18,0-3.05,1.74-3.05,2.75
			c0,0.93,0.11,1.74,0.76,2.45c0.71,0.71,2.24,1.36,3.33,1.69c1.58,0.49,2.89,1.04,3.93,2.13c0.87,0.93,1.36,2.07,1.36,3.9
			c0,3.33-2.18,6.05-5.78,6.05c-2.23,0-3.54-0.49-4.63-1.31c-0.33-0.22-0.49-0.33-0.65-0.33c-0.16,0-0.27,0.22-0.44,0.49
			c-0.16,0.27-0.27,0.33-0.49,0.33c-0.22,0-0.33-0.16-0.33-0.44c0.05-0.33,0.44-4.74,0.49-5.07c0.03-0.16,0.05-0.22,0.16-0.22
			L39,194.62z"/>
		<path class="st2" d="M70.9,196.25c0.08,0.08,0.11,0.16,0.05,0.27c-1.64,2.34-4.25,4.58-8.12,4.58c-3.49,0-5.45-1.04-7.14-2.56
			c-2.02-1.8-2.94-4.96-2.94-7.36c0-2.67,0.87-5.23,2.78-7.31c1.47-1.58,3.82-2.89,7.09-2.89c2.51,0,4.52,0.76,5.51,1.31
			c0.38,0.22,0.49,0.22,0.55,0l0.22-0.71c0.05-0.16,0.11-0.16,0.44-0.16c0.33,0,0.38,0.05,0.38,0.44c0,0.49,0.55,4.85,0.65,5.67
			c0.03,0.16,0,0.25-0.11,0.27l-0.52,0.16c-0.14,0.05-0.22-0.05-0.3-0.27c-0.33-0.98-0.98-2.34-2.13-3.54
			c-1.2-1.15-2.62-2.02-4.74-2.02c-4.36,0-6.16,3.93-6.16,7.85c0,1.69,0.49,4.91,2.51,7.09c1.8,1.91,3.38,2.13,4.69,2.13
			c3,0,5.37-1.5,6.52-3.16c0.14-0.19,0.24-0.27,0.33-0.19L70.9,196.25z"/>
		<path class="st2" d="M74.47,183.77c0-0.93-0.22-1.36-0.93-1.36h-1.25c-0.16,0-0.22-0.05-0.22-0.25v-0.63
			c0-0.16,0.05-0.22,0.27-0.22c0.27,0,1.58,0.08,4.2,0.08c2.29,0,3.6-0.08,3.93-0.08c0.16,0,0.22,0.05,0.22,0.19v0.68
			c0,0.16-0.05,0.22-0.22,0.22h-1.15c-0.82,0-1.31,0.49-1.34,1.06c-0.03,0.33-0.08,1.96-0.08,3.54v3.38c0,1.36,0.03,3.3,0.08,4.17
			c0.08,1.25,0.3,2.51,0.95,3.38c0.93,1.25,2.4,1.69,3.71,1.69c1.25,0,2.78-0.49,3.65-1.31c1.04-1.04,1.58-2.62,1.58-4.61v-4.91
			c0-2.18-0.22-4.58-0.3-5.21c-0.08-0.71-0.52-1.2-1.12-1.2h-0.98c-0.16,0-0.22-0.08-0.22-0.19v-0.68c0-0.16,0.05-0.22,0.22-0.22
			c0.27,0,1.53,0.08,3.33,0.08c1.69,0,2.56-0.08,2.78-0.08c0.25,0,0.27,0.08,0.27,0.22v0.63c0,0.16-0.03,0.25-0.16,0.25h-0.98
			c-0.98,0-1.09,0.76-1.15,1.06c-0.05,0.33-0.05,4.14-0.05,4.5c0,0.38-0.05,5.12-0.16,6.21c-0.16,2.24-0.82,3.93-2.29,5.23
			c-1.15,1.04-2.89,1.69-4.96,1.69c-1.31,0-2.89-0.22-3.93-0.65c-1.58-0.65-2.67-1.91-3.22-3.65c-0.38-1.2-0.49-3-0.49-6.57V183.77z
			"/>
		<path class="st2" d="M99.2,192.79c0.03,1.47,0.08,4.14,0.08,4.63c0,1.42,0.49,1.96,1.09,2.13c0.44,0.11,1.09,0.22,2.13,0.22
			c0.49,0,1.74-0.05,2.29-0.11c0.49-0.05,1.53-0.33,2.23-0.93c0.49-0.44,2.02-2.24,2.54-2.89c0.11-0.14,0.19-0.16,0.3-0.11
			l0.44,0.27c0.08,0.05,0.11,0.14,0.05,0.27l-1.31,4.09c-0.08,0.25-0.27,0.41-0.6,0.41c-0.14,0-0.74-0.03-2.43-0.05
			c-1.72,0-4.53-0.03-9.08-0.03c-1.01,0-1.74,0.03-2.32,0.03c-0.55,0.03-0.93,0.05-1.17,0.05c-0.16,0-0.22-0.05-0.22-0.22v-0.65
			c0-0.16,0.05-0.22,0.27-0.22h0.93c1.25,0,1.36-0.16,1.36-1.17v-6.49v-2.67c0-2.24-0.05-5.62-0.11-6c-0.11-0.74-0.38-0.95-1.2-0.95
			h-1.04c-0.11,0-0.16-0.05-0.16-0.19v-0.71c0-0.14,0.03-0.19,0.16-0.19c0.6,0,1.58,0.11,3.82,0.08h0.76c1.2,0,7.47-0.05,8.67-0.05
			c0.44,0,0.95-0.03,1.09-0.03c0.14,0,0.19,0.05,0.22,0.16c0.11,0.35,1.14,4.06,1.25,4.33c0.05,0.16,0.03,0.25-0.08,0.3l-0.49,0.22
			c-0.08,0.03-0.16,0-0.24-0.14c-0.11-0.16-2.34-2.67-3-3.05c-0.57-0.33-1.31-0.68-2.07-0.71l-4.14-0.11l-0.05,7.88
			c0.82,0,2.78-0.05,3.11-0.14c0.6-0.11,0.93-0.33,1.25-0.98c0.16-0.35,0.44-1.04,0.44-1.53c0-0.16,0.11-0.22,0.22-0.22l0.71,0.05
			c0.11,0,0.19,0.05,0.16,0.22c-0.05,0.44-0.05,2.24-0.05,2.94c0,1.09,0.11,2.4,0.16,3c0,0.14-0.05,0.16-0.22,0.19l-0.6,0.11
			c-0.11,0.03-0.16-0.03-0.22-0.19c-0.11-0.44-0.3-1.04-0.44-1.36c-0.24-0.55-0.76-0.93-1.36-0.98c-0.98-0.11-2.29-0.16-3.16-0.16
			L99.2,192.79z"/>
		<path class="st2" d="M136.9,190.83c0-0.82,0-7.58-0.05-7.69h-0.11c-0.22,0.38-3.65,8.34-3.98,9.05c-0.41,0.87-3.19,7.31-3.33,7.58
			c-0.11,0.22-0.33,0.6-0.6,0.6c-0.16,0-0.33-0.16-0.44-0.49c-0.11-0.16-3.65-8.67-3.82-9.11c-0.49-1.25-3-7.36-3.33-7.69
			c-0.11,0.38-0.14,7.25-0.14,7.58c0,0.33-0.03,4.96,0.14,6.73c0.11,1.25,0.44,2.29,1.31,2.29h1.2c0.16,0,0.22,0.11,0.22,0.19v0.68
			c0,0.11-0.05,0.22-0.27,0.22c-0.27,0-1.04-0.08-3.11-0.08c-2.34,0-3.27,0.08-3.54,0.08c-0.22,0-0.22-0.05-0.22-0.25v-0.68
			c0-0.05,0-0.16,0.16-0.16h1.25c0.93,0,1.23-0.98,1.36-1.94c0.25-1.91,0.41-8.61,0.41-9.1v-4.66c0-0.98-0.14-1.58-1.34-1.58h-1.2
			c-0.16,0-0.22-0.11-0.22-0.19v-0.74c0-0.05,0.05-0.16,0.22-0.16c0.27,0,0.98,0.08,3.87,0.08c1.31,0,2.07-0.08,2.4-0.08
			s0.52,0.11,0.65,0.46c0.98,2.56,4.8,11.61,5.62,13.85c0.25-0.49,2.18-4.99,2.89-6.6c0.49-1.14,2.94-6.76,3.08-7.31
			c0.08-0.27,0.41-0.33,1.06-0.33c3.98,0.03,4.91-0.08,5.23-0.08c0.11,0,0.16,0.11,0.16,0.25v0.57c0,0.16-0.05,0.27-0.22,0.27h-1.2
			c-0.71,0-0.76,0.49-0.79,1.06c-0.03,0.6-0.03,6.05-0.03,6.76v1.91c0,1.64,0.05,5.62,0.05,6.08c0.03,1.04,0.27,1.47,0.76,1.47h1.47
			c0.16,0,0.16,0.11,0.16,0.19v0.63c0,0.16,0,0.27-0.22,0.27c-0.33,0-1.64-0.08-4.03-0.08c-2.67,0-3.71,0.08-4.09,0.08
			c-0.16,0-0.22-0.11-0.22-0.25v-0.63c0-0.16,0.05-0.22,0.22-0.22h1.69c0.49,0,0.71-0.16,0.79-0.95c0.03-0.27,0.08-4.2,0.08-6.38
			V190.83z"/>
		<path class="st2" d="M150.69,191.87c0,0.27,0.05,6.54,0.05,6.84c0,0.87,0.44,0.98,1.09,0.98h1.15c0.11,0,0.22,0.05,0.22,0.19v0.68
			c0,0.16-0.11,0.22-0.27,0.22c-0.33,0-1.42-0.08-3.98-0.08c-2.73,0-3.93,0.08-4.2,0.08c-0.16,0-0.22-0.05-0.22-0.19v-0.74
			c0-0.11,0.05-0.16,0.22-0.16h1.09c0.54,0,1.14-0.05,1.25-0.79c0.05-0.38,0.11-6.27,0.11-7.74v-1.91c0-0.65-0.05-5.56-0.08-5.92
			c-0.08-0.65-0.36-0.93-1.12-0.93h-1.42c-0.16,0-0.22-0.05-0.22-0.19v-0.71c0-0.14,0.05-0.19,0.16-0.19c0.33,0,1.74,0.08,4.42,0.08
			c2.62,0,3.49-0.08,3.87-0.08c0.16,0,0.22,0.11,0.22,0.25v0.63c0,0.16-0.11,0.22-0.22,0.22h-1.04c-0.6,0-1.04,0.22-1.04,0.74
			c0,0.27-0.05,6.27-0.05,6.6V191.87z"/>
		<path class="st2" d="M156.96,194.62c0.11,0,0.16,0.05,0.16,0.22c0.05,0.87,0.27,1.91,1.04,3.11c0.82,1.31,2.23,1.96,3.6,1.96
			c1.47,0,3.54-0.93,3.54-3.19c0-2.51-1.15-3.33-4.03-4.42c-0.87-0.33-2.67-1.09-3.98-2.29c-0.93-0.87-1.36-2.24-1.36-3.9
			c0-1.53,0.6-2.78,1.91-3.82c1.09-0.93,2.29-1.31,3.87-1.31c1.8,0,2.89,0.44,3.43,0.65c0.27,0.11,0.44,0.05,0.57-0.08l0.35-0.35
			c0.11-0.11,0.22-0.16,0.38-0.16c0.16,0,0.22,0.16,0.22,0.44c0,0.44,0.44,4.25,0.44,4.53c0,0.11-0.05,0.16-0.16,0.19l-0.44,0.14
			c-0.11,0.03-0.22,0-0.27-0.16c-0.27-0.76-0.71-1.85-1.69-2.89c-0.71-0.76-1.58-1.15-2.83-1.15c-2.18,0-3.05,1.74-3.05,2.75
			c0,0.93,0.11,1.74,0.76,2.45c0.71,0.71,2.24,1.36,3.33,1.69c1.58,0.49,2.89,1.04,3.93,2.13c0.87,0.93,1.36,2.07,1.36,3.9
			c0,3.33-2.18,6.05-5.78,6.05c-2.23,0-3.54-0.49-4.63-1.31c-0.33-0.22-0.49-0.33-0.65-0.33c-0.16,0-0.27,0.22-0.44,0.49
			c-0.16,0.27-0.27,0.33-0.49,0.33c-0.22,0-0.33-0.16-0.33-0.44c0.05-0.33,0.44-4.74,0.49-5.07c0.03-0.16,0.05-0.22,0.16-0.22
			L156.96,194.62z"/>
		<path class="st2" d="M172.01,194.62c0.11,0,0.16,0.05,0.16,0.22c0.05,0.87,0.27,1.91,1.04,3.11c0.82,1.31,2.23,1.96,3.6,1.96
			c1.47,0,3.54-0.93,3.54-3.19c0-2.51-1.15-3.33-4.03-4.42c-0.87-0.33-2.67-1.09-3.98-2.29c-0.93-0.87-1.36-2.24-1.36-3.9
			c0-1.53,0.6-2.78,1.91-3.82c1.09-0.93,2.29-1.31,3.87-1.31c1.8,0,2.89,0.44,3.43,0.65c0.27,0.11,0.44,0.05,0.57-0.08l0.35-0.35
			c0.11-0.11,0.22-0.16,0.38-0.16c0.16,0,0.22,0.16,0.22,0.44c0,0.44,0.44,4.25,0.44,4.53c0,0.11-0.05,0.16-0.16,0.19l-0.44,0.14
			c-0.11,0.03-0.22,0-0.27-0.16c-0.27-0.76-0.71-1.85-1.69-2.89c-0.71-0.76-1.58-1.15-2.83-1.15c-2.18,0-3.05,1.74-3.05,2.75
			c0,0.93,0.11,1.74,0.76,2.45c0.71,0.71,2.24,1.36,3.33,1.69c1.58,0.49,2.89,1.04,3.93,2.13c0.87,0.93,1.36,2.07,1.36,3.9
			c0,3.33-2.18,6.05-5.78,6.05c-2.23,0-3.54-0.49-4.63-1.31c-0.33-0.22-0.49-0.33-0.65-0.33c-0.16,0-0.27,0.22-0.44,0.49
			c-0.16,0.27-0.27,0.33-0.49,0.33c-0.22,0-0.33-0.16-0.33-0.44c0.05-0.33,0.44-4.74,0.49-5.07c0.03-0.16,0.05-0.22,0.16-0.22
			L172.01,194.62z"/>
		<path class="st2" d="M191.37,191.87c0,0.27,0.05,6.54,0.05,6.84c0,0.87,0.44,0.98,1.09,0.98h1.15c0.11,0,0.22,0.05,0.22,0.19v0.68
			c0,0.16-0.11,0.22-0.27,0.22c-0.33,0-1.42-0.08-3.98-0.08c-2.73,0-3.93,0.08-4.2,0.08c-0.16,0-0.22-0.05-0.22-0.19v-0.74
			c0-0.11,0.05-0.16,0.22-0.16h1.09c0.54,0,1.14-0.05,1.25-0.79c0.05-0.38,0.11-6.27,0.11-7.74v-1.91c0-0.65-0.05-5.56-0.08-5.92
			c-0.08-0.65-0.36-0.93-1.12-0.93h-1.42c-0.16,0-0.22-0.05-0.22-0.19v-0.71c0-0.14,0.05-0.19,0.16-0.19c0.33,0,1.74,0.08,4.42,0.08
			c2.62,0,3.49-0.08,3.87-0.08c0.16,0,0.22,0.11,0.22,0.25v0.63c0,0.16-0.11,0.22-0.22,0.22h-1.04c-0.6,0-1.04,0.22-1.04,0.74
			c0,0.27-0.05,6.27-0.05,6.6V191.87z"/>
		<path class="st2" d="M213.09,183.17c2.04,1.66,3.71,4.36,3.71,8.07c0,2.02-0.55,4.14-2.02,6c-1.74,2.18-4.09,3.87-8.18,3.87
			c-1.64,0-3.98-0.49-6.16-1.8c-1.94-1.17-3.98-4.14-3.98-8.07c0-1.64,0.46-4.23,2.51-6.76c2.4-2.94,5.34-3.49,7.69-3.49
			C208.68,180.99,210.86,181.37,213.09,183.17z M202.63,183.71c-1.66,1.61-2.45,4.42-2.45,6.6c0,7.09,4.36,9.6,6.65,9.6
			c5.51,0,6.38-6.11,6.38-8.4c0-5.94-4.03-9.32-6.65-9.32C206.06,182.19,204.48,181.92,202.63,183.71z"/>
		<path class="st2" d="M222.85,188.38c0,4.63,0.22,8.45,0.27,9.3c0.05,1.36,0.38,2.02,1.36,2.02h0.71c0.22,0,0.22,0.11,0.22,0.25
			v0.63c0,0.16,0,0.22-0.22,0.22c-0.27,0-1.91-0.08-2.94-0.08c-0.71,0-2.56,0.08-2.84,0.08c-0.11,0-0.16-0.05-0.16-0.25v-0.68
			c0-0.05,0.05-0.16,0.16-0.16h0.93c0.71,0,1.09-0.6,1.23-2.26c0.03-0.49,0.19-4.31,0.19-8.67v-3.46c0-1.64-0.93-2.89-2.13-2.89
			h-0.87c-0.11-0.03-0.16-0.08-0.16-0.19v-0.74c0-0.11,0.05-0.16,0.16-0.16c0.14,0,0.35,0.03,0.85,0.05
			c0.49,0.03,1.23,0.03,2.43,0.03c0.46,0,0.87-0.03,1.2-0.05c0.35,0,0.6-0.03,0.76-0.03c0.33,0,0.49,0.08,0.65,0.25
			c0.27,0.27,5.62,6.98,6.16,7.74c0.38,0.44,4.63,5.72,5.07,6.27h0.11v-2.84c0-2.4,0-3.76-0.05-5.12c-0.05-1.04-0.16-3.71-0.3-4.17
			c-0.19-0.65-0.79-1.04-1.45-1.04h-0.87c-0.16,0-0.16-0.11-0.16-0.25v-0.63c0-0.16,0-0.22,0.22-0.22c0.33,0,1.2,0.08,3.05,0.08
			c1.64,0,2.29-0.08,2.62-0.08c0.22,0,0.27,0.11,0.27,0.19v0.63c0,0.16-0.05,0.27-0.16,0.27h-0.76c-0.54,0-0.82,0.44-0.9,1.44
			c-0.14,1.85-0.41,6.43-0.41,9.21v7.2c0,0.38,0,0.76-0.33,0.76c-0.38,0-0.71-0.22-0.93-0.44c-0.22-0.27-1.69-1.96-3.38-3.98
			c-1.91-2.34-4.03-4.91-4.36-5.34c-0.38-0.38-4.74-5.83-5.07-6.22h-0.16V188.38z"/>
	</g>
	<path class="st3" d="M236.97,162.05v-2.34h-1.25v-4.91h-4.07v4.91h-4.38v-5.95h-4.49v-1.46h-6.05v1.46h-3.44V97.63h-20.73v58.33
		h-3.08v-2.19h-3.13v8.29h-1.5v-9.96h-3.41v-2.4h-5.85v2.4h-0.11v9.96h-5.25v-4.32h-2.54v-12.56l-1.72-1.86h-0.31v-4.39l-1.65-1.68
		h-5.1v-12.61h-2.49v12.61h-2.74v-12.61h-2.49v12.61h-2.74v-12.61h-2.49v12.61h-2.74v-12.61h-2.49v12.61h-2.6l-1.65,1.68v4.39h-0.42
		l-1.73,1.86v11.92h-1.02v-3.07h-2.05v3.07h-0.39v4.95h-1.67v-9.44h-4.48v-2.29h-3.46v2.29h-0.38v9.44h-1.26v-5.6h-0.79v-1.03h-5.9
		v1.03h-4.24v-33.91h0.74v-0.84h-2.14v-7.73h0.67v-0.84h-4.89v-6.06h0.75v-0.84h-1.69v-3.39l-2.79-5.16
		c-0.04-17.23-0.14-35.1,0.18-50.73c9.64,0,20.91,0,31.18,0c0-4.94,0-9.89,0-14.83c-10.46,0-20.91,0-31.37,0
		c0-10.46,0-20.91,0-31.37c-4.94,0-9.89,0-14.83,0c0,10.46,0,20.91,0,31.37c-10.46,0-20.91,0-31.37,0c0,4.94,0,9.89,0,14.83
		c10.46,0,20.91,0,31.37,0c0,16.9,0,33.8,0,50.71l-2.81,5.18v3.39h-1.68v0.84h0.75v6.06h-4.89v0.84h0.67v7.73h-2.14v0.84h0.74v36.21
		h-4.88v3.29h-3.13l-1.9-42.89h-4.15l-1.47,39.86h-3.44v3.04h-2.82v-1.63h-0.51v-2.82h-5.77v2.82h-5.26v1.63h-5.9v-6.88h-2.18v-1.28
		h-3.07v1.28h-1.54v-0.51h-4.74v0.51h-1.47v-3.15h3.23v-8.52h-3.23h-7.44v8.52v10.03h-3.83v-2.34H7.77v-4.91H3.7v4.91H2.26v2.34
		h-2.2v2.42v1.16v5.66h239.26v-5.66v-1.16v-2.42H236.97z"/>
	<g>
		<path class="st2" d="M4.13,68.62c0-1.46-0.08-6.42-0.12-7.12c-0.12-2.36-0.77-2.44-2.32-2.44h-1.3c-0.24,0-0.33-0.08-0.33-0.33
			V57.8c0-0.24,0.08-0.37,0.33-0.37c0.57,0,2.52,0.16,5.94,0.12c1.3,0,3.74-0.12,5.94-0.12c3.09,0,5.69,0.28,7.16,1.1
			c2.28,1.22,3.09,3.09,3.09,5.53c0,3.25-1.71,5.21-5.53,6.63v0.2c4.64,1.22,7.32,3.66,7.32,7.97c0,2.2-1.22,5.12-3.17,6.18
			c-1.71,0.98-4.31,1.42-8.87,1.42c-1.63,0-4.31-0.12-5.94-0.12c-3.17,0-4.88,0.12-5.73,0.12c-0.16,0-0.28-0.12-0.28-0.33v-1.02
			c0-0.2,0.12-0.28,0.28-0.28h1.75c1.22,0,1.5-0.49,1.63-1.75c0.08-0.98,0.16-6.34,0.16-9.68V68.62z M9.09,70.33
			c0.65,0.04,1.22,0.04,1.87,0.04c1.79,0,3.42-0.45,4.31-1.18c1.54-1.22,2.11-3.01,2.11-4.8c0-1.55-0.49-3.17-1.79-4.15
			c-1.46-1.06-3.42-1.42-4.64-1.42c-0.41,0-0.89,0-1.22,0.08c-0.24,0.08-0.49,0.33-0.53,0.65c-0.04,0.77-0.12,4.27-0.12,7.69V70.33z
			 M9.09,79.76c0,3.82,0.89,5.41,3.5,5.41c3.17,0,6.1-1.5,6.1-6.47c0-3.33-1.63-5.45-3.9-6.34c-1.54-0.65-3.25-0.73-4.64-0.73H9.09
			v2.52V79.76z"/>
		<path class="st2" d="M33.23,75.17c-0.33,0.94-2.32,6.75-2.52,7.85c-0.08,0.33-0.08,0.65-0.08,0.85c0,0.53,0.65,0.98,1.46,0.98
			h1.71c0.33,0,0.41,0.08,0.41,0.2v1.02c0,0.24-0.08,0.41-0.33,0.41c-0.57,0-2.28-0.12-5.12-0.12c-3.01,0-3.9,0.12-4.47,0.12
			c-0.24,0-0.24-0.24-0.24-0.53v-0.77c0-0.24,0.08-0.33,0.24-0.33h1.22c1.14,0,1.87-0.57,2.6-1.83c0.41-0.73,3.33-8.05,4.55-11.47
			c0.28-0.81,3.58-9.6,3.99-10.65c0.08-0.41,0.33-1.14,0.08-1.38c-0.12-0.12-0.24-0.37-0.24-0.49c0-0.16,0.08-0.33,0.41-0.41
			c1.3-0.33,3.54-1.55,4.03-2.03c0.24-0.24,0.41-0.41,0.61-0.41c0.24,0,0.41,0.49,0.49,0.73c0.73,2.52,3.9,11.63,4.64,14.23
			c0.98,3.17,3.58,10.74,4.15,11.83c0.73,1.38,1.79,1.87,2.6,1.87h1.3c0.24,0,0.33,0.08,0.33,0.28v0.85c0,0.24-0.08,0.49-0.41,0.49
			c-0.73,0-1.55-0.12-6.02-0.12c-3.42,0-4.8,0.12-5.69,0.12c-0.33,0-0.41-0.24-0.41-0.49v-0.81c0-0.24,0.08-0.33,0.33-0.33h1.06
			c1.14,0,1.46-0.41,1.22-1.5c-0.33-1.46-1.95-6.67-2.44-8.17H33.23z M42.26,73.54c-0.41-1.18-3.17-10.45-3.42-11.26
			c-0.16-0.49-0.24-0.73-0.41-0.73c-0.24,0-0.41,0.16-0.53,0.53c-0.16,0.53-3.82,10.53-4.11,11.47H42.26z"/>
		<path class="st2" d="M82.39,77.97c0.08,0.08,0.08,0.16,0.08,0.41c-0.16,0.24-1.79,6.99-2.03,8.09
			c-1.06-0.04-12.77-0.12-16.92-0.12c-3.66,0-5.12,0.12-5.61,0.12c-0.33,0-0.33-0.08-0.33-0.37v-0.94c0-0.24,0-0.33,0.24-0.33h1.63
			c1.46,0,1.71-0.57,1.71-1.1c0-0.73,0.16-10.9,0.16-13.34v-2.28c0-2.6-0.08-6.91-0.16-7.6c-0.08-1.06-0.24-1.46-1.3-1.46h-1.71
			c-0.24,0-0.33-0.24-0.33-0.37v-0.94c0-0.24,0.08-0.33,0.33-0.33c0.41,0,1.87,0.12,5.61,0.12c4.39,0,6.1-0.12,6.42-0.12
			c0.33,0,0.41,0.16,0.41,0.37v0.94c0,0.16-0.08,0.33-0.41,0.33h-2.2c-1.22,0-1.38,0.41-1.38,1.5c0,0.57-0.16,6.67-0.16,9.52v3.5
			c0,0.73,0,9.52,0.16,11.26h2.28c2.28,0,5.21,0,6.83-0.2c2.28-0.33,4.88-5.21,5.45-6.75c0.16-0.16,0.24-0.24,0.49-0.16L82.39,77.97
			z"/>
		<path class="st2" d="M110.64,73.18c0,0.41,0.08,9.76,0.08,10.21c0,1.3,0.65,1.46,1.63,1.46h1.71c0.16,0,0.33,0.08,0.33,0.28v1.02
			c0,0.24-0.16,0.33-0.41,0.33c-0.49,0-2.11-0.12-5.94-0.12c-4.07,0-5.86,0.12-6.26,0.12c-0.24,0-0.33-0.08-0.33-0.28v-1.1
			c0-0.16,0.08-0.24,0.33-0.24h1.63c0.81,0,1.71-0.08,1.87-1.18c0.08-0.57,0.16-9.35,0.16-11.55v-2.85c0-0.98-0.08-8.3-0.12-8.82
			c-0.12-0.98-0.53-1.38-1.67-1.38h-2.11c-0.24,0-0.33-0.08-0.33-0.28v-1.06c0-0.2,0.08-0.28,0.24-0.28c0.49,0,2.6,0.12,6.59,0.12
			c3.9,0,5.21-0.12,5.77-0.12c0.24,0,0.33,0.16,0.33,0.37v0.94c0,0.24-0.16,0.33-0.33,0.33h-1.55c-0.89,0-1.54,0.33-1.54,1.1
			c0,0.41-0.08,9.35-0.08,9.84V73.18z"/>
		<path class="st2" d="M146.44,71.63c0-1.22,0-11.3-0.08-11.47h-0.16c-0.33,0.57-5.45,12.44-5.94,13.5
			c-0.61,1.3-4.76,10.9-4.96,11.31c-0.16,0.33-0.49,0.89-0.89,0.89c-0.24,0-0.49-0.24-0.65-0.73c-0.16-0.24-5.45-12.93-5.69-13.58
			c-0.73-1.87-4.47-10.98-4.96-11.47c-0.16,0.57-0.2,10.82-0.2,11.3s-0.04,7.4,0.2,10.04c0.16,1.87,0.65,3.42,1.95,3.42h1.79
			c0.24,0,0.33,0.16,0.33,0.28v1.02c0,0.16-0.08,0.33-0.41,0.33c-0.41,0-1.54-0.12-4.64-0.12c-3.5,0-4.88,0.12-5.29,0.12
			c-0.33,0-0.33-0.08-0.33-0.37v-1.02c0-0.08,0-0.24,0.24-0.24h1.87c1.38,0,1.83-1.46,2.03-2.89c0.37-2.85,0.61-12.85,0.61-13.58
			v-6.95c0-1.46-0.2-2.36-1.99-2.36h-1.79c-0.24,0-0.33-0.16-0.33-0.28v-1.1c0-0.08,0.08-0.24,0.33-0.24c0.41,0,1.46,0.12,5.77,0.12
			c1.95,0,3.09-0.12,3.58-0.12c0.49,0,0.77,0.16,0.98,0.69c1.46,3.82,7.16,17.32,8.38,20.66c0.37-0.73,3.25-7.44,4.31-9.84
			c0.73-1.71,4.39-10.09,4.6-10.9c0.12-0.41,0.61-0.49,1.59-0.49c5.94,0.04,7.32-0.12,7.81-0.12c0.16,0,0.24,0.16,0.24,0.37v0.85
			c0,0.24-0.08,0.41-0.33,0.41h-1.79c-1.06,0-1.14,0.73-1.18,1.59c-0.04,0.89-0.04,9.03-0.04,10.09v2.85c0,2.44,0.08,8.38,0.08,9.07
			c0.04,1.54,0.41,2.2,1.14,2.2h2.2c0.24,0,0.24,0.16,0.24,0.28v0.94c0,0.24,0,0.41-0.33,0.41c-0.49,0-2.44-0.12-6.02-0.12
			c-3.99,0-5.53,0.12-6.1,0.12c-0.24,0-0.33-0.16-0.33-0.37v-0.94c0-0.24,0.08-0.33,0.33-0.33h2.52c0.73,0,1.06-0.24,1.18-1.42
			c0.04-0.41,0.12-6.26,0.12-9.52V71.63z"/>
		<path class="st2" d="M179.53,60.2c3.05,2.48,5.53,6.51,5.53,12.04c0,3.01-0.81,6.18-3.01,8.95c-2.6,3.25-6.1,5.77-12.2,5.77
			c-2.44,0-5.94-0.73-9.19-2.68c-2.89-1.75-5.94-6.18-5.94-12.04c0-2.44,0.69-6.3,3.74-10.09c3.58-4.39,7.97-5.21,11.47-5.21
			C172.95,56.95,176.2,57.52,179.53,60.2z M163.92,61.02c-2.48,2.4-3.66,6.59-3.66,9.84c0,10.57,6.51,14.31,9.92,14.31
			c8.21,0,9.52-9.11,9.52-12.52c0-8.86-6.02-13.91-9.92-13.91C169.04,58.74,166.68,58.33,163.92,61.02z"/>
		<path class="st2" d="M192.44,75.7c0,2.44,0.08,6.99,0.16,7.6c0.12,0.81,0.41,1.54,1.06,1.54h2.03c0.24,0,0.33,0.12,0.33,0.28v0.98
			c0,0.28-0.12,0.37-0.45,0.37c-0.53,0-1.34-0.12-5.57-0.12c-3.99,0-4.96,0.12-5.37,0.12c-0.24,0-0.33-0.12-0.33-0.37v-0.94
			c0-0.2,0.08-0.33,0.24-0.33h1.38c0.89,0,1.55-0.24,1.55-1.34c0.08-4.07,0.08-7.89,0.08-11.71V61.1c0-1.38-0.57-2.03-1.3-2.03
			h-1.59c-0.2,0-0.28-0.08-0.28-0.24v-1.1c0-0.2,0.08-0.28,0.28-0.28c0.28,0,1.59,0.12,5.57,0.12c2.28,0,6.02-0.12,7.24-0.12
			c3.25,0,5.77,1.1,7.4,2.56c1.46,1.3,2.2,3.01,2.2,4.55c0,5.12-3.09,7.24-7.56,7.97v0.16c1.14,0.41,1.87,1.14,2.44,1.87
			c0.49,0.65,3.01,4.47,3.33,4.96c0.24,0.41,2.85,4.07,3.46,4.64c0.77,0.69,1.91,0.77,2.89,0.77c0.24,0,0.33,0.12,0.33,0.28v0.85
			c0,0.28-0.08,0.41-0.33,0.41c-0.33,0-1.38-0.12-3.99-0.12c-1.14,0-2.68,0.08-3.58,0.12c-0.49-0.37-1.26-1.46-1.79-2.32
			c-0.73-1.14-2.32-4.07-2.68-4.72c-0.41-0.73-1.54-2.6-2.2-3.5c-1.02-1.42-1.95-2.52-3.66-2.52c-0.16,0-0.85,0.04-1.3,0.08V75.7z
			 M192.52,72.04c0.57,0.08,1.06,0.16,1.55,0.16c6.34,0,7.64-5.12,7.64-6.99c0-1.87-0.77-3.62-1.79-4.55
			c-1.46-1.3-3.33-1.75-5.37-1.75c-0.65,0-1.14,0.04-1.46,0.24c-0.33,0.2-0.49,0.69-0.49,1.18L192.52,72.04z"/>
		<path class="st2" d="M222.65,74.56c0.04,2.2,0.12,6.18,0.12,6.91c0,2.11,0.73,2.93,1.63,3.17c0.65,0.16,1.63,0.33,3.17,0.33
			c0.73,0,2.6-0.08,3.42-0.16c0.73-0.08,2.28-0.49,3.33-1.38c0.73-0.65,3.01-3.33,3.78-4.31c0.16-0.2,0.28-0.24,0.45-0.16l0.65,0.41
			c0.12,0.08,0.16,0.2,0.08,0.41l-1.95,6.1c-0.12,0.37-0.41,0.61-0.89,0.61c-0.2,0-1.1-0.04-3.62-0.08c-2.56,0-6.75-0.04-13.54-0.04
			c-1.5,0-2.6,0.04-3.46,0.04c-0.81,0.04-1.38,0.08-1.75,0.08c-0.24,0-0.33-0.08-0.33-0.33v-0.98c0-0.24,0.08-0.33,0.41-0.33h1.38
			c1.87,0,2.03-0.24,2.03-1.75v-9.68v-3.99c0-3.33-0.08-8.38-0.16-8.95c-0.16-1.1-0.57-1.42-1.79-1.42h-1.55
			c-0.16,0-0.24-0.08-0.24-0.28v-1.06c0-0.2,0.04-0.28,0.24-0.28c0.89,0,2.36,0.16,5.69,0.12h1.14c1.79,0,11.14-0.08,12.93-0.08
			c0.65,0,1.42-0.04,1.63-0.04s0.28,0.08,0.33,0.24c0.16,0.53,1.71,6.06,1.87,6.47c0.08,0.24,0.04,0.37-0.12,0.45l-0.73,0.33
			c-0.12,0.04-0.24,0-0.37-0.2c-0.16-0.24-3.5-3.99-4.47-4.55c-0.85-0.49-1.95-1.02-3.09-1.06l-6.18-0.16l-0.08,11.75
			c1.22,0,4.15-0.08,4.64-0.2c0.89-0.16,1.38-0.49,1.87-1.46c0.24-0.53,0.65-1.55,0.65-2.28c0-0.24,0.16-0.33,0.33-0.33l1.06,0.08
			c0.16,0,0.28,0.08,0.24,0.33c-0.08,0.65-0.08,3.33-0.08,4.39c0,1.63,0.16,3.58,0.24,4.47c0,0.2-0.08,0.24-0.33,0.28l-0.89,0.16
			c-0.16,0.04-0.24-0.04-0.33-0.28c-0.16-0.65-0.45-1.54-0.65-2.03c-0.37-0.81-1.14-1.38-2.03-1.46c-1.46-0.16-3.42-0.24-4.72-0.24
			L222.65,74.56z"/>
	</g>
</g>
</svg>
