<?xml version="1.0" encoding="utf-8"?>
<!-- Generator: Adobe Illustrator 22.0.1, SVG Export Plug-In . SVG Version: 6.00 Build 0)  -->
<svg version="1.1" id="Layer_1" xmlns="http://www.w3.org/2000/svg" xmlns:xlink="http://www.w3.org/1999/xlink" x="0px" y="0px"
	 viewBox="0 0 383.77 383.78" style="enable-background:new 0 0 383.77 383.78;" xml:space="preserve">
<style type="text/css">
	.st0{fill-rule:evenodd;clip-rule:evenodd;fill:#934054;}
	.st1{fill-rule:evenodd;clip-rule:evenodd;fill:#732E4A;}
	.st2{fill:#888B8D;}
	.st3{fill:#502B3A;}
</style>
<g id="brm-logo">
	<g>
		<polygon class="st0" points="227.64,218.76 232.97,218.76 232.97,204.7 227.64,204.7 227.64,203.59 227.14,203.59 227.14,195.04 
			226.45,195.04 226.45,188.08 226,188.08 226,185.26 225.39,185.26 225.39,184.78 223.94,177.82 223.05,177.82 223.05,177.3 
			222.46,177.3 222.46,177.05 221.97,177.05 221.97,177.3 221.87,177.3 221.87,177.82 221.19,177.82 221.19,167.07 220.94,167.07 
			220.94,177.82 220.65,177.82 220.65,177.2 219.61,177.2 219.61,177.82 218.76,177.82 217.31,184.78 217.31,185.26 216.7,185.26 
			216.7,188.08 216.25,188.08 216.25,195.04 215.56,195.04 215.56,203.59 215.07,203.59 215.07,204.7 209.73,204.7 209.73,218.76 
			215.07,218.76 		"/>
		<polygon class="st0" points="308.19,237.89 308.19,205.59 298.7,205.59 298.7,204.32 288.35,204.32 288.35,205.59 287.33,205.59 
			287.33,237.89 269.58,237.89 269.58,225.64 259.97,225.64 259.97,237.89 151.35,237.89 151.35,219.8 143.63,219.8 143.63,233.04 
			141.54,233.04 141.54,237.89 130.51,237.89 130.51,208.4 109.92,208.4 109.92,237.89 92.26,237.89 92.26,202.52 72.65,202.52 
			72.65,241.62 73.47,241.62 73.47,246.23 311.91,246.23 311.91,237.89 		"/>
	</g>
	<g>
		<rect x="280.38" y="215.06" class="st1" width="9.51" height="27.48"/>
		<rect x="297.48" y="228.76" class="st1" width="8.72" height="13.61"/>
		<polygon class="st1" points="119.47,228.85 121.57,228.85 105.55,212.83 100.55,217.83 95.27,217.83 95.27,223.11 89.53,228.85 
			92.82,228.85 92.82,230.77 85.21,230.77 85.21,243.37 127.08,243.37 127.08,230.77 119.47,230.77 		"/>
		<path class="st1" d="M254.58,207.05l-3.69-4.71h-2.05v-4.19h-2.07v-0.24v-7.88h0.66v0.58h0.44v-22.24h-0.44v14.81h-0.66v-2.86
			l-3.01,3.33v14.26v4.43v4.71v2.31h-3.02v-0.83h-3.32v0.83h-0.72v32.67h7.06v1.33h7.12h1.22h2.47h1.84v-1.85h0.11v-26.76h-1.96
			V207.05z M246.78,188.28v-0.79h0.66v0.79H246.78z M247.44,184.94v0.79h-0.66v-0.79H247.44z"/>
		<polygon class="st1" points="216.1,200.86 214.22,200.86 214.22,200.27 210.34,200.27 210.34,199.77 209.8,199.77 209.8,200.27 
			209.43,200.27 209.43,200.86 208.2,200.86 208.2,200.08 207.06,200.08 207.06,200.86 204.04,200.86 204.04,201.27 202.26,201.27 
			202.26,203.14 197.06,203.14 197.06,201.27 186.42,201.27 186.42,203.14 180.8,203.14 180.8,242.17 217.81,242.17 217.81,206.21 
			217.81,203.14 217.81,201.27 216.1,201.27 		"/>
		<rect x="72.65" y="228.76" class="st1" width="8.72" height="13.61"/>
	</g>
	<g>
		<path class="st2" d="M77.89,272.82c0,1.64,0.05,4.69,0.11,5.1c0.08,0.55,0.27,1.04,0.71,1.04h1.36c0.16,0,0.22,0.08,0.22,0.19
			v0.65c0,0.19-0.08,0.25-0.3,0.25c-0.35,0-0.9-0.08-3.73-0.08c-2.67,0-3.33,0.08-3.6,0.08c-0.16,0-0.22-0.08-0.22-0.25v-0.63
			c0-0.14,0.05-0.22,0.16-0.22h0.93c0.6,0,1.04-0.16,1.04-0.9c0.05-2.73,0.05-5.29,0.05-7.85v-7.17c0-0.93-0.38-1.36-0.87-1.36
			h-1.06c-0.14,0-0.19-0.05-0.19-0.16v-0.74c0-0.14,0.05-0.19,0.19-0.19c0.19,0,1.06,0.08,3.73,0.08c1.53,0,4.03-0.08,4.85-0.08
			c2.18,0,3.87,0.74,4.96,1.72c0.98,0.87,1.47,2.02,1.47,3.05c0,3.43-2.07,4.85-5.07,5.34v0.11c0.76,0.27,1.25,0.76,1.64,1.25
			c0.33,0.44,2.02,3,2.24,3.33c0.16,0.27,1.91,2.73,2.32,3.11c0.52,0.46,1.28,0.52,1.94,0.52c0.16,0,0.22,0.08,0.22,0.19v0.57
			c0,0.19-0.05,0.27-0.22,0.27c-0.22,0-0.93-0.08-2.67-0.08c-0.76,0-1.8,0.05-2.4,0.08c-0.33-0.25-0.85-0.98-1.2-1.55
			c-0.49-0.76-1.55-2.73-1.8-3.16c-0.27-0.49-1.04-1.74-1.47-2.34c-0.68-0.95-1.31-1.69-2.45-1.69c-0.11,0-0.57,0.03-0.87,0.05
			V272.82z M77.95,270.37c0.38,0.05,0.71,0.11,1.04,0.11c4.25,0,5.13-3.43,5.13-4.69c0-1.25-0.52-2.43-1.2-3.05
			c-0.98-0.87-2.24-1.17-3.6-1.17c-0.44,0-0.76,0.03-0.98,0.16S78,262.19,78,262.52L77.95,270.37z"/>
		<path class="st2" d="M97.41,272.06c0.03,1.47,0.08,4.14,0.08,4.63c0,1.42,0.49,1.96,1.09,2.13c0.44,0.11,1.09,0.22,2.13,0.22
			c0.49,0,1.74-0.05,2.29-0.11c0.49-0.05,1.53-0.33,2.23-0.93c0.49-0.44,2.02-2.24,2.54-2.89c0.11-0.14,0.19-0.16,0.3-0.11
			l0.44,0.27c0.08,0.05,0.11,0.14,0.05,0.27l-1.31,4.09c-0.08,0.25-0.27,0.41-0.6,0.41c-0.14,0-0.74-0.03-2.43-0.05
			c-1.72,0-4.53-0.03-9.08-0.03c-1.01,0-1.74,0.03-2.32,0.03c-0.55,0.03-0.93,0.05-1.17,0.05c-0.16,0-0.22-0.05-0.22-0.22v-0.65
			c0-0.16,0.05-0.22,0.27-0.22h0.93c1.25,0,1.36-0.16,1.36-1.17v-6.49v-2.67c0-2.24-0.05-5.62-0.11-6c-0.11-0.74-0.38-0.95-1.2-0.95
			h-1.04c-0.11,0-0.16-0.05-0.16-0.19v-0.71c0-0.14,0.03-0.19,0.16-0.19c0.6,0,1.58,0.11,3.82,0.08h0.76c1.2,0,7.47-0.05,8.67-0.05
			c0.44,0,0.95-0.03,1.09-0.03c0.14,0,0.19,0.05,0.22,0.16c0.11,0.35,1.14,4.06,1.25,4.33c0.05,0.16,0.03,0.25-0.08,0.3l-0.49,0.22
			c-0.08,0.03-0.16,0-0.24-0.14c-0.11-0.16-2.34-2.67-3-3.05c-0.57-0.33-1.31-0.68-2.07-0.71l-4.14-0.11l-0.05,7.88
			c0.82,0,2.78-0.05,3.11-0.14c0.6-0.11,0.93-0.33,1.25-0.98c0.16-0.35,0.44-1.04,0.44-1.53c0-0.16,0.11-0.22,0.22-0.22l0.71,0.05
			c0.11,0,0.19,0.05,0.16,0.22c-0.05,0.44-0.05,2.24-0.05,2.94c0,1.09,0.11,2.4,0.16,3c0,0.14-0.05,0.16-0.22,0.19l-0.6,0.11
			c-0.11,0.03-0.16-0.03-0.22-0.19c-0.11-0.44-0.3-1.04-0.44-1.36c-0.24-0.55-0.76-0.93-1.36-0.98c-0.98-0.11-2.29-0.16-3.16-0.16
			L97.41,272.06z"/>
		<path class="st2" d="M111.59,273.88c0.11,0,0.16,0.05,0.16,0.22c0.05,0.87,0.27,1.91,1.04,3.11c0.82,1.31,2.23,1.96,3.6,1.96
			c1.47,0,3.54-0.93,3.54-3.19c0-2.51-1.15-3.33-4.03-4.42c-0.87-0.33-2.67-1.09-3.98-2.29c-0.93-0.87-1.36-2.24-1.36-3.9
			c0-1.53,0.6-2.78,1.91-3.82c1.09-0.93,2.29-1.31,3.87-1.31c1.8,0,2.89,0.44,3.43,0.65c0.27,0.11,0.44,0.05,0.57-0.08l0.35-0.35
			c0.11-0.11,0.22-0.16,0.38-0.16s0.22,0.16,0.22,0.44c0,0.44,0.44,4.25,0.44,4.53c0,0.11-0.05,0.16-0.16,0.19l-0.44,0.14
			c-0.11,0.03-0.22,0-0.27-0.16c-0.27-0.76-0.71-1.85-1.69-2.89c-0.71-0.76-1.58-1.15-2.83-1.15c-2.18,0-3.05,1.74-3.05,2.75
			c0,0.93,0.11,1.74,0.76,2.45c0.71,0.71,2.24,1.36,3.33,1.69c1.58,0.49,2.89,1.04,3.93,2.13c0.87,0.93,1.36,2.07,1.36,3.9
			c0,3.33-2.18,6.05-5.78,6.05c-2.23,0-3.54-0.49-4.63-1.31c-0.33-0.22-0.49-0.33-0.65-0.33c-0.16,0-0.27,0.22-0.44,0.49
			s-0.27,0.33-0.49,0.33s-0.33-0.16-0.33-0.44c0.05-0.33,0.44-4.74,0.49-5.07c0.03-0.16,0.05-0.22,0.16-0.22L111.59,273.88z"/>
		<path class="st2" d="M143.49,275.52c0.08,0.08,0.11,0.16,0.05,0.27c-1.64,2.34-4.25,4.58-8.12,4.58c-3.49,0-5.45-1.04-7.14-2.56
			c-2.02-1.8-2.94-4.96-2.94-7.36c0-2.67,0.87-5.23,2.78-7.31c1.47-1.58,3.82-2.89,7.09-2.89c2.51,0,4.52,0.76,5.51,1.31
			c0.38,0.22,0.49,0.22,0.55,0l0.22-0.71c0.05-0.16,0.11-0.16,0.44-0.16c0.33,0,0.38,0.05,0.38,0.44c0,0.49,0.55,4.85,0.65,5.67
			c0.03,0.16,0,0.25-0.11,0.27l-0.52,0.16c-0.14,0.05-0.22-0.05-0.3-0.27c-0.33-0.98-0.98-2.34-2.13-3.54
			c-1.2-1.15-2.62-2.02-4.74-2.02c-4.36,0-6.16,3.93-6.16,7.85c0,1.69,0.49,4.91,2.51,7.09c1.8,1.91,3.38,2.13,4.69,2.13
			c3,0,5.37-1.5,6.52-3.16c0.14-0.19,0.24-0.27,0.33-0.19L143.49,275.52z"/>
		<path class="st2" d="M147.06,263.03c0-0.93-0.22-1.36-0.93-1.36h-1.25c-0.16,0-0.22-0.05-0.22-0.25v-0.63
			c0-0.16,0.05-0.22,0.27-0.22c0.27,0,1.58,0.08,4.2,0.08c2.29,0,3.6-0.08,3.93-0.08c0.16,0,0.22,0.05,0.22,0.19v0.68
			c0,0.16-0.05,0.22-0.22,0.22h-1.15c-0.82,0-1.31,0.49-1.34,1.06c-0.03,0.33-0.08,1.96-0.08,3.54v3.38c0,1.36,0.03,3.3,0.08,4.17
			c0.08,1.25,0.3,2.51,0.95,3.38c0.93,1.25,2.4,1.69,3.71,1.69c1.25,0,2.78-0.49,3.65-1.31c1.04-1.04,1.58-2.62,1.58-4.61v-4.91
			c0-2.18-0.22-4.58-0.3-5.21c-0.08-0.71-0.52-1.2-1.12-1.2h-0.98c-0.16,0-0.22-0.08-0.22-0.19v-0.68c0-0.16,0.05-0.22,0.22-0.22
			c0.27,0,1.53,0.08,3.33,0.08c1.69,0,2.56-0.08,2.78-0.08c0.25,0,0.27,0.08,0.27,0.22v0.63c0,0.16-0.03,0.25-0.16,0.25h-0.98
			c-0.98,0-1.09,0.76-1.15,1.06c-0.05,0.33-0.05,4.14-0.05,4.5c0,0.38-0.05,5.12-0.16,6.21c-0.16,2.24-0.82,3.93-2.29,5.23
			c-1.15,1.04-2.89,1.69-4.96,1.69c-1.31,0-2.89-0.22-3.93-0.65c-1.58-0.65-2.67-1.91-3.22-3.65c-0.38-1.2-0.49-3-0.49-6.57V263.03z
			"/>
		<path class="st2" d="M171.78,272.06c0.03,1.47,0.08,4.14,0.08,4.63c0,1.42,0.49,1.96,1.09,2.13c0.44,0.11,1.09,0.22,2.13,0.22
			c0.49,0,1.74-0.05,2.29-0.11c0.49-0.05,1.53-0.33,2.23-0.93c0.49-0.44,2.02-2.24,2.54-2.89c0.11-0.14,0.19-0.16,0.3-0.11
			l0.44,0.27c0.08,0.05,0.11,0.14,0.05,0.27l-1.31,4.09c-0.08,0.25-0.27,0.41-0.6,0.41c-0.14,0-0.74-0.03-2.43-0.05
			c-1.72,0-4.53-0.03-9.08-0.03c-1.01,0-1.74,0.03-2.32,0.03c-0.55,0.03-0.93,0.05-1.17,0.05c-0.16,0-0.22-0.05-0.22-0.22v-0.65
			c0-0.16,0.05-0.22,0.27-0.22h0.93c1.25,0,1.36-0.16,1.36-1.17v-6.49v-2.67c0-2.24-0.05-5.62-0.11-6c-0.11-0.74-0.38-0.95-1.2-0.95
			h-1.04c-0.11,0-0.16-0.05-0.16-0.19v-0.71c0-0.14,0.03-0.19,0.16-0.19c0.6,0,1.58,0.11,3.82,0.08h0.76c1.2,0,7.47-0.05,8.67-0.05
			c0.44,0,0.95-0.03,1.09-0.03c0.14,0,0.19,0.05,0.22,0.16c0.11,0.35,1.14,4.06,1.25,4.33c0.05,0.16,0.03,0.25-0.08,0.3l-0.49,0.22
			c-0.08,0.03-0.16,0-0.24-0.14c-0.11-0.16-2.34-2.67-3-3.05c-0.57-0.33-1.31-0.68-2.07-0.71l-4.14-0.11l-0.05,7.88
			c0.82,0,2.78-0.05,3.11-0.14c0.6-0.11,0.93-0.33,1.25-0.98c0.16-0.35,0.44-1.04,0.44-1.53c0-0.16,0.11-0.22,0.22-0.22l0.71,0.05
			c0.11,0,0.19,0.05,0.16,0.22c-0.05,0.44-0.05,2.24-0.05,2.94c0,1.09,0.11,2.4,0.16,3c0,0.14-0.05,0.16-0.22,0.19l-0.6,0.11
			c-0.11,0.03-0.16-0.03-0.22-0.19c-0.11-0.44-0.3-1.04-0.44-1.36c-0.24-0.55-0.76-0.93-1.36-0.98c-0.98-0.11-2.29-0.16-3.16-0.16
			L171.78,272.06z"/>
		<path class="st2" d="M209.49,270.1c0-0.82,0-7.58-0.05-7.69h-0.11c-0.22,0.38-3.65,8.34-3.98,9.05c-0.41,0.87-3.19,7.31-3.33,7.58
			c-0.11,0.22-0.33,0.6-0.6,0.6c-0.16,0-0.33-0.16-0.44-0.49c-0.11-0.16-3.65-8.67-3.82-9.11c-0.49-1.25-3-7.36-3.33-7.69
			c-0.11,0.38-0.14,7.25-0.14,7.58c0,0.33-0.03,4.96,0.14,6.73c0.11,1.25,0.44,2.29,1.31,2.29h1.2c0.16,0,0.22,0.11,0.22,0.19v0.68
			c0,0.11-0.05,0.22-0.27,0.22c-0.27,0-1.04-0.08-3.11-0.08c-2.34,0-3.27,0.08-3.54,0.08c-0.22,0-0.22-0.05-0.22-0.25v-0.68
			c0-0.05,0-0.16,0.16-0.16h1.25c0.93,0,1.23-0.98,1.36-1.94c0.25-1.91,0.41-8.61,0.41-9.1v-4.66c0-0.98-0.14-1.58-1.34-1.58h-1.2
			c-0.16,0-0.22-0.11-0.22-0.19v-0.74c0-0.05,0.05-0.16,0.22-0.16c0.27,0,0.98,0.08,3.87,0.08c1.31,0,2.07-0.08,2.4-0.08
			s0.52,0.11,0.65,0.46c0.98,2.56,4.8,11.61,5.62,13.85c0.25-0.49,2.18-4.99,2.89-6.6c0.49-1.14,2.94-6.76,3.08-7.31
			c0.08-0.27,0.41-0.33,1.06-0.33c3.98,0.03,4.91-0.08,5.23-0.08c0.11,0,0.16,0.11,0.16,0.25v0.57c0,0.16-0.05,0.27-0.22,0.27h-1.2
			c-0.71,0-0.76,0.49-0.79,1.06c-0.03,0.6-0.03,6.05-0.03,6.76v1.91c0,1.64,0.05,5.62,0.05,6.08c0.03,1.04,0.27,1.47,0.76,1.47h1.47
			c0.16,0,0.16,0.11,0.16,0.19v0.63c0,0.16,0,0.27-0.22,0.27c-0.33,0-1.64-0.08-4.03-0.08c-2.67,0-3.71,0.08-4.09,0.08
			c-0.16,0-0.22-0.11-0.22-0.25v-0.63c0-0.16,0.05-0.22,0.22-0.22h1.69c0.49,0,0.71-0.16,0.79-0.95c0.03-0.27,0.08-4.2,0.08-6.38
			V270.1z"/>
		<path class="st2" d="M223.28,271.13c0,0.27,0.05,6.54,0.05,6.84c0,0.87,0.44,0.98,1.09,0.98h1.15c0.11,0,0.22,0.05,0.22,0.19v0.68
			c0,0.16-0.11,0.22-0.27,0.22c-0.33,0-1.42-0.08-3.98-0.08c-2.73,0-3.93,0.08-4.2,0.08c-0.16,0-0.22-0.05-0.22-0.19v-0.74
			c0-0.11,0.05-0.16,0.22-0.16h1.09c0.54,0,1.14-0.05,1.25-0.79c0.05-0.38,0.11-6.27,0.11-7.74v-1.91c0-0.65-0.05-5.56-0.08-5.92
			c-0.08-0.65-0.36-0.93-1.12-0.93h-1.42c-0.16,0-0.22-0.05-0.22-0.19v-0.71c0-0.14,0.05-0.19,0.16-0.19c0.33,0,1.74,0.08,4.42,0.08
			c2.62,0,3.49-0.08,3.87-0.08c0.16,0,0.22,0.11,0.22,0.25v0.63c0,0.16-0.11,0.22-0.22,0.22h-1.04c-0.6,0-1.04,0.22-1.04,0.74
			c0,0.27-0.05,6.27-0.05,6.6V271.13z"/>
		<path class="st2" d="M229.55,273.88c0.11,0,0.16,0.05,0.16,0.22c0.05,0.87,0.27,1.91,1.04,3.11c0.82,1.31,2.23,1.96,3.6,1.96
			c1.47,0,3.54-0.93,3.54-3.19c0-2.51-1.15-3.33-4.03-4.42c-0.87-0.33-2.67-1.09-3.98-2.29c-0.93-0.87-1.36-2.24-1.36-3.9
			c0-1.53,0.6-2.78,1.91-3.82c1.09-0.93,2.29-1.31,3.87-1.31c1.8,0,2.89,0.44,3.43,0.65c0.27,0.11,0.44,0.05,0.57-0.08l0.35-0.35
			c0.11-0.11,0.22-0.16,0.38-0.16c0.16,0,0.22,0.16,0.22,0.44c0,0.44,0.44,4.25,0.44,4.53c0,0.11-0.05,0.16-0.16,0.19l-0.44,0.14
			c-0.11,0.03-0.22,0-0.27-0.16c-0.27-0.76-0.71-1.85-1.69-2.89c-0.71-0.76-1.58-1.15-2.83-1.15c-2.18,0-3.05,1.74-3.05,2.75
			c0,0.93,0.11,1.74,0.76,2.45c0.71,0.71,2.24,1.36,3.33,1.69c1.58,0.49,2.89,1.04,3.93,2.13c0.87,0.93,1.36,2.07,1.36,3.9
			c0,3.33-2.18,6.05-5.78,6.05c-2.23,0-3.54-0.49-4.63-1.31c-0.33-0.22-0.49-0.33-0.65-0.33c-0.16,0-0.27,0.22-0.44,0.49
			c-0.16,0.27-0.27,0.33-0.49,0.33c-0.22,0-0.33-0.16-0.33-0.44c0.05-0.33,0.44-4.74,0.49-5.07c0.03-0.16,0.05-0.22,0.16-0.22
			L229.55,273.88z"/>
		<path class="st2" d="M244.6,273.88c0.11,0,0.16,0.05,0.16,0.22c0.05,0.87,0.27,1.91,1.04,3.11c0.82,1.31,2.23,1.96,3.6,1.96
			c1.47,0,3.54-0.93,3.54-3.19c0-2.51-1.15-3.33-4.03-4.42c-0.87-0.33-2.67-1.09-3.98-2.29c-0.93-0.87-1.36-2.24-1.36-3.9
			c0-1.53,0.6-2.78,1.91-3.82c1.09-0.93,2.29-1.31,3.87-1.31c1.8,0,2.89,0.44,3.43,0.65c0.27,0.11,0.44,0.05,0.57-0.08l0.35-0.35
			c0.11-0.11,0.22-0.16,0.38-0.16c0.16,0,0.22,0.16,0.22,0.44c0,0.44,0.44,4.25,0.44,4.53c0,0.11-0.05,0.16-0.16,0.19l-0.44,0.14
			c-0.11,0.03-0.22,0-0.27-0.16c-0.27-0.76-0.71-1.85-1.69-2.89c-0.71-0.76-1.58-1.15-2.83-1.15c-2.18,0-3.05,1.74-3.05,2.75
			c0,0.93,0.11,1.74,0.76,2.45c0.71,0.71,2.24,1.36,3.33,1.69c1.58,0.49,2.89,1.04,3.93,2.13c0.87,0.93,1.36,2.07,1.36,3.9
			c0,3.33-2.18,6.05-5.78,6.05c-2.23,0-3.54-0.49-4.63-1.31c-0.33-0.22-0.49-0.33-0.65-0.33c-0.16,0-0.27,0.22-0.44,0.49
			c-0.16,0.27-0.27,0.33-0.49,0.33c-0.22,0-0.33-0.16-0.33-0.44c0.05-0.33,0.44-4.74,0.49-5.07c0.03-0.16,0.05-0.22,0.16-0.22
			L244.6,273.88z"/>
		<path class="st2" d="M263.95,271.13c0,0.27,0.05,6.54,0.05,6.84c0,0.87,0.44,0.98,1.09,0.98h1.15c0.11,0,0.22,0.05,0.22,0.19v0.68
			c0,0.16-0.11,0.22-0.27,0.22c-0.33,0-1.42-0.08-3.98-0.08c-2.73,0-3.93,0.08-4.2,0.08c-0.16,0-0.22-0.05-0.22-0.19v-0.74
			c0-0.11,0.05-0.16,0.22-0.16h1.09c0.54,0,1.14-0.05,1.25-0.79c0.05-0.38,0.11-6.27,0.11-7.74v-1.91c0-0.65-0.05-5.56-0.08-5.92
			c-0.08-0.65-0.36-0.93-1.12-0.93h-1.42c-0.16,0-0.22-0.05-0.22-0.19v-0.71c0-0.14,0.05-0.19,0.16-0.19c0.33,0,1.74,0.08,4.42,0.08
			c2.62,0,3.49-0.08,3.87-0.08c0.16,0,0.22,0.11,0.22,0.25v0.63c0,0.16-0.11,0.22-0.22,0.22h-1.04c-0.6,0-1.04,0.22-1.04,0.74
			c0,0.27-0.05,6.27-0.05,6.6V271.13z"/>
		<path class="st2" d="M285.68,262.44c2.04,1.66,3.71,4.36,3.71,8.07c0,2.02-0.55,4.14-2.02,6c-1.74,2.18-4.09,3.87-8.18,3.87
			c-1.64,0-3.98-0.49-6.16-1.8c-1.94-1.17-3.98-4.14-3.98-8.07c0-1.64,0.46-4.23,2.51-6.76c2.4-2.94,5.34-3.49,7.69-3.49
			C281.26,260.25,283.44,260.64,285.68,262.44z M275.21,262.98c-1.66,1.61-2.45,4.42-2.45,6.6c0,7.09,4.36,9.6,6.65,9.6
			c5.51,0,6.38-6.11,6.38-8.4c0-5.94-4.03-9.32-6.65-9.32C278.65,261.45,277.07,261.18,275.21,262.98z"/>
		<path class="st2" d="M295.44,267.64c0,4.63,0.22,8.45,0.27,9.3c0.05,1.36,0.38,2.02,1.36,2.02h0.71c0.22,0,0.22,0.11,0.22,0.25
			v0.63c0,0.16,0,0.22-0.22,0.22c-0.27,0-1.91-0.08-2.94-0.08c-0.71,0-2.56,0.08-2.84,0.08c-0.11,0-0.16-0.05-0.16-0.25v-0.68
			c0-0.05,0.05-0.16,0.16-0.16h0.93c0.71,0,1.09-0.6,1.23-2.26c0.03-0.49,0.19-4.31,0.19-8.67v-3.46c0-1.64-0.93-2.89-2.13-2.89
			h-0.87c-0.11-0.03-0.16-0.08-0.16-0.19v-0.74c0-0.11,0.05-0.16,0.16-0.16c0.14,0,0.35,0.03,0.85,0.05
			c0.49,0.03,1.23,0.03,2.43,0.03c0.46,0,0.87-0.03,1.2-0.05c0.35,0,0.6-0.03,0.76-0.03c0.33,0,0.49,0.08,0.65,0.25
			c0.27,0.27,5.62,6.98,6.16,7.74c0.38,0.44,4.63,5.72,5.07,6.27h0.11V272c0-2.4,0-3.76-0.05-5.12c-0.05-1.04-0.16-3.71-0.3-4.17
			c-0.19-0.65-0.79-1.04-1.45-1.04h-0.87c-0.16,0-0.16-0.11-0.16-0.25v-0.63c0-0.16,0-0.22,0.22-0.22c0.33,0,1.2,0.08,3.05,0.08
			c1.64,0,2.29-0.08,2.62-0.08c0.22,0,0.27,0.11,0.27,0.19v0.63c0,0.16-0.05,0.27-0.16,0.27h-0.76c-0.54,0-0.82,0.44-0.9,1.44
			c-0.14,1.85-0.41,6.43-0.41,9.21v7.2c0,0.38,0,0.76-0.33,0.76c-0.38,0-0.71-0.22-0.93-0.44c-0.22-0.27-1.69-1.96-3.38-3.98
			c-1.91-2.34-4.03-4.91-4.36-5.34c-0.38-0.38-4.74-5.83-5.07-6.22h-0.16V267.64z"/>
	</g>
	<path class="st3" d="M309.55,241.32v-2.34h-1.25v-4.91h-4.07v4.91h-4.38v-5.95h-4.49v-1.46h-6.05v1.46h-3.44V176.9h-20.73v58.33
		h-3.08v-2.19h-3.13v8.29h-1.5v-9.96h-3.41v-2.4h-5.85v2.4h-0.11v9.96h-5.25V237h-2.54v-12.56l-1.72-1.86h-0.31v-4.39l-1.65-1.68
		h-5.1V203.9h-2.49v12.61h-2.74V203.9h-2.49v12.61h-2.74V203.9h-2.49v12.61h-2.74V203.9h-2.49v12.61h-2.6l-1.65,1.68v4.39h-0.42
		l-1.73,1.86v11.92h-1.02v-3.07h-2.05v3.07h-0.39v4.95h-1.67v-9.44h-4.48v-2.29h-3.46v2.29h-0.38v9.44h-1.26v-5.6h-0.79v-1.03h-5.9
		v1.03h-4.24v-33.91h0.74v-0.84h-2.14v-7.73h0.67v-0.84h-4.89v-6.06h0.75v-0.84h-1.69v-3.39l-2.79-5.16
		c-0.04-17.23-0.14-35.1,0.18-50.73c9.64,0,20.91,0,31.18,0c0-4.94,0-9.89,0-14.83c-10.46,0-20.91,0-31.37,0
		c0-10.46,0-20.91,0-31.37c-4.94,0-9.89,0-14.83,0c0,10.46,0,20.91,0,31.37c-10.46,0-20.91,0-31.37,0c0,4.94,0,9.89,0,14.83
		c10.46,0,20.91,0,31.37,0c0,16.9,0,33.8,0,50.71l-2.81,5.18v3.39h-1.68v0.84h0.75v6.06h-4.89v0.84h0.67v7.73H147v0.84h0.74v36.21
		h-4.88v3.29h-3.13l-1.9-42.89h-4.15l-1.47,39.86h-3.44v3.04h-2.82v-1.63h-0.51v-2.82h-5.77v2.82h-5.26v1.63h-5.9v-6.88h-2.18v-1.28
		h-3.07v1.28h-1.54v-0.51h-4.74v0.51H95.5v-3.15h3.23v-8.52H95.5h-7.44v8.52v10.03h-3.83v-2.34h-3.88v-4.91h-4.07v4.91h-1.44v2.34
		h-2.2v2.42v1.16v5.66h239.26v-5.66v-1.16v-2.42H309.55z"/>
	<g>
		<path class="st2" d="M15.9,149.6l2.84,1.27l-0.18,0.86l-1.92-0.49l-0.4,0.16c-0.18,0.25-0.33,0.51-0.46,0.78
			c-0.13,0.27-0.22,0.55-0.28,0.84c-0.19,0.89-0.09,1.67,0.28,2.37c0.38,0.69,0.94,1.12,1.68,1.28c0.91,0.19,1.9-0.42,2.97-1.85
			l0.14-0.18c0.78-1.02,1.45-1.69,2.02-1.99c0.57-0.3,1.21-0.38,1.93-0.23c1.21,0.26,2.1,0.97,2.68,2.13
			c0.58,1.16,0.71,2.52,0.38,4.07c-0.14,0.66-0.35,1.27-0.63,1.84c-0.28,0.57-0.63,1.09-1.04,1.57l-2.96-1.31l0.22-1.02l2.2,0.68
			l0.3-0.15c0.27-0.34,0.49-0.68,0.66-1.02c0.17-0.34,0.29-0.68,0.36-1.03c0.22-1.01,0.13-1.88-0.26-2.6
			c-0.39-0.72-1.02-1.17-1.88-1.36c-0.76-0.16-1.59,0.31-2.48,1.41c-0.09,0.12-0.16,0.21-0.21,0.27c-0.99,1.22-1.77,1.99-2.33,2.3
			s-1.16,0.41-1.79,0.27c-1.2-0.26-2.1-0.92-2.69-1.99c-0.59-1.07-0.73-2.31-0.42-3.73c0.12-0.57,0.29-1.12,0.5-1.65
			C15.34,150.57,15.6,150.07,15.9,149.6z"/>
		<path class="st2" d="M16.57,140.9l0.18-0.59c0.39,0.24,0.84,0.5,1.35,0.79c0.51,0.29,1.11,0.62,1.8,0.99l3.09,1.61
			c-0.39-0.95-0.64-1.77-0.76-2.46c-0.12-0.69-0.1-1.27,0.04-1.76c0.15-0.49,0.4-0.84,0.76-1.05c0.36-0.21,0.78-0.24,1.25-0.1
			c0.18,0.05,0.39,0.14,0.62,0.25c0.23,0.11,0.57,0.29,1.02,0.54l2.77,1.55c0.3,0.17,0.54,0.3,0.72,0.38s0.34,0.15,0.47,0.19
			c0.31,0.09,0.57,0.08,0.78-0.04c0.22-0.12,0.37-0.34,0.47-0.66c0.04-0.13,0.07-0.29,0.1-0.48c0.02-0.19,0.04-0.4,0.05-0.64
			l0.51,0.15c0.05,0.54,0.06,1.03,0.05,1.45c-0.02,0.42-0.07,0.77-0.15,1.03c-0.14,0.48-0.34,0.8-0.6,0.97
			c-0.25,0.17-0.58,0.19-0.99,0.07c-0.14-0.04-0.29-0.1-0.45-0.17s-0.34-0.16-0.52-0.26l-3.3-1.88c-0.24-0.14-0.46-0.26-0.66-0.35
			c-0.2-0.1-0.37-0.17-0.51-0.21c-0.42-0.13-0.76-0.14-1.01-0.03c-0.25,0.11-0.42,0.34-0.53,0.7c-0.1,0.34-0.09,0.8,0.03,1.38
			c0.13,0.58,0.36,1.22,0.69,1.92l6.14,3.13l-0.49,1.63l-12.05-6.47l-0.7,1.76l-0.48-0.14L16.57,140.9z"/>
		<path class="st2" d="M27.37,125.31l0.37-0.96c0.16,0.17,0.45,0.41,0.85,0.7c0.41,0.29,0.92,0.64,1.54,1.04l3.04,1.95
			c0.27,0.17,0.51,0.32,0.71,0.44c0.21,0.12,0.38,0.21,0.52,0.26c0.29,0.11,0.54,0.12,0.74,0.01c0.2-0.11,0.37-0.34,0.51-0.69
			c0.03-0.07,0.06-0.18,0.08-0.31c0.03-0.13,0.07-0.4,0.13-0.8l0.57,0.22c0.02,0.61,0,1.12-0.04,1.54c-0.04,0.42-0.11,0.75-0.2,0.99
			c-0.15,0.39-0.38,0.63-0.68,0.73c-0.3,0.1-0.69,0.05-1.17-0.14l-0.16-0.06c0.34,0.71,0.55,1.34,0.62,1.9
			c0.08,0.55,0.03,1.05-0.14,1.5c-0.31,0.8-0.84,1.31-1.59,1.54c-0.75,0.23-1.64,0.15-2.66-0.24c-0.61-0.24-1.18-0.55-1.69-0.93
			s-0.98-0.84-1.38-1.37c-0.6-0.79-0.97-1.63-1.1-2.53c-0.13-0.9-0.02-1.81,0.33-2.72c0.11-0.27,0.25-0.54,0.43-0.8
			c0.18-0.26,0.39-0.5,0.63-0.73L27.37,125.31z M27.42,127.33l-0.1,0.25c-0.43,1.1-0.31,2.2,0.37,3.28c0.67,1.08,1.75,1.9,3.21,2.48
			c0.75,0.29,1.36,0.37,1.84,0.25c0.48-0.13,0.82-0.46,1.03-1c0.14-0.35,0.17-0.75,0.11-1.19s-0.23-0.94-0.49-1.49l-4.54-2.87
			L27.42,127.33z"/>
		<path class="st2" d="M31.05,116.98l0.17-0.36l2.2,1.74c-0.53-0.93-0.87-1.78-1.03-2.54c-0.16-0.76-0.14-1.38,0.08-1.84
			c0.15-0.31,0.35-0.51,0.61-0.61c0.26-0.1,0.53-0.09,0.81,0.04c0.35,0.17,0.58,0.41,0.7,0.73c0.11,0.32,0.08,0.67-0.09,1.03
			l-0.06,0.12l-1.2,0.02c-0.07,0.95,0.05,1.74,0.35,2.36c0.3,0.63,0.88,1.25,1.73,1.85l3.9,2.75l-0.72,1.52l-6.69-5l-0.97,1.36
			l-0.46-0.22L31.05,116.98z"/>
		<path class="st2" d="M32.42,104.54c0.14-0.25,0.35-0.42,0.64-0.51c0.29-0.09,0.57-0.06,0.82,0.08c0.26,0.14,0.43,0.35,0.51,0.64
			c0.08,0.29,0.06,0.56-0.08,0.82c-0.15,0.27-0.36,0.45-0.64,0.53c-0.28,0.08-0.55,0.05-0.82-0.09c-0.26-0.14-0.44-0.36-0.52-0.65
			C32.24,105.07,32.27,104.8,32.42,104.54z M36.13,107.02l0.25-0.46l5.87,4.84c0.1,0.08,0.18,0.15,0.24,0.19
			c0.07,0.05,0.12,0.08,0.17,0.11c0.22,0.12,0.43,0.14,0.63,0.06c0.19-0.08,0.37-0.26,0.52-0.54c0.09-0.16,0.17-0.36,0.24-0.6
			c0.07-0.24,0.14-0.52,0.2-0.84l0.55,0.3c-0.06,0.6-0.16,1.13-0.28,1.6c-0.12,0.47-0.28,0.87-0.46,1.21
			c-0.2,0.37-0.45,0.6-0.75,0.68c-0.29,0.08-0.64,0.02-1.02-0.19c-0.11-0.06-0.23-0.14-0.38-0.25c-0.14-0.1-0.3-0.22-0.47-0.36
			l-4.68-3.89l-1.03,1.27l-0.46-0.25L36.13,107.02z"/>
		<path class="st2" d="M40.65,99.27l0.27-0.42l1.42,1.33c-0.11-1.06-0.13-1.93-0.05-2.62s0.25-1.25,0.51-1.68
			c0.28-0.44,0.62-0.71,1.02-0.81c0.4-0.1,0.81-0.02,1.23,0.25c0.15,0.1,0.32,0.23,0.51,0.39c0.18,0.16,0.46,0.43,0.85,0.8
			l2.25,2.24c0.04,0.03,0.08,0.08,0.14,0.14c0.42,0.41,0.71,0.66,0.86,0.76c0.26,0.17,0.52,0.22,0.75,0.16
			c0.24-0.06,0.45-0.23,0.63-0.51c0.07-0.12,0.15-0.26,0.22-0.42c0.07-0.17,0.15-0.37,0.22-0.59l0.48,0.29
			c-0.11,0.55-0.23,1.02-0.36,1.41c-0.13,0.39-0.27,0.7-0.42,0.94c-0.26,0.41-0.54,0.67-0.84,0.77c-0.3,0.1-0.62,0.04-0.96-0.18
			c-0.1-0.07-0.22-0.16-0.36-0.28c-0.14-0.12-0.29-0.27-0.45-0.43l-2.66-2.71c-0.18-0.18-0.35-0.34-0.52-0.49
			c-0.17-0.14-0.32-0.26-0.47-0.35c-0.37-0.24-0.69-0.34-0.95-0.3c-0.26,0.04-0.49,0.21-0.69,0.53c-0.2,0.31-0.32,0.77-0.35,1.36
			c-0.04,0.59,0.01,1.26,0.15,2.02l5.04,4.67l-0.91,1.43l-6.02-5.79l-1.13,1.23l-0.43-0.27L40.65,99.27z"/>
		<path class="st2" d="M50.99,85.15l1.72-2.29l0.69,0.52l-1.23,1.64c0.22,0.07,0.44,0.15,0.64,0.25s0.39,0.21,0.56,0.34
			c0.85,0.64,1.35,1.48,1.48,2.51c0.13,1.03-0.12,1.98-0.76,2.82C54.05,91,54,91.06,53.95,91.12c-0.05,0.06-0.1,0.12-0.16,0.19
			c0.08,0.17,0.18,0.32,0.3,0.46c0.11,0.14,0.25,0.26,0.4,0.38l0.09,0.07l3.06-1.67c0.51-0.28,0.97-0.42,1.39-0.43
			c0.41-0.01,0.79,0.11,1.13,0.36c0.63,0.47,0.9,1.27,0.81,2.39c-0.09,1.12-0.53,2.2-1.32,3.25c-0.7,0.93-1.44,1.52-2.23,1.78
			c-0.79,0.26-1.51,0.14-2.16-0.35c-0.49-0.37-0.79-0.85-0.88-1.44c-0.1-0.59-0.02-1.38,0.25-2.36c-0.04-0.02-0.07-0.04-0.11-0.06
			c-0.04-0.02-0.09-0.06-0.17-0.12c-0.26-0.2-0.48-0.44-0.65-0.72c-0.17-0.29-0.31-0.65-0.43-1.08c-0.54,0.33-1.08,0.5-1.61,0.5
			c-0.53,0-1.01-0.16-1.44-0.48c-0.87-0.65-1.38-1.51-1.52-2.56c-0.15-1.05,0.11-2.02,0.77-2.89c0.18-0.24,0.39-0.46,0.64-0.65
			C50.36,85.49,50.66,85.31,50.99,85.15z M52.33,86.8c-0.47-0.35-0.9-0.53-1.29-0.53c-0.39,0-0.72,0.17-0.98,0.52
			c-0.36,0.48-0.42,1.11-0.17,1.88s0.74,1.43,1.47,1.98c0.42,0.32,0.82,0.47,1.2,0.46c0.38-0.01,0.69-0.18,0.95-0.52
			c0.36-0.48,0.43-1.11,0.2-1.87C53.48,87.96,53.02,87.32,52.33,86.8z M55.4,93.4c-0.25,0.57-0.33,1.08-0.25,1.53
			c0.08,0.45,0.32,0.83,0.73,1.13c0.51,0.39,1.09,0.5,1.73,0.35c0.64-0.15,1.19-0.55,1.67-1.18c0.49-0.65,0.76-1.29,0.8-1.91
			c0.05-0.62-0.13-1.08-0.52-1.37c-0.21-0.16-0.45-0.23-0.73-0.21c-0.28,0.02-0.6,0.13-0.96,0.33L55.4,93.4z"/>
		<path class="st2" d="M66.59,61.86l1.85,2.64l-0.74,0.75l-1.3-1.36l-0.43-0.16c-0.35,0.12-0.68,0.27-0.97,0.45
			c-0.29,0.18-0.56,0.39-0.8,0.64c-0.46,0.47-0.83,1.01-1.1,1.62c-0.27,0.61-0.43,1.27-0.48,1.97c-0.08,1.09,0.11,2.18,0.57,3.27
			c0.46,1.09,1.14,2.08,2.06,2.98c0.91,0.9,1.91,1.36,2.99,1.39c1.08,0.03,2.04-0.38,2.88-1.23c0.18-0.19,0.38-0.42,0.59-0.7
			c0.21-0.28,0.44-0.61,0.69-0.99l-2.51-3.54l-0.33-0.05l-1,0.86l-0.55-0.54l3.45-3.51l0.55,0.54l-0.82,0.99l-0.03,0.42l2.78,4.05
			c-0.41,0.74-0.82,1.41-1.23,2s-0.82,1.09-1.22,1.5c-1.15,1.17-2.44,1.76-3.87,1.76c-1.43,0-2.73-0.59-3.93-1.77
			c-0.92-0.91-1.6-1.97-2.02-3.18c-0.42-1.21-0.56-2.47-0.41-3.76c0.11-0.94,0.37-1.83,0.77-2.65c0.4-0.83,0.93-1.58,1.59-2.25
			c0.47-0.48,0.96-0.91,1.47-1.27C65.6,62.37,66.09,62.08,66.59,61.86z"/>
		<path class="st2" d="M76.1,58.04c0.8-0.68,1.66-0.96,2.58-0.82c0.92,0.14,1.77,0.66,2.56,1.58c0.51,0.6,0.9,1.27,1.17,2.01
			c0.27,0.74,0.4,1.51,0.4,2.31c-0.01,0.71-0.15,1.36-0.42,1.95c-0.27,0.59-0.68,1.11-1.21,1.57c-0.79,0.67-1.64,0.95-2.55,0.83
			c-0.92-0.12-1.75-0.62-2.5-1.5c-0.52-0.61-0.93-1.3-1.21-2.07c-0.29-0.77-0.43-1.54-0.42-2.3c0.01-0.73,0.15-1.4,0.43-2
			C75.2,59,75.59,58.47,76.1,58.04z M76.42,58.8c-0.68,0.58-0.92,1.45-0.73,2.62c0.19,1.17,0.77,2.32,1.75,3.46
			c0.61,0.72,1.22,1.16,1.81,1.33c0.59,0.17,1.12,0.05,1.59-0.35c0.67-0.57,0.91-1.44,0.73-2.61c-0.18-1.17-0.75-2.31-1.7-3.42
			c-0.63-0.73-1.24-1.19-1.84-1.36C77.43,58.28,76.89,58.39,76.42,58.8z"/>
		<path class="st2" d="M86.73,43.39l0.42-0.31l5.35,10.92c0.1,0.2,0.19,0.38,0.28,0.54c0.09,0.16,0.18,0.3,0.26,0.41
			c0.17,0.23,0.35,0.36,0.55,0.38c0.2,0.03,0.42-0.05,0.66-0.23c0.09-0.07,0.22-0.18,0.37-0.33c0.15-0.15,0.33-0.36,0.55-0.61
			l0.35,0.48c-0.31,0.46-0.6,0.85-0.88,1.18c-0.28,0.33-0.54,0.57-0.76,0.74c-0.37,0.27-0.71,0.38-1.02,0.33
			c-0.31-0.06-0.61-0.28-0.9-0.68c-0.06-0.08-0.11-0.15-0.14-0.2c-0.03-0.05-0.06-0.09-0.08-0.13c-0.03,0.78-0.16,1.45-0.41,2.02
			c-0.24,0.57-0.58,1.01-1.02,1.33c-0.66,0.48-1.36,0.6-2.11,0.37s-1.45-0.8-2.12-1.71c-0.4-0.55-0.71-1.12-0.94-1.71
			c-0.23-0.59-0.37-1.19-0.41-1.79c-0.06-0.98,0.09-1.9,0.46-2.77c0.37-0.87,0.89-1.56,1.58-2.06c0.23-0.17,0.47-0.31,0.71-0.42
			s0.5-0.2,0.78-0.26l-1.79-3.64l-1.55,0.88l-0.33-0.45L86.73,43.39z M87.57,50.02c-0.04,0.02-0.11,0.06-0.21,0.11
			c-0.09,0.05-0.17,0.09-0.21,0.13c-0.8,0.59-1.19,1.53-1.17,2.84c0.03,1.3,0.5,2.58,1.41,3.82c0.45,0.62,0.93,1.02,1.44,1.19
			c0.5,0.17,0.97,0.1,1.4-0.22c0.32-0.23,0.56-0.6,0.75-1.1c0.18-0.5,0.29-1.1,0.31-1.79l-2.28-4.64L87.57,50.02z"/>
		<path class="st2" d="M95.2,44.85l-0.73,0.47c0.27-0.99,0.4-1.83,0.4-2.5s-0.13-1.22-0.39-1.63l-0.04-0.07l-1.08,0.69
			c-0.09-0.04-0.17-0.09-0.23-0.15c-0.07-0.06-0.12-0.13-0.17-0.2c-0.2-0.31-0.25-0.65-0.16-1.03s0.3-0.67,0.63-0.89
			c0.33-0.21,0.65-0.28,0.98-0.21c0.32,0.07,0.59,0.28,0.81,0.62c0.35,0.54,0.52,1.22,0.52,2.05C95.72,42.84,95.54,43.79,95.2,44.85
			z"/>
		<path class="st2" d="M104.92,40.66l-1.3-0.58c-0.12-0.01-0.23-0.01-0.34,0.01c-0.1,0.02-0.21,0.06-0.31,0.12
			c-0.35,0.2-0.58,0.48-0.68,0.83c-0.1,0.35-0.05,0.69,0.14,1.03c0.24,0.41,0.97,0.7,2.19,0.86l0.05,0.01
			c0.07,0.01,0.19,0.02,0.34,0.04c1.45,0.19,2.35,0.6,2.72,1.24c0.45,0.77,0.52,1.58,0.21,2.42c-0.3,0.84-0.92,1.53-1.84,2.07
			c-0.71,0.41-1.35,0.6-1.92,0.56c-0.57-0.03-0.99-0.29-1.26-0.75c-0.15-0.26-0.19-0.53-0.12-0.78c0.07-0.26,0.25-0.46,0.52-0.62
			c0.11-0.06,0.24-0.11,0.39-0.13c0.14-0.02,0.33-0.02,0.54,0.01l0.18,1.04c0.25,0.12,0.51,0.17,0.79,0.15
			c0.27-0.02,0.54-0.1,0.81-0.26c0.5-0.29,0.81-0.64,0.94-1.06c0.13-0.42,0.06-0.86-0.2-1.32c-0.15-0.26-0.36-0.46-0.64-0.59
			c-0.28-0.13-0.78-0.24-1.49-0.33l-0.11-0.02c-1.5-0.18-2.43-0.59-2.79-1.22c-0.41-0.72-0.48-1.5-0.19-2.35
			c0.29-0.85,0.84-1.51,1.66-1.99c0.48-0.28,0.93-0.4,1.34-0.37c0.41,0.03,0.71,0.2,0.89,0.52c0.15,0.25,0.17,0.51,0.09,0.77
			C105.41,40.23,105.22,40.46,104.92,40.66z"/>
		<path class="st2" d="M116.21,28.13l4.46-1.93l0.3,0.7l-1.15,0.6l-0.18,0.41l2.47,11.28l3.89-1.68l0.2-0.44l-0.24-2.51l0.89-0.38
			l0.8,3.62l-8.19,3.53l-0.3-0.7l1.14-0.6l0.17-0.4l-2.42-11.04l-0.31-0.2l-1.23,0.42L116.21,28.13z"/>
		<path class="st2" d="M133.66,25.3c0.99-0.34,1.89-0.28,2.7,0.19c0.81,0.47,1.41,1.27,1.8,2.41c0.26,0.75,0.37,1.51,0.35,2.3
			c-0.02,0.79-0.18,1.56-0.48,2.3c-0.27,0.66-0.64,1.21-1.11,1.66c-0.47,0.45-1.04,0.79-1.7,1.01c-0.98,0.34-1.87,0.28-2.68-0.17
			c-0.8-0.45-1.4-1.22-1.77-2.32c-0.26-0.76-0.38-1.55-0.37-2.37c0.02-0.82,0.17-1.58,0.46-2.29c0.28-0.67,0.66-1.24,1.13-1.7
			C132.47,25.85,133.03,25.51,133.66,25.3z M133.68,26.12c-0.84,0.29-1.39,1.01-1.65,2.17c-0.25,1.15-0.14,2.44,0.35,3.86
			c0.31,0.89,0.71,1.53,1.2,1.9c0.49,0.38,1.02,0.46,1.6,0.26c0.83-0.29,1.38-1.01,1.64-2.16c0.26-1.15,0.16-2.42-0.32-3.81
			c-0.31-0.91-0.71-1.56-1.21-1.95C134.81,26,134.27,25.91,133.68,26.12z"/>
		<path class="st2" d="M142.77,22.42l0.05-0.01c0.47-0.13,0.85-0.07,1.13,0.16c0.28,0.23,0.59,0.79,0.92,1.68l1.9,5.17
			c0.5-1.16,0.89-2.2,1.17-3.11s0.46-1.73,0.53-2.44l-0.99-2.26c0.12-0.17,0.26-0.31,0.41-0.42c0.15-0.11,0.3-0.18,0.46-0.22
			c0.33-0.09,0.61-0.06,0.84,0.09c0.23,0.15,0.39,0.39,0.49,0.75c0.19,0.71,0.01,1.91-0.53,3.59c-0.54,1.69-1.4,3.71-2.58,6.06
			l-0.93,0.25c0.05-0.19,0.07-0.4,0.06-0.63c-0.01-0.22-0.05-0.46-0.12-0.7c-0.02-0.09-0.05-0.18-0.08-0.27
			c-0.03-0.09-0.08-0.23-0.14-0.42l-1.68-4.4c-0.19-0.47-0.36-0.82-0.52-1.06c-0.16-0.23-0.33-0.38-0.5-0.43l-1.51,0.28l-0.13-0.49
			L142.77,22.42z"/>
		<path class="st2" d="M155.99,24.61c0,0.14,0.01,0.29,0.03,0.44c0.02,0.16,0.05,0.32,0.08,0.48c0.15,0.79,0.45,1.37,0.91,1.76
			c0.45,0.39,1,0.52,1.63,0.4c0.46-0.09,0.93-0.32,1.42-0.7c0.48-0.38,0.96-0.88,1.42-1.52l0.18,0.92c-0.5,0.7-1.04,1.26-1.62,1.68
			c-0.58,0.42-1.2,0.69-1.86,0.82c-0.93,0.18-1.72,0.01-2.36-0.52c-0.64-0.53-1.07-1.35-1.29-2.48c-0.16-0.82-0.16-1.66,0-2.51
			c0.16-0.85,0.45-1.61,0.89-2.29c0.39-0.58,0.84-1.08,1.37-1.48c0.53-0.4,1.05-0.65,1.56-0.75c0.62-0.12,1.15-0.04,1.58,0.24
			c0.43,0.28,0.71,0.72,0.82,1.31c0.17,0.87-0.17,1.68-1.01,2.42C158.89,23.59,157.64,24.17,155.99,24.61z M155.95,23.93
			c1.13-0.28,2.01-0.74,2.63-1.36c0.62-0.62,0.87-1.27,0.74-1.95c-0.06-0.3-0.21-0.53-0.44-0.7c-0.24-0.16-0.5-0.22-0.79-0.16
			c-0.6,0.12-1.09,0.54-1.48,1.28C156.22,21.79,156,22.75,155.95,23.93z"/>
		<path class="st2" d="M175.43,16.45h0.69l0.88,7.84l0.16-0.33c1.48-3.24,2.51-5.67,3.1-7.29l1.19-0.2
			c0.09,0.92,0.22,2.03,0.38,3.33c0.17,1.3,0.36,2.79,0.59,4.46c0.84-1.27,1.5-2.35,1.97-3.24c0.47-0.89,0.79-1.66,0.96-2.32
			l-0.53-2.31c0.11-0.16,0.25-0.29,0.42-0.37c0.17-0.08,0.36-0.13,0.58-0.15c0.33-0.02,0.58,0.07,0.78,0.25
			c0.19,0.19,0.3,0.46,0.32,0.83c0.04,0.64-0.28,1.6-0.94,2.87s-1.9,3.25-3.71,5.94l-1.16,0.07l-0.87-6.95
			c-0.25,0.64-0.67,1.58-1.26,2.82c-0.59,1.24-1.31,2.7-2.16,4.37l-1.31,0.07l0.14-0.45l-0.98-7.88l-1.49-0.09l-0.03-0.49
			L175.43,16.45z"/>
		<path class="st2" d="M194.3,16.01l0.52,0.01l-1.58,7.44c-0.03,0.12-0.05,0.23-0.06,0.31c-0.01,0.08-0.02,0.15-0.02,0.2
			c0,0.25,0.07,0.45,0.23,0.59c0.16,0.14,0.4,0.21,0.72,0.21c0.18,0,0.39-0.02,0.64-0.06c0.25-0.04,0.53-0.11,0.84-0.21l-0.01,0.63
			c-0.56,0.22-1.07,0.38-1.55,0.49c-0.47,0.11-0.9,0.16-1.29,0.15c-0.42-0.01-0.74-0.12-0.95-0.35c-0.21-0.22-0.31-0.55-0.3-1
			c0-0.12,0.02-0.27,0.04-0.45c0.03-0.17,0.06-0.37,0.1-0.58l1.29-5.94l-1.61-0.32l0.01-0.53L194.3,16.01z M194.79,11.57
			c0.29,0.01,0.54,0.12,0.75,0.34c0.21,0.22,0.31,0.48,0.31,0.77c-0.01,0.29-0.12,0.54-0.33,0.75c-0.22,0.21-0.47,0.31-0.76,0.3
			c-0.31-0.01-0.56-0.11-0.77-0.32c-0.2-0.21-0.3-0.47-0.3-0.77c0.01-0.3,0.12-0.55,0.33-0.76
			C194.23,11.66,194.49,11.56,194.79,11.57z"/>
		<path class="st2" d="M203,14.48l0.92,0.07l-0.58,2.25l2.87,0.21l-0.06,0.86l-3.03-0.22l-1.43,5.25c-0.01,0.05-0.02,0.11-0.04,0.18
			c-0.08,0.33-0.13,0.56-0.14,0.69c-0.03,0.4,0.05,0.72,0.25,0.94c0.19,0.23,0.49,0.35,0.88,0.38c0.22,0.02,0.49,0,0.81-0.04
			c0.32-0.05,0.69-0.12,1.12-0.22l-0.05,0.63c-0.7,0.24-1.31,0.42-1.83,0.53c-0.52,0.11-0.96,0.15-1.31,0.13
			c-0.56-0.04-0.97-0.22-1.23-0.54c-0.25-0.32-0.36-0.78-0.31-1.39c0.01-0.19,0.04-0.4,0.08-0.63c0.04-0.23,0.1-0.46,0.17-0.7
			l1.47-5.33l-1.24,0.01l0.04-0.59l1.51-0.54L203,14.48z"/>
		<path class="st2" d="M214.51,12.53l0.61,0.09c-0.18,0.42-0.37,0.91-0.58,1.46c-0.21,0.55-0.44,1.19-0.71,1.93l-1.13,3.29
			c0.88-0.53,1.66-0.9,2.32-1.12c0.66-0.22,1.25-0.29,1.75-0.22c0.51,0.07,0.89,0.27,1.15,0.6s0.36,0.73,0.29,1.22
			c-0.03,0.19-0.08,0.4-0.15,0.65c-0.07,0.25-0.2,0.61-0.38,1.09l-1.12,2.97c-0.13,0.32-0.22,0.58-0.27,0.77
			c-0.06,0.19-0.09,0.35-0.12,0.5c-0.04,0.32,0.01,0.57,0.16,0.77c0.15,0.2,0.39,0.32,0.72,0.36c0.14,0.02,0.3,0.03,0.49,0.02
			c0.19,0,0.4-0.02,0.64-0.04l-0.08,0.53c-0.53,0.13-1.01,0.22-1.43,0.26c-0.42,0.05-0.77,0.05-1.04,0.01
			c-0.5-0.07-0.85-0.22-1.05-0.44c-0.21-0.23-0.28-0.55-0.22-0.97c0.02-0.14,0.05-0.3,0.1-0.47c0.05-0.17,0.11-0.36,0.18-0.55
			l1.37-3.54c0.1-0.25,0.19-0.49,0.25-0.7c0.06-0.21,0.11-0.39,0.13-0.53c0.06-0.44,0.02-0.77-0.13-1s-0.4-0.37-0.77-0.42
			c-0.35-0.05-0.81,0.03-1.36,0.24c-0.55,0.21-1.15,0.53-1.8,0.97l-2.18,6.54l-1.68-0.24l4.59-12.88l-1.84-0.43l0.07-0.49
			L214.51,12.53z"/>
		<path class="st2" d="M235.64,19.91l0.89,0.23l-0.99,2.1l2.79,0.73l-0.22,0.83l-2.94-0.77l-2.37,4.9c-0.02,0.04-0.04,0.1-0.07,0.17
			c-0.14,0.31-0.23,0.53-0.26,0.65c-0.1,0.39-0.08,0.71,0.07,0.97c0.15,0.26,0.41,0.44,0.8,0.54c0.21,0.06,0.48,0.09,0.8,0.11
			c0.32,0.01,0.7,0.01,1.14-0.01l-0.16,0.61c-0.73,0.11-1.36,0.17-1.9,0.18c-0.53,0.01-0.97-0.03-1.31-0.12
			c-0.55-0.14-0.92-0.4-1.11-0.76c-0.19-0.36-0.21-0.84-0.05-1.43c0.05-0.18,0.11-0.38,0.2-0.6c0.08-0.22,0.18-0.44,0.29-0.66
			l2.42-4.97l-1.22-0.22l0.15-0.58l1.58-0.25L235.64,19.91z"/>
		<path class="st2" d="M247.33,20.1l0.58,0.2c-0.25,0.38-0.53,0.82-0.84,1.33c-0.31,0.5-0.66,1.09-1.05,1.77l-1.71,3.03
			c0.96-0.36,1.79-0.58,2.48-0.67s1.28-0.06,1.76,0.1c0.49,0.16,0.83,0.43,1.02,0.8s0.21,0.79,0.06,1.26
			c-0.06,0.18-0.15,0.38-0.27,0.61c-0.12,0.23-0.31,0.56-0.58,1l-1.65,2.71c-0.18,0.3-0.32,0.53-0.41,0.71
			c-0.09,0.17-0.16,0.33-0.21,0.47c-0.1,0.3-0.1,0.56,0.01,0.78s0.33,0.38,0.64,0.49c0.13,0.04,0.29,0.08,0.48,0.11
			s0.4,0.06,0.64,0.07l-0.17,0.51c-0.55,0.03-1.03,0.03-1.45,0c-0.42-0.03-0.76-0.09-1.02-0.18c-0.47-0.16-0.79-0.37-0.95-0.63
			c-0.16-0.26-0.17-0.59-0.04-0.99c0.05-0.14,0.11-0.29,0.19-0.45c0.08-0.16,0.17-0.33,0.28-0.51l2-3.23
			c0.15-0.23,0.27-0.45,0.38-0.65c0.1-0.2,0.18-0.37,0.23-0.5c0.14-0.42,0.16-0.75,0.06-1c-0.1-0.25-0.33-0.44-0.68-0.55
			c-0.34-0.11-0.8-0.12-1.38-0.01c-0.58,0.11-1.23,0.31-1.95,0.62l-3.34,6.03l-1.61-0.54l6.88-11.82l-1.73-0.76l0.16-0.47
			L247.33,20.1z"/>
		<path class="st2" d="M254.89,33.82c-0.08,0.12-0.15,0.24-0.22,0.38s-0.14,0.29-0.2,0.44c-0.31,0.74-0.39,1.39-0.23,1.97
			c0.16,0.57,0.54,0.98,1.13,1.24c0.43,0.18,0.95,0.25,1.57,0.21c0.61-0.05,1.29-0.2,2.02-0.47l-0.36,0.86
			c-0.8,0.31-1.56,0.47-2.28,0.5c-0.72,0.03-1.39-0.09-2-0.35c-0.88-0.37-1.44-0.95-1.67-1.75c-0.24-0.79-0.14-1.72,0.31-2.78
			c0.33-0.77,0.79-1.47,1.39-2.08c0.6-0.62,1.27-1.09,2.01-1.41c0.64-0.27,1.3-0.43,1.96-0.47s1.24,0.04,1.71,0.24
			c0.58,0.25,0.97,0.61,1.18,1.08c0.2,0.47,0.19,0.99-0.05,1.55c-0.34,0.82-1.07,1.3-2.18,1.45
			C257.87,34.58,256.51,34.38,254.89,33.82z M255.24,33.23c1.1,0.39,2.08,0.5,2.94,0.33c0.86-0.17,1.42-0.57,1.69-1.21
			c0.12-0.28,0.13-0.56,0.02-0.82c-0.11-0.27-0.29-0.46-0.56-0.57c-0.56-0.24-1.21-0.16-1.94,0.25S255.93,32.28,255.24,33.23z"/>
		<path class="st2" d="M276.82,34.31l4.22,2.42l-0.38,0.66l-1.18-0.56l-0.43,0.1l-7.54,8.75l3.68,2.11l0.47-0.1l1.86-1.7l0.84,0.48
			l-2.42,2.81l-7.74-4.43l0.38-0.66l1.16,0.55l0.42-0.11l7.38-8.56l-0.03-0.36l-1.08-0.73L276.82,34.31z"/>
		<path class="st2" d="M283.71,48.92c-0.1,0.1-0.19,0.21-0.29,0.33c-0.1,0.12-0.19,0.26-0.28,0.4c-0.45,0.66-0.65,1.29-0.6,1.89
			c0.05,0.59,0.34,1.07,0.88,1.43c0.39,0.26,0.89,0.43,1.5,0.5s1.3,0.05,2.07-0.08l-0.52,0.78c-0.84,0.15-1.62,0.16-2.33,0.05
			c-0.71-0.11-1.34-0.35-1.9-0.73c-0.79-0.53-1.23-1.21-1.31-2.03c-0.08-0.83,0.19-1.71,0.83-2.67c0.47-0.7,1.06-1.29,1.76-1.78
			s1.45-0.82,2.25-1c0.69-0.14,1.36-0.17,2.02-0.09s1.21,0.27,1.64,0.57c0.52,0.35,0.84,0.78,0.95,1.28
			c0.11,0.5-0.01,1.01-0.34,1.51c-0.49,0.74-1.3,1.07-2.42,1.01C286.49,50.24,285.19,49.78,283.71,48.92z M284.16,48.41
			c1,0.6,1.94,0.89,2.82,0.89c0.88,0,1.51-0.29,1.89-0.86c0.17-0.25,0.23-0.52,0.18-0.81c-0.05-0.28-0.2-0.51-0.44-0.67
			c-0.51-0.34-1.16-0.38-1.95-0.13C285.86,47.09,285.03,47.62,284.16,48.41z"/>
		<path class="st2" d="M301.02,55.11l0.82,0.64c-0.21,0.11-0.52,0.31-0.92,0.61c-0.4,0.3-0.88,0.69-1.44,1.17l-2.74,2.34
			c-0.24,0.21-0.45,0.39-0.63,0.56c-0.18,0.17-0.31,0.31-0.4,0.42c-0.19,0.25-0.27,0.48-0.22,0.71c0.04,0.23,0.21,0.45,0.51,0.69
			c0.06,0.05,0.15,0.1,0.27,0.17c0.12,0.06,0.36,0.18,0.73,0.36l-0.37,0.48c-0.58-0.16-1.07-0.32-1.46-0.48
			c-0.39-0.16-0.69-0.32-0.89-0.48c-0.33-0.26-0.49-0.54-0.5-0.86c0-0.32,0.15-0.68,0.47-1.08l0.1-0.13c-0.78,0.12-1.44,0.13-2,0.05
			c-0.55-0.09-1.02-0.28-1.39-0.57c-0.67-0.53-1.01-1.18-1.02-1.97c-0.01-0.79,0.33-1.62,1-2.48c0.41-0.52,0.87-0.97,1.38-1.35
			c0.52-0.38,1.09-0.69,1.71-0.93c0.93-0.35,1.84-0.46,2.74-0.32s1.74,0.5,2.51,1.11c0.23,0.18,0.44,0.39,0.64,0.64
			c0.19,0.25,0.37,0.52,0.51,0.82L301.02,55.11z M299.07,54.57l-0.22-0.17c-0.93-0.73-2.01-0.93-3.24-0.6
			c-1.23,0.33-2.33,1.12-3.3,2.36c-0.49,0.63-0.75,1.19-0.77,1.69c-0.02,0.49,0.2,0.92,0.66,1.28c0.3,0.23,0.67,0.38,1.11,0.45
			c0.44,0.07,0.97,0.05,1.57-0.04l4.07-3.51L299.07,54.57z"/>
		<path class="st2" d="M307.72,63.89l0.15-1.42c-0.02-0.12-0.06-0.22-0.12-0.31c-0.05-0.09-0.12-0.18-0.21-0.26
			c-0.3-0.27-0.63-0.4-1-0.39c-0.37,0.01-0.68,0.16-0.93,0.45c-0.32,0.35-0.37,1.13-0.14,2.34l0.01,0.05
			c0.01,0.07,0.04,0.19,0.07,0.34c0.27,1.43,0.15,2.42-0.34,2.97c-0.6,0.66-1.34,0.98-2.24,0.95c-0.89-0.03-1.74-0.4-2.53-1.11
			c-0.61-0.55-0.99-1.1-1.13-1.66s-0.03-1.03,0.33-1.43c0.21-0.23,0.44-0.35,0.71-0.35c0.27-0.01,0.52,0.09,0.75,0.3
			c0.1,0.09,0.18,0.2,0.24,0.33c0.07,0.13,0.12,0.3,0.15,0.51l-0.93,0.5c-0.04,0.27,0,0.54,0.1,0.79c0.1,0.25,0.27,0.48,0.5,0.69
			c0.42,0.38,0.86,0.57,1.3,0.56c0.44-0.01,0.84-0.21,1.19-0.6c0.2-0.22,0.32-0.49,0.36-0.79c0.04-0.31-0.01-0.81-0.14-1.52
			l-0.02-0.11c-0.29-1.48-0.19-2.49,0.3-3.03c0.55-0.61,1.28-0.92,2.17-0.91c0.89,0.01,1.7,0.33,2.4,0.97
			c0.41,0.37,0.67,0.76,0.77,1.16c0.1,0.4,0.03,0.74-0.21,1.01c-0.2,0.22-0.43,0.32-0.71,0.32C308.27,64.23,308,64.11,307.72,63.89z
			"/>
		<path class="st2" d="M316.79,66.81l0.65,0.65l-1.92,1.31l2.03,2.05l-0.61,0.6l-2.13-2.16l-4.54,3.01
			c-0.04,0.03-0.09,0.06-0.15,0.11c-0.28,0.2-0.47,0.34-0.56,0.42c-0.29,0.28-0.43,0.57-0.44,0.87c0,0.3,0.13,0.59,0.41,0.87
			c0.16,0.16,0.37,0.32,0.64,0.5c0.27,0.18,0.6,0.37,0.98,0.57l-0.45,0.45c-0.68-0.28-1.26-0.55-1.73-0.81
			c-0.46-0.26-0.82-0.52-1.07-0.77c-0.4-0.4-0.59-0.81-0.57-1.22c0.02-0.41,0.25-0.83,0.68-1.26c0.14-0.13,0.29-0.27,0.48-0.42
			s0.38-0.28,0.59-0.41l4.62-3.04l-0.94-0.81l0.42-0.42l1.49,0.59L316.79,66.81z"/>
		<path class="st2" d="M329.11,83.75c0.65,0.82,0.88,1.7,0.71,2.61c-0.18,0.92-0.74,1.74-1.69,2.49c-0.62,0.49-1.31,0.85-2.06,1.08
			c-0.75,0.24-1.53,0.33-2.33,0.3c-0.71-0.04-1.35-0.21-1.93-0.51c-0.58-0.3-1.08-0.72-1.51-1.27c-0.64-0.81-0.88-1.68-0.72-2.58
			c0.16-0.91,0.7-1.72,1.61-2.43c0.63-0.49,1.34-0.87,2.12-1.12c0.78-0.25,1.55-0.36,2.31-0.32c0.73,0.04,1.39,0.21,1.98,0.51
			C328.19,82.81,328.7,83.23,329.11,83.75z M328.34,84.04c-0.55-0.7-1.41-0.98-2.59-0.85c-1.17,0.14-2.35,0.67-3.53,1.59
			c-0.74,0.58-1.21,1.17-1.41,1.75c-0.19,0.59-0.1,1.12,0.28,1.6c0.54,0.69,1.4,0.97,2.58,0.84s2.34-0.65,3.5-1.55
			c0.76-0.59,1.24-1.19,1.44-1.78C328.81,85.07,328.72,84.53,328.34,84.04z"/>
		<path class="st2" d="M340,94.16l0.17-2.11c-0.42-0.17-1.03-0.16-1.84,0.03c-0.81,0.19-1.82,0.57-3.01,1.12l1.6,2.33l-0.74,0.51
			l-1.69-2.46l-5.14,2.56c-1.01,0.51-1.87,0.86-2.59,1.07c-0.71,0.2-1.39,0.3-2.04,0.3c-0.9-0.02-1.66-0.13-2.28-0.35
			c-0.62-0.22-1.07-0.53-1.35-0.94c-0.18-0.26-0.25-0.53-0.2-0.8c0.05-0.27,0.2-0.5,0.46-0.68c0.13-0.09,0.27-0.14,0.43-0.16
			c0.16-0.02,0.32,0.01,0.48,0.06l0.74,2.02c0.53,0.08,1.17,0.01,1.93-0.21c0.75-0.23,1.92-0.73,3.51-1.51l5.21-2.56l-0.88-1.02
			l0.56-0.36l1.36,0.9c1.54-0.67,2.91-0.96,4.11-0.88c1.2,0.08,2.08,0.53,2.63,1.33c0.26,0.38,0.39,0.77,0.38,1.17
			c-0.01,0.4-0.15,0.69-0.41,0.87c-0.21,0.15-0.45,0.2-0.7,0.17C340.46,94.51,340.22,94.38,340,94.16z"/>
		<path class="st2" d="M347.29,104.28l5.03,9.51l-2.91,0.87l-0.51-0.96l1.69-0.8l0.16-0.33l-1.33-2.51l-11.14,3.41l-0.13,0.36
			l0.51,1.21l-0.67,0.36l-2.28-4.32l0.67-0.36l0.7,1.08l0.4,0.15l11.11-3.46l-1.32-2.5l-0.42-0.17l-1.95,0.31l-0.52-0.98
			L347.29,104.28z"/>
		<path class="st2" d="M356.41,119.88l0.24,0.57c-0.45,0.07-0.97,0.15-1.55,0.26c-0.58,0.11-1.25,0.24-2.02,0.4l-3.4,0.74
			c0.91,0.48,1.63,0.95,2.16,1.4c0.53,0.45,0.9,0.91,1.1,1.38c0.2,0.47,0.23,0.9,0.09,1.3c-0.14,0.39-0.44,0.68-0.9,0.88
			c-0.17,0.07-0.38,0.14-0.63,0.21c-0.25,0.06-0.63,0.14-1.13,0.24l-3.12,0.58c-0.34,0.06-0.61,0.12-0.8,0.17
			c-0.19,0.05-0.35,0.1-0.48,0.16c-0.29,0.13-0.49,0.3-0.57,0.53s-0.07,0.5,0.06,0.8c0.05,0.13,0.13,0.27,0.23,0.43
			c0.1,0.16,0.22,0.34,0.37,0.52l-0.49,0.21c-0.38-0.39-0.71-0.75-0.96-1.09c-0.26-0.34-0.44-0.63-0.55-0.88
			c-0.2-0.46-0.25-0.84-0.17-1.13c0.09-0.29,0.33-0.52,0.71-0.69c0.13-0.06,0.28-0.11,0.46-0.16c0.17-0.05,0.36-0.09,0.56-0.13
			l3.74-0.67c0.27-0.04,0.52-0.09,0.73-0.15s0.39-0.11,0.52-0.17c0.41-0.17,0.67-0.38,0.79-0.63c0.12-0.24,0.1-0.53-0.04-0.88
			c-0.14-0.33-0.45-0.68-0.91-1.04c-0.47-0.36-1.05-0.71-1.76-1.04l-6.72,1.53l-0.67-1.56l13.4-2.75l-0.59-1.8l0.46-0.2
			L356.41,119.88z"/>
		<path class="st2" d="M351.22,134.64c-0.14,0.02-0.28,0.05-0.43,0.09s-0.31,0.09-0.47,0.14c-0.76,0.26-1.3,0.64-1.62,1.14
			c-0.32,0.5-0.38,1.06-0.17,1.67c0.15,0.44,0.45,0.88,0.89,1.31c0.44,0.43,1.01,0.82,1.7,1.19l-0.89,0.3
			c-0.76-0.39-1.39-0.85-1.89-1.37c-0.5-0.52-0.86-1.09-1.07-1.73c-0.31-0.9-0.25-1.7,0.18-2.41c0.43-0.71,1.19-1.25,2.27-1.62
			c0.79-0.27,1.62-0.39,2.48-0.36c0.86,0.04,1.66,0.22,2.39,0.56c0.63,0.3,1.19,0.68,1.66,1.15c0.47,0.47,0.79,0.95,0.96,1.44
			c0.21,0.6,0.2,1.13-0.02,1.6c-0.22,0.47-0.61,0.8-1.19,1c-0.84,0.29-1.68,0.07-2.54-0.66
			C352.64,137.37,351.88,136.22,351.22,134.64z M351.89,134.5c0.44,1.08,1.01,1.88,1.71,2.41c0.7,0.53,1.38,0.68,2.03,0.45
			c0.29-0.1,0.5-0.28,0.63-0.54c0.13-0.26,0.15-0.52,0.05-0.8c-0.2-0.58-0.69-1.01-1.48-1.28
			C354.04,134.47,353.06,134.39,351.89,134.5z"/>
		<path class="st2" d="M358.36,147.79l0.89-1.11c0.04-0.11,0.07-0.22,0.07-0.33c0-0.11-0.01-0.22-0.04-0.33
			c-0.11-0.39-0.32-0.68-0.63-0.87c-0.31-0.19-0.66-0.23-1.03-0.13c-0.46,0.13-0.92,0.76-1.38,1.9l-0.02,0.04
			c-0.03,0.07-0.07,0.17-0.13,0.32c-0.55,1.35-1.18,2.12-1.89,2.32c-0.86,0.24-1.66,0.1-2.4-0.41c-0.74-0.51-1.25-1.27-1.53-2.3
			c-0.22-0.79-0.24-1.46-0.06-2c0.18-0.54,0.53-0.89,1.05-1.03c0.3-0.08,0.56-0.05,0.79,0.08c0.23,0.14,0.39,0.35,0.47,0.66
			c0.03,0.13,0.04,0.26,0.02,0.41s-0.07,0.32-0.15,0.52l-1.06-0.09c-0.18,0.21-0.29,0.45-0.34,0.72s-0.04,0.55,0.04,0.85
			c0.15,0.55,0.42,0.94,0.79,1.17c0.38,0.23,0.82,0.28,1.33,0.14c0.29-0.08,0.53-0.24,0.73-0.47c0.2-0.24,0.43-0.69,0.7-1.36
			l0.04-0.1c0.56-1.4,1.18-2.2,1.89-2.39c0.8-0.22,1.57-0.08,2.32,0.41c0.75,0.49,1.25,1.19,1.5,2.11c0.15,0.53,0.15,1,0.02,1.39
			c-0.13,0.39-0.37,0.64-0.73,0.74c-0.28,0.08-0.54,0.04-0.77-0.11C358.65,148.37,358.48,148.13,358.36,147.79z"/>
		<path class="st2" d="M357.19,155.42c-0.14,0-0.29,0.01-0.44,0.04c-0.16,0.02-0.32,0.05-0.48,0.08c-0.79,0.16-1.37,0.47-1.75,0.93
			c-0.38,0.46-0.51,1-0.38,1.63c0.1,0.46,0.33,0.93,0.72,1.41c0.38,0.48,0.89,0.94,1.54,1.4l-0.92,0.19
			c-0.7-0.49-1.27-1.02-1.7-1.59c-0.43-0.58-0.71-1.19-0.85-1.85c-0.19-0.93-0.03-1.72,0.49-2.37c0.52-0.65,1.34-1.09,2.46-1.32
			c0.82-0.17,1.66-0.18,2.51-0.04c0.85,0.14,1.62,0.43,2.3,0.86c0.59,0.38,1.09,0.83,1.5,1.35c0.41,0.52,0.67,1.04,0.77,1.55
			c0.13,0.62,0.05,1.15-0.22,1.58c-0.28,0.44-0.71,0.71-1.3,0.84c-0.87,0.18-1.68-0.15-2.43-0.97
			C358.25,158.31,357.64,157.07,357.19,155.42z M357.87,155.37c0.3,1.13,0.76,2,1.39,2.61c0.63,0.61,1.28,0.85,1.96,0.71
			c0.3-0.06,0.53-0.21,0.69-0.45c0.16-0.24,0.21-0.5,0.15-0.79c-0.13-0.6-0.56-1.09-1.3-1.46
			C360.01,155.62,359.04,155.41,357.87,155.37z"/>
		<path class="st2" d="M363.37,190.83c0.72,0.01,1.33,0.27,1.82,0.78c0.5,0.51,0.74,1.13,0.74,1.85c-0.01,0.71-0.27,1.32-0.78,1.82
			c-0.51,0.5-1.12,0.75-1.84,0.74c-0.71-0.01-1.32-0.27-1.83-0.78c-0.5-0.52-0.75-1.13-0.75-1.84c0.01-0.72,0.27-1.33,0.78-1.82
			S362.65,190.82,363.37,190.83z"/>
		<path class="st2" d="M363.92,237.44l-2.81-1.31l0.2-0.86l1.91,0.53l0.41-0.16c0.18-0.24,0.34-0.5,0.47-0.77
			c0.13-0.27,0.23-0.55,0.3-0.84c0.21-0.88,0.13-1.67-0.24-2.37c-0.37-0.7-0.92-1.14-1.66-1.31c-0.91-0.21-1.91,0.39-3,1.8
			l-0.14,0.18c-0.8,1.01-1.48,1.66-2.06,1.96c-0.58,0.29-1.22,0.36-1.93,0.19c-1.21-0.28-2.09-1.01-2.65-2.18
			c-0.56-1.17-0.66-2.53-0.3-4.07c0.15-0.65,0.37-1.26,0.67-1.83c0.29-0.56,0.65-1.08,1.07-1.55l2.94,1.37l-0.24,1.02l-2.19-0.72
			l-0.3,0.14c-0.28,0.34-0.5,0.67-0.68,1c-0.17,0.33-0.3,0.68-0.38,1.02c-0.24,1.01-0.16,1.88,0.21,2.6c0.38,0.73,1,1.19,1.86,1.39
			c0.76,0.18,1.6-0.28,2.5-1.36c0.09-0.12,0.16-0.21,0.21-0.26c1.02-1.2,1.8-1.96,2.37-2.26c0.57-0.31,1.16-0.39,1.79-0.24
			c1.2,0.28,2.08,0.96,2.65,2.04c0.57,1.08,0.69,2.32,0.36,3.74c-0.13,0.57-0.31,1.12-0.53,1.64
			C364.49,236.48,364.23,236.97,363.92,237.44z"/>
		<path class="st2" d="M363.09,246.15l-0.19,0.59c-0.39-0.25-0.83-0.52-1.34-0.82c-0.51-0.3-1.1-0.64-1.79-1.02l-3.06-1.66
			c0.37,0.96,0.61,1.78,0.71,2.47c0.11,0.69,0.08,1.28-0.07,1.76c-0.16,0.49-0.42,0.84-0.78,1.04c-0.37,0.2-0.78,0.23-1.25,0.08
			c-0.18-0.06-0.38-0.14-0.62-0.26s-0.57-0.3-1.01-0.56l-2.74-1.6c-0.3-0.18-0.54-0.31-0.71-0.4c-0.18-0.09-0.33-0.15-0.47-0.2
			c-0.3-0.1-0.56-0.09-0.78,0.03c-0.22,0.11-0.38,0.33-0.48,0.65c-0.04,0.13-0.08,0.29-0.11,0.48s-0.05,0.4-0.06,0.64l-0.51-0.16
			c-0.04-0.55-0.04-1.03-0.02-1.45c0.03-0.42,0.08-0.76,0.16-1.02c0.15-0.48,0.36-0.8,0.61-0.96c0.26-0.16,0.59-0.18,0.99-0.05
			c0.14,0.04,0.29,0.1,0.45,0.18c0.16,0.08,0.33,0.17,0.51,0.27l3.27,1.94c0.23,0.14,0.45,0.27,0.65,0.37
			c0.2,0.1,0.37,0.17,0.5,0.22c0.42,0.13,0.76,0.15,1.01,0.04c0.25-0.1,0.43-0.33,0.54-0.69c0.11-0.34,0.1-0.8-0.01-1.38
			c-0.12-0.58-0.33-1.23-0.65-1.94l-6.08-3.24l0.52-1.62l11.94,6.68l0.73-1.75l0.47,0.15L363.09,246.15z"/>
		<path class="st2" d="M352.01,261.54l-0.39,0.96c-0.16-0.18-0.44-0.42-0.84-0.72s-0.91-0.66-1.52-1.07l-3-2
			c-0.26-0.18-0.5-0.33-0.71-0.45c-0.21-0.12-0.38-0.21-0.52-0.27c-0.29-0.12-0.54-0.13-0.74-0.02c-0.2,0.1-0.38,0.33-0.52,0.68
			c-0.03,0.07-0.06,0.17-0.09,0.31c-0.03,0.13-0.08,0.4-0.14,0.8l-0.56-0.23c0-0.61,0.02-1.12,0.07-1.54
			c0.05-0.42,0.12-0.75,0.22-0.99c0.16-0.39,0.39-0.62,0.69-0.71c0.3-0.09,0.7-0.04,1.17,0.16l0.15,0.06
			c-0.33-0.72-0.52-1.35-0.59-1.91c-0.07-0.56-0.01-1.05,0.17-1.49c0.32-0.79,0.86-1.29,1.62-1.52c0.76-0.22,1.64-0.12,2.66,0.29
			c0.61,0.25,1.17,0.57,1.67,0.96c0.51,0.39,0.96,0.86,1.36,1.4c0.59,0.8,0.94,1.65,1.05,2.55c0.12,0.91-0.01,1.81-0.38,2.71
			c-0.11,0.27-0.26,0.53-0.45,0.79s-0.4,0.49-0.65,0.72L352.01,261.54z M352,259.52l0.1-0.25c0.45-1.1,0.35-2.19-0.31-3.28
			c-0.65-1.09-1.71-1.94-3.17-2.53c-0.74-0.3-1.35-0.4-1.83-0.28c-0.48,0.12-0.83,0.44-1.05,0.98c-0.14,0.35-0.19,0.75-0.13,1.19
			c0.06,0.45,0.21,0.95,0.46,1.5l4.49,2.96L352,259.52z"/>
		<path class="st2" d="M348.2,269.77l-0.18,0.36l-2.17-1.78c0.51,0.94,0.84,1.79,0.99,2.56c0.15,0.77,0.11,1.38-0.12,1.84
			c-0.15,0.3-0.36,0.5-0.62,0.6c-0.26,0.1-0.53,0.08-0.81-0.06c-0.35-0.17-0.58-0.42-0.68-0.75s-0.07-0.67,0.11-1.03l0.06-0.12
			l1.2,0c0.08-0.95-0.02-1.74-0.31-2.37c-0.29-0.63-0.85-1.26-1.69-1.88l-3.84-2.82l0.74-1.5l6.6,5.12l0.99-1.34l0.46,0.23
			L348.2,269.77z"/>
		<path class="st2" d="M342.92,279.68l-0.26,0.45l-5.78-4.94c-0.1-0.08-0.17-0.15-0.24-0.2s-0.12-0.09-0.17-0.11
			c-0.22-0.13-0.43-0.15-0.63-0.07c-0.2,0.08-0.37,0.25-0.53,0.53c-0.09,0.16-0.17,0.36-0.25,0.59c-0.08,0.24-0.15,0.52-0.21,0.84
			l-0.54-0.31c0.08-0.59,0.18-1.13,0.31-1.59c0.13-0.47,0.29-0.87,0.48-1.2c0.21-0.37,0.46-0.59,0.76-0.67
			c0.3-0.08,0.64-0.01,1.02,0.21c0.11,0.06,0.23,0.14,0.37,0.25c0.14,0.11,0.3,0.23,0.46,0.37l4.61,3.97l1.05-1.26l0.46,0.26
			L342.92,279.68z M346.58,282.23c-0.14,0.25-0.36,0.41-0.65,0.49c-0.29,0.08-0.57,0.05-0.82-0.1c-0.25-0.15-0.42-0.36-0.5-0.65
			s-0.05-0.56,0.1-0.81c0.15-0.27,0.37-0.44,0.65-0.52c0.28-0.08,0.55-0.04,0.82,0.11c0.26,0.15,0.43,0.37,0.51,0.66
			C346.76,281.69,346.73,281.97,346.58,282.23z"/>
		<path class="st2" d="M338.28,287.31l-0.27,0.42l-1.4-1.36c0.09,1.06,0.09,1.93,0,2.62c-0.09,0.69-0.27,1.25-0.54,1.67
			c-0.29,0.43-0.63,0.7-1.04,0.79c-0.4,0.09-0.81,0-1.23-0.27c-0.15-0.1-0.32-0.23-0.5-0.39c-0.18-0.16-0.46-0.43-0.83-0.81
			l-2.21-2.28c-0.04-0.03-0.08-0.08-0.14-0.14c-0.41-0.41-0.7-0.67-0.85-0.77c-0.26-0.17-0.51-0.23-0.75-0.17
			c-0.24,0.06-0.45,0.22-0.63,0.5c-0.08,0.11-0.15,0.25-0.23,0.42c-0.07,0.17-0.15,0.36-0.23,0.59l-0.47-0.3
			c0.12-0.55,0.25-1.01,0.39-1.4c0.14-0.39,0.29-0.7,0.44-0.93c0.27-0.41,0.55-0.66,0.85-0.75s0.62-0.03,0.96,0.19
			c0.1,0.07,0.22,0.16,0.36,0.29c0.13,0.12,0.29,0.27,0.45,0.44l2.61,2.76c0.17,0.19,0.34,0.35,0.51,0.49
			c0.17,0.14,0.32,0.26,0.46,0.36c0.37,0.24,0.68,0.35,0.94,0.32s0.49-0.21,0.7-0.52c0.21-0.31,0.33-0.76,0.38-1.35
			c0.05-0.59,0.01-1.26-0.11-2.02l-4.96-4.76l0.94-1.42l5.92,5.9l1.15-1.21l0.42,0.28L338.28,287.31z"/>
		<path class="st2" d="M327.67,301.27l-1.76,2.26l-0.68-0.53l1.26-1.62c-0.22-0.07-0.44-0.16-0.64-0.26s-0.39-0.22-0.56-0.35
			c-0.84-0.66-1.32-1.5-1.43-2.54c-0.11-1.04,0.16-1.97,0.81-2.81c0.04-0.06,0.09-0.11,0.14-0.17c0.05-0.06,0.1-0.12,0.16-0.18
			c-0.08-0.17-0.18-0.33-0.29-0.47c-0.11-0.14-0.24-0.27-0.4-0.39l-0.09-0.07l-3.09,1.62c-0.51,0.27-0.98,0.4-1.39,0.41
			c-0.42,0-0.79-0.13-1.12-0.39c-0.62-0.48-0.88-1.29-0.77-2.4c0.11-1.12,0.57-2.19,1.37-3.23c0.71-0.91,1.47-1.49,2.26-1.74
			c0.8-0.24,1.52-0.11,2.16,0.39c0.48,0.38,0.77,0.86,0.86,1.46c0.09,0.59-0.01,1.38-0.3,2.35c0.04,0.02,0.07,0.04,0.11,0.07
			c0.04,0.03,0.09,0.07,0.17,0.12c0.26,0.2,0.47,0.45,0.63,0.74c0.17,0.29,0.3,0.65,0.41,1.09c0.55-0.32,1.09-0.48,1.61-0.48
			c0.53,0.01,1,0.18,1.43,0.51c0.86,0.67,1.35,1.53,1.48,2.59c0.13,1.06-0.15,2.02-0.82,2.88c-0.18,0.24-0.4,0.45-0.65,0.64
			C328.3,300.94,328,301.11,327.67,301.27z M323.41,292.94c0.26-0.57,0.35-1.08,0.28-1.53c-0.07-0.45-0.31-0.83-0.71-1.15
			c-0.51-0.4-1.08-0.52-1.72-0.38c-0.64,0.14-1.2,0.53-1.69,1.15c-0.5,0.64-0.78,1.27-0.84,1.89c-0.06,0.62,0.11,1.08,0.49,1.38
			c0.21,0.16,0.45,0.23,0.73,0.22c0.28-0.01,0.6-0.12,0.97-0.31L323.41,292.94z M326.36,299.6c0.46,0.36,0.89,0.54,1.28,0.55
			c0.39,0.01,0.72-0.16,0.99-0.51c0.37-0.48,0.44-1.1,0.2-1.88c-0.24-0.77-0.72-1.44-1.43-2c-0.42-0.32-0.81-0.48-1.19-0.48
			s-0.7,0.17-0.95,0.5c-0.37,0.48-0.45,1.1-0.24,1.87C325.22,298.41,325.67,299.07,326.36,299.6z"/>
		<path class="st2" d="M311.67,324.26l-1.8-2.68l0.75-0.74l1.27,1.38l0.43,0.17c0.36-0.11,0.68-0.26,0.98-0.43
			c0.3-0.18,0.57-0.38,0.81-0.62c0.47-0.46,0.84-0.99,1.13-1.6c0.28-0.61,0.45-1.26,0.51-1.96c0.1-1.09-0.07-2.18-0.51-3.28
			c-0.44-1.1-1.11-2.1-2.01-3.02c-0.89-0.91-1.88-1.39-2.96-1.44c-1.08-0.05-2.05,0.34-2.9,1.17c-0.19,0.18-0.39,0.41-0.6,0.69
			c-0.22,0.27-0.45,0.6-0.71,0.98l2.45,3.58l0.33,0.06l1.01-0.84l0.54,0.55l-3.51,3.45l-0.54-0.55l0.84-0.97l0.04-0.42l-2.71-4.1
			c0.42-0.73,0.84-1.39,1.27-1.98c0.42-0.59,0.84-1.08,1.25-1.48c1.18-1.15,2.48-1.72,3.9-1.69c1.42,0.03,2.72,0.64,3.9,1.84
			c0.91,0.92,1.56,2,1.96,3.22c0.4,1.22,0.52,2.47,0.34,3.77c-0.13,0.94-0.4,1.82-0.82,2.64c-0.42,0.82-0.96,1.56-1.63,2.23
			c-0.48,0.47-0.98,0.89-1.49,1.24C312.67,323.77,312.17,324.05,311.67,324.26z"/>
		<path class="st2" d="M302.09,327.91c-0.81,0.67-1.67,0.93-2.59,0.77s-1.76-0.69-2.53-1.62c-0.5-0.61-0.88-1.28-1.14-2.03
			c-0.26-0.75-0.38-1.52-0.36-2.32c0.02-0.71,0.17-1.36,0.46-1.94c0.29-0.59,0.7-1.1,1.23-1.54c0.8-0.66,1.65-0.92,2.57-0.78
			c0.91,0.14,1.74,0.65,2.47,1.55c0.51,0.62,0.9,1.31,1.18,2.09c0.27,0.77,0.4,1.54,0.38,2.3c-0.02,0.73-0.18,1.39-0.46,1.99
			C303.01,326.97,302.61,327.48,302.09,327.91z M301.79,327.15c0.69-0.57,0.95-1.44,0.78-2.61c-0.17-1.17-0.73-2.33-1.68-3.49
			c-0.6-0.73-1.2-1.18-1.79-1.36c-0.59-0.18-1.12-0.07-1.59,0.32c-0.68,0.56-0.94,1.43-0.78,2.6s0.71,2.33,1.64,3.45
			c0.61,0.74,1.22,1.21,1.81,1.4C300.77,327.65,301.31,327.54,301.79,327.15z"/>
		<path class="st2" d="M291.21,342.36l-0.42,0.3l-5.16-11.02c-0.09-0.2-0.18-0.38-0.28-0.54c-0.09-0.16-0.17-0.3-0.25-0.41
			c-0.16-0.23-0.35-0.37-0.54-0.39s-0.42,0.04-0.66,0.22c-0.09,0.07-0.22,0.18-0.37,0.33c-0.15,0.15-0.34,0.35-0.56,0.6l-0.34-0.49
			c0.32-0.46,0.62-0.84,0.91-1.16c0.29-0.32,0.54-0.56,0.77-0.73c0.38-0.27,0.72-0.37,1.03-0.31c0.31,0.06,0.6,0.29,0.88,0.69
			c0.06,0.09,0.11,0.15,0.14,0.2c0.03,0.05,0.06,0.09,0.08,0.14c0.04-0.78,0.19-1.45,0.44-2.01c0.25-0.56,0.6-1,1.04-1.31
			c0.67-0.47,1.37-0.58,2.11-0.33c0.75,0.25,1.44,0.83,2.09,1.74c0.39,0.55,0.69,1.13,0.91,1.72c0.22,0.6,0.34,1.2,0.38,1.8
			c0.05,0.98-0.12,1.9-0.51,2.77c-0.38,0.86-0.92,1.54-1.62,2.03c-0.23,0.16-0.47,0.3-0.72,0.41c-0.24,0.1-0.5,0.19-0.78,0.25
			l1.73,3.67l1.56-0.85l0.32,0.45L291.21,342.36z M290.49,335.72c0.04-0.02,0.11-0.06,0.21-0.1c0.1-0.05,0.17-0.09,0.22-0.12
			c0.81-0.57,1.22-1.51,1.21-2.82c0-1.3-0.45-2.59-1.34-3.85c-0.44-0.63-0.91-1.03-1.42-1.21c-0.5-0.18-0.97-0.12-1.41,0.19
			c-0.32,0.23-0.57,0.59-0.76,1.08c-0.19,0.5-0.31,1.09-0.35,1.78l2.2,4.68L290.49,335.72z"/>
		<path class="st2" d="M282.77,340.76l0.74-0.46c-0.28,0.99-0.43,1.82-0.45,2.5c-0.01,0.68,0.11,1.22,0.37,1.64l0.04,0.07l1.09-0.68
			c0.09,0.04,0.17,0.1,0.23,0.16c0.06,0.06,0.12,0.13,0.17,0.21c0.19,0.31,0.24,0.65,0.15,1.03c-0.1,0.38-0.31,0.67-0.64,0.88
			c-0.33,0.21-0.66,0.27-0.98,0.19c-0.32-0.08-0.59-0.29-0.8-0.64c-0.34-0.54-0.5-1.23-0.48-2.06S282.4,341.81,282.77,340.76z"/>
		<path class="st2" d="M272.98,344.78l1.29,0.6c0.12,0.02,0.23,0.01,0.34-0.01s0.21-0.06,0.31-0.12c0.35-0.2,0.58-0.47,0.69-0.82
			c0.11-0.35,0.07-0.69-0.12-1.03c-0.23-0.42-0.95-0.71-2.17-0.9l-0.05-0.01c-0.07-0.01-0.19-0.03-0.34-0.05
			c-1.44-0.21-2.34-0.64-2.7-1.29c-0.43-0.78-0.49-1.59-0.17-2.43c0.32-0.84,0.94-1.52,1.88-2.03c0.72-0.4,1.36-0.57,1.93-0.53
			c0.57,0.04,0.99,0.3,1.25,0.78c0.15,0.27,0.18,0.53,0.11,0.78c-0.08,0.25-0.25,0.46-0.53,0.61c-0.11,0.06-0.24,0.1-0.39,0.12
			c-0.15,0.02-0.33,0.01-0.54-0.02l-0.17-1.05c-0.25-0.12-0.51-0.18-0.78-0.16c-0.27,0.01-0.54,0.1-0.81,0.24
			c-0.5,0.28-0.82,0.63-0.96,1.05c-0.13,0.42-0.08,0.86,0.18,1.32c0.14,0.26,0.35,0.46,0.63,0.6c0.28,0.14,0.77,0.26,1.48,0.36
			l0.11,0.02c1.49,0.21,2.42,0.63,2.77,1.27c0.4,0.72,0.45,1.51,0.15,2.35c-0.3,0.84-0.87,1.5-1.7,1.96
			c-0.48,0.27-0.93,0.38-1.35,0.35c-0.41-0.04-0.71-0.21-0.89-0.53c-0.14-0.26-0.17-0.51-0.07-0.77
			C272.47,345.19,272.67,344.97,272.98,344.78z"/>
		<path class="st2" d="M261.45,357.1l-4.5,1.85l-0.29-0.71l1.16-0.58l0.18-0.4l-2.27-11.33l-3.92,1.61l-0.21,0.44l0.2,2.52
			l-0.89,0.37l-0.73-3.64l8.25-3.38l0.29,0.7l-1.15,0.58l-0.17,0.4l2.22,11.08l0.31,0.2l1.24-0.4L261.45,357.1z"/>
		<path class="st2" d="M243.97,359.62c-1,0.32-1.9,0.25-2.7-0.23c-0.8-0.48-1.38-1.29-1.76-2.44c-0.24-0.75-0.35-1.52-0.31-2.31
			c0.04-0.79,0.21-1.55,0.52-2.29c0.28-0.65,0.66-1.2,1.14-1.64c0.48-0.44,1.05-0.77,1.71-0.98c0.98-0.32,1.88-0.25,2.67,0.22
			c0.8,0.46,1.38,1.25,1.73,2.35c0.25,0.76,0.35,1.55,0.32,2.37c-0.03,0.82-0.2,1.58-0.5,2.28c-0.29,0.67-0.68,1.23-1.16,1.68
			C245.17,359.09,244.61,359.42,243.97,359.62z M243.97,358.8c0.85-0.27,1.41-0.99,1.68-2.14c0.27-1.15,0.18-2.44-0.28-3.86
			c-0.29-0.9-0.68-1.54-1.16-1.92c-0.48-0.38-1.02-0.48-1.6-0.29c-0.84,0.27-1.4,0.98-1.68,2.13c-0.28,1.15-0.2,2.42,0.25,3.81
			c0.3,0.92,0.69,1.57,1.17,1.97C242.84,358.89,243.38,358.99,243.97,358.8z"/>
		<path class="st2" d="M234.77,362.34l-0.05,0.01c-0.47,0.12-0.85,0.06-1.13-0.18c-0.28-0.23-0.57-0.8-0.89-1.69l-1.81-5.2
			c-0.52,1.15-0.93,2.18-1.23,3.09c-0.3,0.91-0.49,1.72-0.58,2.43l0.95,2.28c-0.13,0.17-0.26,0.31-0.41,0.41
			c-0.15,0.1-0.3,0.17-0.46,0.21c-0.33,0.08-0.61,0.05-0.83-0.1c-0.23-0.15-0.39-0.4-0.47-0.75c-0.18-0.71,0.02-1.91,0.59-3.58
			c0.57-1.68,1.47-3.68,2.69-6.01l0.94-0.23c-0.05,0.19-0.08,0.4-0.07,0.63c0.01,0.22,0.04,0.46,0.1,0.7
			c0.02,0.09,0.05,0.18,0.08,0.27c0.03,0.09,0.07,0.23,0.13,0.42l1.6,4.42c0.18,0.47,0.34,0.83,0.5,1.07
			c0.16,0.24,0.32,0.38,0.5,0.44l1.52-0.25l0.12,0.49L234.77,362.34z"/>
		<path class="st2" d="M221.6,359.92c0-0.14,0-0.29-0.02-0.44c-0.02-0.16-0.04-0.32-0.07-0.48c-0.14-0.79-0.43-1.38-0.87-1.78
			c-0.44-0.4-0.99-0.54-1.62-0.43c-0.46,0.08-0.94,0.31-1.43,0.67c-0.49,0.37-0.97,0.87-1.45,1.49l-0.16-0.92
			c0.51-0.69,1.06-1.24,1.65-1.65c0.59-0.41,1.21-0.67,1.88-0.79c0.94-0.16,1.72,0.02,2.35,0.56c0.63,0.54,1.05,1.37,1.24,2.5
			c0.14,0.83,0.13,1.66-0.04,2.5c-0.17,0.84-0.48,1.6-0.93,2.27c-0.4,0.58-0.86,1.06-1.4,1.46c-0.54,0.39-1.06,0.63-1.58,0.72
			c-0.62,0.11-1.15,0.02-1.57-0.27c-0.43-0.29-0.69-0.73-0.79-1.33c-0.15-0.87,0.2-1.67,1.05-2.4S219.94,360.32,221.6,359.92z
			 M221.63,360.6c-1.14,0.26-2.02,0.7-2.65,1.31c-0.63,0.61-0.89,1.25-0.77,1.93c0.05,0.3,0.2,0.54,0.43,0.7
			c0.23,0.17,0.49,0.23,0.78,0.18c0.6-0.1,1.1-0.52,1.5-1.26C221.32,362.73,221.56,361.78,221.63,360.6z"/>
		<path class="st2" d="M202,367.73l-0.69-0.01l-0.74-7.86l-0.16,0.33c-1.54,3.21-2.62,5.62-3.23,7.23l-1.19,0.18
			c-0.07-0.92-0.18-2.04-0.32-3.34c-0.14-1.3-0.31-2.79-0.51-4.47c-0.86,1.25-1.54,2.32-2.03,3.2c-0.49,0.88-0.82,1.65-1.01,2.3
			l0.49,2.32c-0.12,0.16-0.26,0.28-0.43,0.36c-0.17,0.08-0.36,0.13-0.58,0.13c-0.33,0.01-0.58-0.08-0.77-0.27s-0.29-0.47-0.31-0.83
			c-0.02-0.64,0.31-1.59,0.99-2.85s1.96-3.22,3.82-5.87l1.16-0.04l0.75,6.96c0.26-0.64,0.7-1.57,1.31-2.8
			c0.61-1.23,1.36-2.67,2.23-4.33l1.31-0.05l-0.15,0.45l0.84,7.89l1.49,0.12l0.02,0.49L202,367.73z"/>
		<path class="st2" d="M182.59,372.25c-0.29-0.01-0.53-0.13-0.74-0.35s-0.3-0.48-0.29-0.77c0.01-0.29,0.13-0.54,0.35-0.74
			c0.22-0.2,0.48-0.3,0.77-0.29c0.31,0.01,0.56,0.12,0.76,0.34c0.2,0.21,0.3,0.47,0.28,0.78c-0.01,0.3-0.13,0.55-0.35,0.75
			S182.89,372.26,182.59,372.25z M183.16,367.83l-0.52-0.02l1.71-7.41c0.03-0.12,0.05-0.22,0.06-0.3c0.01-0.08,0.02-0.15,0.02-0.2
			c0.01-0.25-0.06-0.45-0.22-0.59c-0.16-0.14-0.4-0.21-0.71-0.23c-0.18-0.01-0.4,0.01-0.64,0.05c-0.25,0.04-0.53,0.1-0.84,0.2
			l0.02-0.62c0.56-0.21,1.08-0.36,1.56-0.46c0.48-0.1,0.91-0.14,1.29-0.13c0.42,0.02,0.74,0.14,0.94,0.36c0.21,0.23,0.3,0.56,0.29,1
			c0,0.12-0.02,0.27-0.05,0.45s-0.07,0.37-0.12,0.58l-1.39,5.92l1.6,0.35l-0.02,0.53L183.16,367.83z"/>
		<path class="st2" d="M174.43,369.2l-0.91-0.08l0.62-2.24l-2.87-0.26l0.08-0.86l3.02,0.27l1.52-5.23c0.01-0.04,0.03-0.11,0.05-0.18
			c0.09-0.33,0.14-0.56,0.15-0.68c0.04-0.4-0.04-0.72-0.23-0.95c-0.19-0.23-0.48-0.36-0.88-0.4c-0.22-0.02-0.49-0.01-0.81,0.03
			c-0.32,0.04-0.69,0.1-1.12,0.2l0.06-0.63c0.7-0.23,1.31-0.4,1.84-0.5c0.53-0.1,0.96-0.13,1.31-0.1c0.56,0.05,0.97,0.24,1.22,0.56
			c0.25,0.32,0.34,0.79,0.29,1.4c-0.02,0.19-0.05,0.4-0.09,0.62c-0.05,0.23-0.11,0.46-0.18,0.69l-1.57,5.3l1.24,0.01l-0.05,0.59
			l-1.52,0.51L174.43,369.2z"/>
		<path class="st2" d="M162.86,370.94l-0.61-0.1c0.18-0.42,0.39-0.9,0.61-1.45c0.22-0.55,0.46-1.19,0.74-1.92l1.19-3.27
			c-0.89,0.51-1.67,0.87-2.34,1.08s-1.25,0.27-1.75,0.19c-0.51-0.08-0.89-0.29-1.14-0.62c-0.25-0.33-0.34-0.74-0.26-1.23
			c0.03-0.19,0.08-0.4,0.16-0.65c0.08-0.25,0.21-0.61,0.4-1.08l1.17-2.95c0.13-0.32,0.23-0.58,0.29-0.77s0.1-0.35,0.12-0.49
			c0.05-0.32,0-0.57-0.15-0.77c-0.15-0.2-0.38-0.32-0.71-0.38c-0.14-0.02-0.3-0.03-0.49-0.03c-0.19,0-0.4,0.01-0.64,0.03l0.08-0.53
			c0.53-0.12,1.01-0.2,1.43-0.24c0.42-0.04,0.77-0.04,1.04,0.01c0.5,0.08,0.84,0.23,1.04,0.46s0.27,0.55,0.2,0.97
			c-0.02,0.14-0.06,0.3-0.11,0.47s-0.11,0.36-0.19,0.55l-1.43,3.52c-0.11,0.25-0.2,0.49-0.27,0.7c-0.07,0.21-0.12,0.39-0.14,0.53
			c-0.07,0.44-0.03,0.77,0.11,1c0.14,0.23,0.39,0.38,0.76,0.43c0.35,0.06,0.81-0.02,1.36-0.22s1.16-0.51,1.82-0.94l2.29-6.5
			l1.68,0.27l-4.82,12.8l1.84,0.46l-0.08,0.49L162.86,370.94z"/>
		<path class="st2" d="M141.89,363.19l-0.88-0.25l1.02-2.09l-2.77-0.78l0.23-0.83l2.92,0.82l2.45-4.86c0.02-0.04,0.04-0.1,0.08-0.17
			c0.15-0.31,0.24-0.53,0.27-0.64c0.11-0.39,0.09-0.71-0.05-0.97s-0.41-0.44-0.79-0.55c-0.21-0.06-0.48-0.1-0.8-0.12
			c-0.32-0.02-0.7-0.02-1.14-0.01l0.17-0.61c0.73-0.1,1.36-0.15,1.9-0.15c0.54,0,0.97,0.04,1.31,0.14c0.54,0.15,0.91,0.41,1.09,0.77
			c0.19,0.36,0.2,0.84,0.03,1.43c-0.05,0.18-0.12,0.38-0.21,0.6c-0.09,0.22-0.19,0.43-0.31,0.65l-2.51,4.92l1.22,0.24l-0.16,0.57
			l-1.58,0.22L141.89,363.19z"/>
		<path class="st2" d="M130.19,362.79l-0.58-0.21c0.26-0.38,0.55-0.81,0.86-1.31c0.32-0.5,0.68-1.08,1.08-1.75l1.76-3
			c-0.97,0.34-1.8,0.55-2.49,0.63c-0.69,0.08-1.28,0.04-1.76-0.13c-0.48-0.17-0.82-0.45-1.01-0.82c-0.19-0.37-0.2-0.79-0.03-1.26
			c0.06-0.18,0.16-0.38,0.28-0.61c0.12-0.23,0.32-0.56,0.59-0.99l1.7-2.68c0.19-0.29,0.33-0.53,0.42-0.7s0.16-0.33,0.21-0.46
			c0.11-0.3,0.11-0.56,0-0.78c-0.11-0.22-0.32-0.39-0.63-0.5c-0.13-0.05-0.29-0.09-0.47-0.12c-0.19-0.04-0.4-0.06-0.63-0.09
			l0.18-0.51c0.55-0.02,1.03-0.01,1.45,0.03c0.42,0.04,0.76,0.11,1.02,0.2c0.47,0.17,0.79,0.38,0.94,0.65
			c0.16,0.26,0.16,0.59,0.02,0.99c-0.05,0.14-0.11,0.28-0.19,0.44c-0.08,0.16-0.18,0.33-0.29,0.5l-2.05,3.2
			c-0.15,0.23-0.28,0.44-0.39,0.64c-0.11,0.2-0.19,0.36-0.24,0.5c-0.15,0.42-0.17,0.75-0.08,1c0.1,0.25,0.32,0.44,0.67,0.57
			c0.34,0.12,0.8,0.13,1.38,0.04c0.58-0.1,1.24-0.29,1.96-0.59l3.45-5.97l1.6,0.57l-7.09,11.7l1.72,0.79l-0.17,0.47L130.19,362.79z"
			/>
		<path class="st2" d="M122.89,348.94c0.08-0.11,0.15-0.24,0.23-0.38c0.07-0.14,0.14-0.29,0.21-0.44c0.32-0.73,0.41-1.39,0.26-1.96
			c-0.15-0.58-0.52-0.99-1.11-1.26c-0.43-0.19-0.95-0.27-1.56-0.23c-0.61,0.03-1.29,0.18-2.03,0.44l0.38-0.86
			c0.81-0.29,1.57-0.44,2.29-0.46c0.72-0.01,1.38,0.12,2,0.39c0.87,0.39,1.42,0.98,1.64,1.78s0.11,1.72-0.36,2.77
			c-0.34,0.77-0.82,1.45-1.42,2.06c-0.61,0.61-1.29,1.06-2.04,1.37c-0.65,0.26-1.31,0.41-1.97,0.43c-0.67,0.03-1.24-0.06-1.71-0.27
			c-0.58-0.26-0.96-0.62-1.16-1.1c-0.2-0.48-0.17-0.99,0.08-1.55c0.36-0.81,1.09-1.28,2.21-1.41
			C119.93,348.13,121.29,348.36,122.89,348.94z M122.54,349.53c-1.09-0.41-2.07-0.54-2.93-0.39c-0.86,0.16-1.43,0.55-1.71,1.18
			c-0.12,0.28-0.14,0.55-0.03,0.82c0.1,0.27,0.29,0.46,0.55,0.58c0.56,0.25,1.21,0.18,1.95-0.21S121.83,350.46,122.54,349.53z"/>
		<path class="st2" d="M101,348.07l-4.18-2.49l0.39-0.65l1.17,0.58l0.43-0.09l7.7-8.61l-3.64-2.17l-0.47,0.09l-1.89,1.67l-0.83-0.5
			l2.47-2.77l7.66,4.57l-0.39,0.65l-1.15-0.57l-0.42,0.1l-7.53,8.43l0.02,0.37l1.07,0.75L101,348.07z"/>
		<path class="st2" d="M94.35,333.32c0.1-0.1,0.2-0.21,0.3-0.33c0.1-0.12,0.19-0.25,0.29-0.39c0.46-0.66,0.67-1.28,0.63-1.88
			c-0.04-0.59-0.32-1.08-0.85-1.44c-0.38-0.27-0.88-0.44-1.49-0.53c-0.61-0.08-1.3-0.07-2.08,0.04l0.54-0.77
			c0.85-0.13,1.62-0.14,2.33-0.01c0.71,0.12,1.34,0.38,1.89,0.76c0.78,0.54,1.2,1.23,1.27,2.06s-0.22,1.71-0.88,2.65
			c-0.48,0.69-1.08,1.27-1.79,1.75c-0.71,0.48-1.47,0.8-2.26,0.96c-0.69,0.13-1.36,0.15-2.02,0.05c-0.66-0.1-1.2-0.3-1.63-0.59
			c-0.52-0.36-0.83-0.8-0.93-1.3c-0.1-0.51,0.02-1.01,0.37-1.5c0.51-0.73,1.32-1.05,2.44-0.97
			C91.6,331.95,92.89,332.43,94.35,333.32z M93.89,333.82c-0.99-0.61-1.93-0.93-2.8-0.94c-0.88-0.01-1.51,0.26-1.91,0.83
			c-0.18,0.25-0.24,0.52-0.19,0.8c0.05,0.28,0.19,0.51,0.43,0.68c0.5,0.35,1.15,0.41,1.95,0.17S93.01,334.6,93.89,333.82z"/>
		<path class="st2" d="M77.14,326.82l-0.8-0.65c0.22-0.1,0.53-0.3,0.93-0.6c0.4-0.3,0.89-0.68,1.46-1.15l2.78-2.29
			c0.25-0.2,0.46-0.38,0.64-0.54c0.18-0.16,0.31-0.3,0.41-0.42c0.2-0.24,0.27-0.48,0.24-0.7c-0.04-0.22-0.21-0.46-0.5-0.69
			c-0.06-0.05-0.15-0.11-0.27-0.17c-0.12-0.07-0.36-0.19-0.72-0.37l0.38-0.47c0.58,0.17,1.07,0.34,1.46,0.51
			c0.39,0.17,0.68,0.33,0.88,0.5c0.32,0.26,0.49,0.55,0.48,0.87s-0.17,0.67-0.49,1.07l-0.1,0.13c0.78-0.1,1.45-0.11,2-0.01
			c0.55,0.1,1.01,0.29,1.38,0.59c0.66,0.54,0.99,1.2,0.98,1.99c-0.01,0.79-0.36,1.61-1.05,2.46c-0.41,0.51-0.88,0.95-1.41,1.32
			c-0.52,0.37-1.1,0.67-1.73,0.9c-0.93,0.33-1.85,0.42-2.75,0.27c-0.9-0.15-1.73-0.54-2.49-1.15c-0.23-0.18-0.44-0.4-0.63-0.65
			c-0.19-0.25-0.36-0.53-0.5-0.83L77.14,326.82z M79.09,327.39l0.21,0.17c0.92,0.75,2,0.97,3.23,0.66c1.23-0.31,2.35-1.08,3.34-2.3
			c0.51-0.62,0.77-1.18,0.8-1.67c0.03-0.49-0.18-0.92-0.63-1.29c-0.29-0.24-0.66-0.39-1.1-0.47c-0.44-0.07-0.97-0.07-1.57,0.01
			l-4.13,3.44L79.09,327.39z"/>
		<path class="st2" d="M70.61,317.92l-0.17,1.42c0.02,0.12,0.06,0.23,0.11,0.32c0.05,0.09,0.12,0.18,0.21,0.26
			c0.29,0.28,0.63,0.41,0.99,0.41c0.37-0.01,0.68-0.15,0.94-0.43c0.33-0.35,0.39-1.13,0.18-2.34l-0.01-0.05
			c-0.01-0.07-0.03-0.19-0.06-0.34c-0.24-1.44-0.11-2.43,0.39-2.96c0.61-0.65,1.36-0.96,2.26-0.91c0.89,0.04,1.73,0.43,2.51,1.16
			c0.6,0.56,0.97,1.12,1.1,1.68c0.13,0.56,0.02,1.03-0.35,1.43c-0.21,0.22-0.45,0.34-0.71,0.34c-0.27,0-0.52-0.1-0.74-0.31
			c-0.09-0.09-0.17-0.2-0.24-0.33c-0.06-0.13-0.11-0.31-0.15-0.52l0.95-0.48c0.04-0.27,0.01-0.54-0.09-0.8
			c-0.1-0.26-0.26-0.49-0.48-0.7c-0.42-0.39-0.85-0.59-1.29-0.59c-0.44,0-0.84,0.19-1.21,0.58c-0.2,0.22-0.33,0.48-0.37,0.79
			c-0.04,0.31-0.01,0.81,0.11,1.52l0.02,0.11c0.26,1.48,0.14,2.49-0.35,3.02c-0.56,0.6-1.29,0.89-2.19,0.87
			c-0.89-0.02-1.69-0.36-2.38-1.01c-0.4-0.38-0.65-0.77-0.75-1.17c-0.09-0.4-0.02-0.74,0.23-1.01c0.2-0.21,0.44-0.32,0.72-0.31
			C70.06,317.57,70.34,317.69,70.61,317.92z"/>
		<path class="st2" d="M61.6,314.84l-0.63-0.66l1.94-1.27l-1.99-2.09l0.62-0.59l2.1,2.2l4.59-2.93c0.04-0.03,0.09-0.06,0.15-0.11
			c0.29-0.19,0.47-0.33,0.56-0.41c0.29-0.28,0.44-0.57,0.45-0.86c0.01-0.3-0.12-0.59-0.4-0.88c-0.15-0.16-0.36-0.33-0.63-0.51
			c-0.27-0.18-0.59-0.38-0.97-0.59l0.46-0.44c0.68,0.29,1.25,0.57,1.71,0.84c0.46,0.27,0.81,0.53,1.05,0.79
			c0.39,0.41,0.57,0.82,0.55,1.23c-0.03,0.41-0.26,0.82-0.7,1.24c-0.14,0.13-0.3,0.27-0.48,0.41c-0.19,0.14-0.38,0.27-0.59,0.4
			l-4.67,2.96l0.93,0.83l-0.43,0.41l-1.48-0.62L61.6,314.84z"/>
		<path class="st2" d="M49.59,297.69c-0.63-0.84-0.85-1.71-0.66-2.62c0.19-0.91,0.77-1.73,1.73-2.46c0.63-0.48,1.32-0.82,2.08-1.05
			c0.76-0.22,1.54-0.31,2.33-0.26c0.71,0.05,1.35,0.23,1.92,0.54c0.57,0.31,1.07,0.74,1.49,1.3c0.62,0.83,0.85,1.69,0.67,2.6
			c-0.18,0.91-0.73,1.71-1.65,2.41c-0.64,0.48-1.35,0.84-2.14,1.08c-0.79,0.24-1.56,0.33-2.32,0.28c-0.73-0.05-1.38-0.24-1.97-0.55
			C50.49,298.65,50,298.23,49.59,297.69z M50.37,297.42c0.54,0.71,1.4,1.01,2.57,0.89c1.18-0.12,2.36-0.63,3.56-1.53
			c0.75-0.57,1.23-1.15,1.44-1.73c0.2-0.58,0.12-1.12-0.25-1.61c-0.53-0.7-1.39-1-2.57-0.89s-2.35,0.6-3.52,1.49
			c-0.77,0.58-1.26,1.17-1.47,1.75C49.91,296.38,49.99,296.93,50.37,297.42z"/>
		<path class="st2" d="M38.89,287.09l-0.21,2.11c0.42,0.18,1.03,0.18,1.84,0c0.81-0.18,1.83-0.54,3.03-1.07L42,285.77l0.75-0.5
			l1.65,2.49l5.18-2.47c1.02-0.49,1.89-0.83,2.6-1.02c0.72-0.19,1.4-0.28,2.04-0.26c0.9,0.03,1.65,0.16,2.27,0.4
			c0.62,0.23,1.06,0.55,1.34,0.97c0.18,0.27,0.24,0.54,0.19,0.81c-0.05,0.27-0.21,0.5-0.47,0.67c-0.13,0.09-0.27,0.14-0.43,0.15
			c-0.16,0.01-0.32-0.01-0.48-0.07l-0.7-2.03c-0.53-0.09-1.17-0.03-1.93,0.18c-0.76,0.21-1.94,0.7-3.54,1.45L45.21,289l0.86,1.04
			l-0.57,0.35l-1.35-0.92c-1.55,0.64-2.93,0.91-4.13,0.8c-1.2-0.11-2.07-0.57-2.61-1.38c-0.26-0.39-0.37-0.78-0.36-1.18
			c0.02-0.4,0.16-0.69,0.43-0.86c0.22-0.14,0.45-0.19,0.7-0.15C38.44,286.74,38.67,286.87,38.89,287.09z"/>
		<path class="st2" d="M31.76,276.82l-4.86-9.6l2.93-0.81l0.49,0.97l-1.7,0.77l-0.16,0.32l1.28,2.54l11.2-3.21l0.14-0.35l-0.49-1.22
			l0.68-0.34l2.21,4.36l-0.68,0.34l-0.68-1.09l-0.4-0.16l-11.17,3.26l1.27,2.52l0.42,0.17l1.95-0.28l0.5,0.98L31.76,276.82z"/>
		<path class="st2" d="M22.92,261.08l-0.23-0.57c0.45-0.06,0.97-0.14,1.55-0.23c0.58-0.1,1.25-0.22,2.02-0.36l3.41-0.68
			c-0.9-0.5-1.61-0.98-2.13-1.44c-0.52-0.46-0.88-0.93-1.07-1.4c-0.19-0.48-0.22-0.91-0.06-1.3c0.15-0.39,0.46-0.68,0.92-0.86
			c0.17-0.07,0.39-0.14,0.64-0.2c0.25-0.06,0.63-0.13,1.13-0.22l3.13-0.52c0.34-0.06,0.61-0.11,0.8-0.15
			c0.19-0.05,0.35-0.1,0.49-0.15c0.3-0.12,0.49-0.29,0.58-0.52c0.09-0.23,0.08-0.5-0.05-0.8c-0.05-0.13-0.13-0.27-0.23-0.44
			c-0.1-0.16-0.22-0.34-0.36-0.53l0.5-0.2c0.38,0.4,0.69,0.76,0.94,1.1c0.25,0.34,0.43,0.64,0.53,0.89
			c0.19,0.46,0.24,0.84,0.14,1.13c-0.09,0.29-0.33,0.52-0.73,0.67c-0.13,0.05-0.29,0.1-0.46,0.15c-0.18,0.05-0.37,0.09-0.57,0.12
			l-3.75,0.6c-0.27,0.04-0.52,0.09-0.74,0.14c-0.22,0.05-0.39,0.1-0.53,0.16c-0.41,0.17-0.68,0.37-0.8,0.61
			c-0.12,0.24-0.12,0.53,0.03,0.88c0.13,0.33,0.43,0.68,0.89,1.05c0.46,0.37,1.04,0.73,1.74,1.07l6.75-1.41l0.64,1.57l-13.45,2.51
			l0.56,1.81l-0.46,0.19L22.92,261.08z"/>
		<path class="st2" d="M28.37,246.4c0.14-0.02,0.28-0.05,0.43-0.08c0.15-0.04,0.31-0.08,0.47-0.14c0.76-0.25,1.31-0.62,1.64-1.11
			c0.33-0.5,0.39-1.05,0.2-1.66c-0.14-0.45-0.43-0.89-0.87-1.32c-0.43-0.43-0.99-0.84-1.68-1.22l0.89-0.29
			c0.75,0.41,1.38,0.87,1.86,1.4c0.49,0.53,0.83,1.11,1.04,1.75c0.29,0.9,0.22,1.71-0.23,2.41c-0.45,0.7-1.21,1.23-2.3,1.58
			c-0.8,0.26-1.63,0.36-2.49,0.31c-0.86-0.05-1.65-0.25-2.38-0.6c-0.63-0.31-1.17-0.7-1.64-1.18c-0.46-0.48-0.78-0.96-0.94-1.46
			c-0.19-0.6-0.18-1.13,0.05-1.6c0.23-0.46,0.63-0.79,1.2-0.97c0.84-0.27,1.69-0.04,2.53,0.7C27.01,243.65,27.74,244.81,28.37,246.4
			z M27.71,246.52c-0.42-1.09-0.98-1.9-1.67-2.44c-0.69-0.54-1.37-0.7-2.02-0.49c-0.29,0.09-0.5,0.27-0.64,0.52
			c-0.13,0.25-0.16,0.52-0.06,0.8c0.19,0.58,0.67,1.02,1.46,1.31C25.55,246.52,26.53,246.62,27.71,246.52z"/>
		<path class="st2" d="M21.48,233.15l-0.91,1.1c-0.04,0.11-0.07,0.22-0.08,0.33c-0.01,0.11,0,0.21,0.03,0.33
			c0.1,0.39,0.3,0.68,0.62,0.88c0.31,0.19,0.65,0.24,1.03,0.15c0.46-0.12,0.93-0.74,1.42-1.87l0.02-0.04
			c0.03-0.07,0.07-0.17,0.13-0.32c0.57-1.34,1.21-2.1,1.93-2.29c0.87-0.22,1.66-0.07,2.39,0.45c0.73,0.52,1.23,1.3,1.49,2.33
			c0.2,0.79,0.21,1.46,0.02,2c-0.19,0.54-0.54,0.88-1.07,1.01c-0.3,0.08-0.56,0.04-0.79-0.1c-0.23-0.14-0.38-0.36-0.46-0.67
			c-0.03-0.13-0.04-0.26-0.02-0.41c0.02-0.15,0.07-0.32,0.16-0.51l1.06,0.1c0.18-0.21,0.3-0.45,0.36-0.72
			c0.06-0.27,0.05-0.55-0.03-0.85c-0.14-0.56-0.4-0.95-0.77-1.19c-0.37-0.24-0.81-0.29-1.33-0.16c-0.29,0.07-0.54,0.23-0.74,0.46
			c-0.2,0.23-0.44,0.68-0.73,1.34l-0.04,0.1c-0.58,1.39-1.22,2.18-1.93,2.36c-0.8,0.2-1.57,0.05-2.31-0.45s-1.23-1.22-1.46-2.14
			c-0.14-0.54-0.13-1,0-1.39c0.14-0.39,0.38-0.63,0.74-0.72c0.29-0.07,0.54-0.03,0.77,0.13C21.2,232.55,21.37,232.8,21.48,233.15z"
			/>
		<path class="st2" d="M22.79,225.55c0.14,0,0.29-0.01,0.44-0.03c0.16-0.02,0.32-0.04,0.48-0.08c0.79-0.15,1.38-0.45,1.76-0.9
			c0.39-0.45,0.52-0.99,0.41-1.63c-0.09-0.46-0.32-0.93-0.7-1.42c-0.38-0.48-0.88-0.96-1.51-1.42l0.92-0.17
			c0.7,0.5,1.25,1.04,1.67,1.62c0.42,0.58,0.69,1.21,0.81,1.86c0.17,0.93,0,1.72-0.53,2.36s-1.36,1.06-2.48,1.28
			c-0.83,0.16-1.66,0.15-2.51-0.01c-0.84-0.16-1.61-0.46-2.29-0.9c-0.58-0.39-1.07-0.85-1.48-1.38c-0.4-0.53-0.65-1.05-0.75-1.56
			c-0.12-0.62-0.03-1.15,0.25-1.58c0.28-0.43,0.72-0.7,1.32-0.81c0.87-0.16,1.68,0.18,2.42,1.02
			C21.78,222.64,22.36,223.89,22.79,225.55z M22.11,225.59c-0.28-1.13-0.73-2.01-1.34-2.63c-0.62-0.62-1.26-0.87-1.94-0.74
			c-0.3,0.06-0.53,0.2-0.7,0.44c-0.16,0.24-0.22,0.5-0.17,0.79c0.11,0.6,0.54,1.1,1.28,1.48S20.93,225.53,22.11,225.59z"/>
		<path class="st2" d="M17.28,196.22c-0.72,0.01-1.33-0.24-1.84-0.75c-0.51-0.5-0.76-1.12-0.77-1.83c0-0.71,0.24-1.32,0.74-1.83
			s1.11-0.77,1.82-0.77c0.71-0.01,1.33,0.24,1.84,0.75c0.52,0.51,0.78,1.12,0.78,1.83c0.01,0.72-0.24,1.33-0.75,1.84
			C18.61,195.96,18,196.22,17.28,196.22z"/>
	</g>
	<g>
		<path class="st2" d="M191.88,383.79c-51.26,0-99.44-19.96-135.69-56.2S0,243.15,0,191.9c0-51.25,19.96-99.44,56.2-135.68
			s84.43-56.2,135.69-56.2c51.25,0,99.44,19.96,135.68,56.2s56.2,84.43,56.2,135.68c0,51.26-19.96,99.44-56.2,135.69
			S243.14,383.79,191.88,383.79z M191.88,0.51c-51.12,0-99.18,19.91-135.33,56.06C20.4,92.72,0.5,140.78,0.5,191.9
			s19.91,99.18,56.06,135.33c36.15,36.15,84.21,56.06,135.33,56.06s99.18-19.91,135.33-56.06c36.15-36.15,56.06-84.21,56.06-135.33
			s-19.91-99.18-56.06-135.33C291.07,20.42,243.01,0.51,191.88,0.51z"/>
	</g>
	<g>
		<path class="st2" d="M191.74,349.73c-42.1,0-81.68-16.39-111.44-46.16s-46.16-69.35-46.16-111.44s16.39-81.68,46.16-111.44
			s69.35-46.16,111.44-46.16s81.68,16.39,111.44,46.16s46.16,69.35,46.16,111.44s-16.39,81.68-46.16,111.44
			S233.84,349.73,191.74,349.73z M191.74,35.01c-41.96,0-81.42,16.34-111.09,46.02c-29.67,29.67-46.02,69.13-46.02,111.09
			s16.34,81.42,46.02,111.09c29.67,29.67,69.13,46.02,111.09,46.02s81.42-16.34,111.09-46.02c29.67-29.67,46.02-69.13,46.02-111.09
			S332.5,110.7,302.83,81.03C273.16,51.35,233.7,35.01,191.74,35.01z"/>
	</g>
	<g>
		<path class="st2" d="M76.71,147.89c0-1.46-0.08-6.42-0.12-7.12c-0.12-2.36-0.77-2.44-2.32-2.44h-1.3c-0.24,0-0.33-0.08-0.33-0.33
			v-0.94c0-0.24,0.08-0.37,0.33-0.37c0.57,0,2.52,0.16,5.94,0.12c1.3,0,3.74-0.12,5.94-0.12c3.09,0,5.69,0.28,7.16,1.1
			c2.28,1.22,3.09,3.09,3.09,5.53c0,3.25-1.71,5.21-5.53,6.63v0.2c4.64,1.22,7.32,3.66,7.32,7.97c0,2.2-1.22,5.12-3.17,6.18
			c-1.71,0.98-4.31,1.42-8.87,1.42c-1.63,0-4.31-0.12-5.94-0.12c-3.17,0-4.88,0.12-5.73,0.12c-0.16,0-0.28-0.12-0.28-0.33v-1.02
			c0-0.2,0.12-0.28,0.28-0.28h1.75c1.22,0,1.5-0.49,1.63-1.75c0.08-0.98,0.16-6.34,0.16-9.68V147.89z M81.68,149.6
			c0.65,0.04,1.22,0.04,1.87,0.04c1.79,0,3.42-0.45,4.31-1.18c1.54-1.22,2.11-3.01,2.11-4.8c0-1.55-0.49-3.17-1.79-4.15
			c-1.46-1.06-3.42-1.42-4.64-1.42c-0.41,0-0.89,0-1.22,0.08c-0.24,0.08-0.49,0.33-0.53,0.65c-0.04,0.77-0.12,4.27-0.12,7.69V149.6z
			 M81.68,159.03c0,3.82,0.89,5.41,3.5,5.41c3.17,0,6.1-1.5,6.1-6.47c0-3.33-1.63-5.45-3.9-6.34c-1.54-0.65-3.25-0.73-4.64-0.73
			h-1.06v2.52V159.03z"/>
		<path class="st2" d="M105.82,154.43c-0.33,0.94-2.32,6.75-2.52,7.85c-0.08,0.33-0.08,0.65-0.08,0.85c0,0.53,0.65,0.98,1.46,0.98
			h1.71c0.33,0,0.41,0.08,0.41,0.2v1.02c0,0.24-0.08,0.41-0.33,0.41c-0.57,0-2.28-0.12-5.12-0.12c-3.01,0-3.9,0.12-4.47,0.12
			c-0.24,0-0.24-0.24-0.24-0.53v-0.77c0-0.24,0.08-0.33,0.24-0.33h1.22c1.14,0,1.87-0.57,2.6-1.83c0.41-0.73,3.33-8.05,4.55-11.47
			c0.28-0.81,3.58-9.6,3.99-10.65c0.08-0.41,0.33-1.14,0.08-1.38c-0.12-0.12-0.24-0.37-0.24-0.49c0-0.16,0.08-0.33,0.41-0.41
			c1.3-0.33,3.54-1.55,4.03-2.03c0.24-0.24,0.41-0.41,0.61-0.41c0.24,0,0.41,0.49,0.49,0.73c0.73,2.52,3.9,11.63,4.64,14.23
			c0.98,3.17,3.58,10.74,4.15,11.83c0.73,1.38,1.79,1.87,2.6,1.87h1.3c0.24,0,0.33,0.08,0.33,0.28v0.85c0,0.24-0.08,0.49-0.41,0.49
			c-0.73,0-1.55-0.12-6.02-0.12c-3.42,0-4.8,0.12-5.69,0.12c-0.33,0-0.41-0.24-0.41-0.49v-0.81c0-0.24,0.08-0.33,0.33-0.33h1.06
			c1.14,0,1.46-0.41,1.22-1.5c-0.33-1.46-1.95-6.67-2.44-8.17H105.82z M114.85,152.81c-0.41-1.18-3.17-10.45-3.42-11.26
			c-0.16-0.49-0.24-0.73-0.41-0.73c-0.24,0-0.41,0.16-0.53,0.53c-0.16,0.53-3.82,10.53-4.11,11.47H114.85z"/>
		<path class="st2" d="M154.97,157.24c0.08,0.08,0.08,0.16,0.08,0.41c-0.16,0.24-1.79,6.99-2.03,8.09
			c-1.06-0.04-12.77-0.12-16.92-0.12c-3.66,0-5.12,0.12-5.61,0.12c-0.33,0-0.33-0.08-0.33-0.37v-0.94c0-0.24,0-0.33,0.24-0.33h1.63
			c1.46,0,1.71-0.57,1.71-1.1c0-0.73,0.16-10.9,0.16-13.34v-2.28c0-2.6-0.08-6.91-0.16-7.6c-0.08-1.06-0.24-1.46-1.3-1.46h-1.71
			c-0.24,0-0.33-0.24-0.33-0.37v-0.94c0-0.24,0.08-0.33,0.33-0.33c0.41,0,1.87,0.12,5.61,0.12c4.39,0,6.1-0.12,6.42-0.12
			c0.33,0,0.41,0.16,0.41,0.37v0.94c0,0.16-0.08,0.33-0.41,0.33h-2.2c-1.22,0-1.38,0.41-1.38,1.5c0,0.57-0.16,6.67-0.16,9.52v3.5
			c0,0.73,0,9.52,0.16,11.26h2.28c2.28,0,5.21,0,6.83-0.2c2.28-0.33,4.88-5.21,5.45-6.75c0.16-0.16,0.24-0.24,0.49-0.16
			L154.97,157.24z"/>
		<path class="st2" d="M183.23,152.44c0,0.41,0.08,9.76,0.08,10.21c0,1.3,0.65,1.46,1.63,1.46h1.71c0.16,0,0.33,0.08,0.33,0.28v1.02
			c0,0.24-0.16,0.33-0.41,0.33c-0.49,0-2.11-0.12-5.94-0.12c-4.07,0-5.86,0.12-6.26,0.12c-0.24,0-0.33-0.08-0.33-0.28v-1.1
			c0-0.16,0.08-0.24,0.33-0.24h1.63c0.81,0,1.71-0.08,1.87-1.18c0.08-0.57,0.16-9.35,0.16-11.55v-2.85c0-0.98-0.08-8.3-0.12-8.82
			c-0.12-0.98-0.53-1.38-1.67-1.38h-2.11c-0.24,0-0.33-0.08-0.33-0.28v-1.06c0-0.2,0.08-0.28,0.24-0.28c0.49,0,2.6,0.12,6.59,0.12
			c3.9,0,5.21-0.12,5.77-0.12c0.24,0,0.33,0.16,0.33,0.37v0.94c0,0.24-0.16,0.33-0.33,0.33h-1.55c-0.89,0-1.54,0.33-1.54,1.1
			c0,0.41-0.08,9.35-0.08,9.84V152.44z"/>
		<path class="st2" d="M219.02,150.9c0-1.22,0-11.3-0.08-11.47h-0.16c-0.33,0.57-5.45,12.44-5.94,13.5
			c-0.61,1.3-4.76,10.9-4.96,11.3c-0.16,0.33-0.49,0.89-0.89,0.89c-0.24,0-0.49-0.24-0.65-0.73c-0.16-0.24-5.45-12.93-5.69-13.58
			c-0.73-1.87-4.47-10.98-4.96-11.47c-0.16,0.57-0.2,10.82-0.2,11.3s-0.04,7.4,0.2,10.04c0.16,1.87,0.65,3.42,1.95,3.42h1.79
			c0.24,0,0.33,0.16,0.33,0.28v1.02c0,0.16-0.08,0.33-0.41,0.33c-0.41,0-1.54-0.12-4.64-0.12c-3.5,0-4.88,0.12-5.29,0.12
			c-0.33,0-0.33-0.08-0.33-0.37v-1.02c0-0.08,0-0.24,0.24-0.24h1.87c1.38,0,1.83-1.46,2.03-2.89c0.37-2.85,0.61-12.85,0.61-13.58
			v-6.95c0-1.46-0.2-2.36-1.99-2.36h-1.79c-0.24,0-0.33-0.16-0.33-0.28v-1.1c0-0.08,0.08-0.24,0.33-0.24c0.41,0,1.46,0.12,5.77,0.12
			c1.95,0,3.09-0.12,3.58-0.12c0.49,0,0.77,0.16,0.98,0.69c1.46,3.82,7.16,17.32,8.38,20.66c0.37-0.73,3.25-7.44,4.31-9.84
			c0.73-1.71,4.39-10.09,4.6-10.9c0.12-0.41,0.61-0.49,1.59-0.49c5.94,0.04,7.32-0.12,7.81-0.12c0.16,0,0.24,0.16,0.24,0.37v0.85
			c0,0.24-0.08,0.41-0.33,0.41h-1.79c-1.06,0-1.14,0.73-1.18,1.59c-0.04,0.89-0.04,9.03-0.04,10.09v2.85c0,2.44,0.08,8.38,0.08,9.07
			c0.04,1.54,0.41,2.2,1.14,2.2h2.2c0.24,0,0.24,0.16,0.24,0.28v0.94c0,0.24,0,0.41-0.33,0.41c-0.49,0-2.44-0.12-6.02-0.12
			c-3.99,0-5.53,0.12-6.1,0.12c-0.24,0-0.33-0.16-0.33-0.37v-0.94c0-0.24,0.08-0.33,0.33-0.33h2.52c0.73,0,1.06-0.24,1.18-1.42
			c0.04-0.41,0.12-6.26,0.12-9.52V150.9z"/>
		<path class="st2" d="M252.12,139.47c3.05,2.48,5.53,6.51,5.53,12.04c0,3.01-0.81,6.18-3.01,8.95c-2.6,3.25-6.1,5.77-12.2,5.77
			c-2.44,0-5.94-0.73-9.19-2.68c-2.89-1.75-5.94-6.18-5.94-12.04c0-2.44,0.69-6.3,3.74-10.09c3.58-4.39,7.97-5.21,11.47-5.21
			C245.53,136.22,248.79,136.79,252.12,139.47z M236.5,140.28c-2.48,2.4-3.66,6.59-3.66,9.84c0,10.57,6.51,14.31,9.92,14.31
			c8.21,0,9.52-9.11,9.52-12.52c0-8.86-6.02-13.91-9.92-13.91C241.63,138.01,239.27,137.6,236.5,140.28z"/>
		<path class="st2" d="M265.02,154.96c0,2.44,0.08,6.99,0.16,7.6c0.12,0.81,0.41,1.54,1.06,1.54h2.03c0.24,0,0.33,0.12,0.33,0.28
			v0.98c0,0.28-0.12,0.37-0.45,0.37c-0.53,0-1.34-0.12-5.57-0.12c-3.99,0-4.96,0.12-5.37,0.12c-0.24,0-0.33-0.12-0.33-0.37v-0.94
			c0-0.2,0.08-0.33,0.24-0.33h1.38c0.89,0,1.55-0.24,1.55-1.34c0.08-4.07,0.08-7.89,0.08-11.71v-10.69c0-1.38-0.57-2.03-1.3-2.03
			h-1.59c-0.2,0-0.28-0.08-0.28-0.24v-1.1c0-0.2,0.08-0.28,0.28-0.28c0.28,0,1.59,0.12,5.57,0.12c2.28,0,6.02-0.12,7.24-0.12
			c3.25,0,5.77,1.1,7.4,2.56c1.46,1.3,2.2,3.01,2.2,4.55c0,5.12-3.09,7.24-7.56,7.97v0.16c1.14,0.41,1.87,1.14,2.44,1.87
			c0.49,0.65,3.01,4.47,3.33,4.96c0.24,0.41,2.85,4.07,3.46,4.64c0.77,0.69,1.91,0.77,2.89,0.77c0.24,0,0.33,0.12,0.33,0.28v0.85
			c0,0.28-0.08,0.41-0.33,0.41c-0.33,0-1.38-0.12-3.99-0.12c-1.14,0-2.68,0.08-3.58,0.12c-0.49-0.37-1.26-1.46-1.79-2.32
			c-0.73-1.14-2.32-4.07-2.68-4.72c-0.41-0.73-1.54-2.6-2.2-3.5c-1.02-1.42-1.95-2.52-3.66-2.52c-0.16,0-0.85,0.04-1.3,0.08V154.96z
			 M265.1,151.3c0.57,0.08,1.06,0.16,1.55,0.16c6.34,0,7.64-5.12,7.64-6.99c0-1.87-0.77-3.62-1.79-4.55
			c-1.46-1.3-3.33-1.75-5.37-1.75c-0.65,0-1.14,0.04-1.46,0.24c-0.33,0.2-0.49,0.69-0.49,1.18L265.1,151.3z"/>
		<path class="st2" d="M295.23,153.82c0.04,2.2,0.12,6.18,0.12,6.91c0,2.11,0.73,2.93,1.63,3.17c0.65,0.16,1.63,0.33,3.17,0.33
			c0.73,0,2.6-0.08,3.42-0.16c0.73-0.08,2.28-0.49,3.33-1.38c0.73-0.65,3.01-3.33,3.78-4.31c0.16-0.2,0.28-0.24,0.45-0.16l0.65,0.41
			c0.12,0.08,0.16,0.2,0.08,0.41l-1.95,6.1c-0.12,0.37-0.41,0.61-0.89,0.61c-0.2,0-1.1-0.04-3.62-0.08c-2.56,0-6.75-0.04-13.54-0.04
			c-1.5,0-2.6,0.04-3.46,0.04c-0.81,0.04-1.38,0.08-1.75,0.08c-0.24,0-0.33-0.08-0.33-0.33v-0.98c0-0.24,0.08-0.33,0.41-0.33h1.38
			c1.87,0,2.03-0.24,2.03-1.75v-9.68v-3.99c0-3.33-0.08-8.38-0.16-8.95c-0.16-1.1-0.57-1.42-1.79-1.42h-1.55
			c-0.16,0-0.24-0.08-0.24-0.28v-1.06c0-0.2,0.04-0.28,0.24-0.28c0.89,0,2.36,0.16,5.69,0.12h1.14c1.79,0,11.14-0.08,12.93-0.08
			c0.65,0,1.42-0.04,1.63-0.04c0.2,0,0.28,0.08,0.33,0.24c0.16,0.53,1.71,6.06,1.87,6.47c0.08,0.24,0.04,0.37-0.12,0.45l-0.73,0.33
			c-0.12,0.04-0.24,0-0.37-0.2c-0.16-0.24-3.5-3.99-4.47-4.55c-0.85-0.49-1.95-1.02-3.09-1.06l-6.18-0.16l-0.08,11.75
			c1.22,0,4.15-0.08,4.64-0.2c0.89-0.16,1.38-0.49,1.87-1.46c0.24-0.53,0.65-1.55,0.65-2.28c0-0.24,0.16-0.33,0.33-0.33l1.06,0.08
			c0.16,0,0.28,0.08,0.24,0.33c-0.08,0.65-0.08,3.33-0.08,4.39c0,1.63,0.16,3.58,0.24,4.47c0,0.2-0.08,0.24-0.33,0.28l-0.89,0.16
			c-0.16,0.04-0.24-0.04-0.33-0.28c-0.16-0.65-0.45-1.54-0.65-2.03c-0.37-0.81-1.14-1.38-2.03-1.46c-1.46-0.16-3.42-0.24-4.72-0.24
			L295.23,153.82z"/>
	</g>
</g>
</svg>
