<?xml version="1.0" encoding="utf-8"?>
<svg version="1.1" id="Layer_1" xmlns="http://www.w3.org/2000/svg" xmlns:xlink="http://www.w3.org/1999/xlink" x="0px" y="0px"
	 viewBox="0 0 383.8 383.8" xml:space="preserve">
<style type="text/css">
	.st0{fill:#888B8D;}
	.st1{fill-rule:evenodd;clip-rule:evenodd;fill:#934054;}
	.st2{fill-rule:evenodd;clip-rule:evenodd;fill:#732E4A;}
	.st3{fill:#502B3A;}
</style>
<g id="brm-logo">
	<g>
		<path class="st0" d="M74,148c0-1.5-0.1-6.5-0.1-7.2c-0.1-2.4-0.8-2.5-2.3-2.5h-1.3c-0.2,0-0.3-0.1-0.3-0.3v-0.9
			c0-0.2,0.1-0.4,0.3-0.4c0.6,0,2.5,0.2,6,0.1c1.3,0,3.8-0.1,6-0.1c3.1,0,5.8,0.3,7.2,1.1c2.3,1.2,3.1,3.1,3.1,5.6
			c0,3.3-1.7,5.3-5.6,6.7v0.2c4.7,1.2,7.4,3.7,7.4,8.1c0,2.2-1.2,5.2-3.2,6.3c-1.7,1-4.4,1.4-9,1.4c-1.6,0-4.4-0.1-6-0.1
			c-3.2,0-4.9,0.1-5.8,0.1c-0.2,0-0.3-0.1-0.3-0.3v-1c0-0.2,0.1-0.3,0.3-0.3h1.8c1.2,0,1.5-0.5,1.6-1.8c0.1-1,0.2-6.4,0.2-9.8V148z
			 M79,149.8c0.7,0,1.2,0,1.9,0c1.8,0,3.5-0.5,4.4-1.2c1.6-1.2,2.1-3,2.1-4.9c0-1.6-0.5-3.2-1.8-4.2c-1.5-1.1-3.5-1.4-4.7-1.4
			c-0.4,0-0.9,0-1.2,0.1c-0.2,0.1-0.5,0.3-0.5,0.7c0,0.8-0.1,4.3-0.1,7.8V149.8z M79,159.3c0,3.9,0.9,5.5,3.5,5.5
			c3.2,0,6.2-1.5,6.2-6.5c0-3.4-1.6-5.5-3.9-6.4c-1.6-0.7-3.3-0.7-4.7-0.7H79v2.6V159.3z"/>
		<path class="st0" d="M104.4,154.6c-0.3,0.9-2.3,6.8-2.6,7.9c-0.1,0.3-0.1,0.7-0.1,0.9c0,0.5,0.7,1,1.5,1h1.7
			c0.3,0,0.4,0.1,0.4,0.2v1c0,0.2-0.1,0.4-0.3,0.4c-0.6,0-2.3-0.1-5.2-0.1c-3,0-3.9,0.1-4.5,0.1c-0.2,0-0.2-0.2-0.2-0.5v-0.8
			c0-0.2,0.1-0.3,0.2-0.3h1.2c1.2,0,1.9-0.6,2.6-1.9c0.4-0.7,3.4-8.1,4.6-11.6c0.3-0.8,3.6-9.7,4-10.8c0.1-0.4,0.3-1.2,0.1-1.4
			c-0.1-0.1-0.2-0.4-0.2-0.5c0-0.2,0.1-0.3,0.4-0.4c1.3-0.3,3.6-1.6,4.1-2.1c0.2-0.2,0.4-0.4,0.6-0.4c0.2,0,0.4,0.5,0.5,0.7
			c0.7,2.6,3.9,11.8,4.7,14.4c1,3.2,3.6,10.9,4.2,12c0.7,1.4,1.8,1.9,2.6,1.9h1.3c0.2,0,0.3,0.1,0.3,0.3v0.9c0,0.2-0.1,0.5-0.4,0.5
			c-0.7,0-1.6-0.1-6.1-0.1c-3.5,0-4.9,0.1-5.8,0.1c-0.3,0-0.4-0.2-0.4-0.5v-0.8c0-0.2,0.1-0.3,0.3-0.3h1.1c1.2,0,1.5-0.4,1.2-1.5
			c-0.3-1.5-2-6.7-2.5-8.3H104.4z M113.5,153c-0.4-1.2-3.2-10.6-3.5-11.4c-0.2-0.5-0.2-0.7-0.4-0.7c-0.2,0-0.4,0.2-0.5,0.5
			c-0.2,0.5-3.9,10.7-4.2,11.6H113.5z"/>
		<path class="st0" d="M153.8,157.5c0.1,0.1,0.1,0.2,0.1,0.4c-0.2,0.2-1.8,7.1-2.1,8.2c-1.1,0-12.9-0.1-17.1-0.1
			c-3.7,0-5.2,0.1-5.7,0.1c-0.3,0-0.3-0.1-0.3-0.4v-0.9c0-0.2,0-0.3,0.2-0.3h1.6c1.5,0,1.7-0.6,1.7-1.1c0-0.7,0.2-11,0.2-13.5v-2.3
			c0-2.6-0.1-7-0.2-7.7c-0.1-1.1-0.2-1.5-1.3-1.5h-1.7c-0.2,0-0.3-0.2-0.3-0.4V137c0-0.2,0.1-0.3,0.3-0.3c0.4,0,1.9,0.1,5.7,0.1
			c4.4,0,6.2-0.1,6.5-0.1c0.3,0,0.4,0.2,0.4,0.4v0.9c0,0.2-0.1,0.3-0.4,0.3h-2.2c-1.2,0-1.4,0.4-1.4,1.5c0,0.6-0.2,6.7-0.2,9.6v3.5
			c0,0.7,0,9.6,0.2,11.4h2.3c2.3,0,5.3,0,6.9-0.2c2.3-0.3,4.9-5.3,5.5-6.8c0.2-0.2,0.2-0.2,0.5-0.2L153.8,157.5z"/>
		<path class="st0" d="M186.7,152.6c0,0.4,0.1,9.9,0.1,10.3c0,1.3,0.7,1.5,1.6,1.5h1.7c0.2,0,0.3,0.1,0.3,0.3v1
			c0,0.2-0.2,0.3-0.4,0.3c-0.5,0-2.1-0.1-6-0.1c-4.1,0-5.9,0.1-6.3,0.1c-0.2,0-0.3-0.1-0.3-0.3v-1.1c0-0.2,0.1-0.2,0.3-0.2h1.6
			c0.8,0,1.7-0.1,1.9-1.2c0.1-0.6,0.2-9.5,0.2-11.7v-2.9c0-1-0.1-8.4-0.1-8.9c-0.1-1-0.5-1.4-1.7-1.4h-2.1c-0.2,0-0.3-0.1-0.3-0.3
			V137c0-0.2,0.1-0.3,0.2-0.3c0.5,0,2.6,0.1,6.7,0.1c3.9,0,5.3-0.1,5.8-0.1c0.2,0,0.3,0.2,0.3,0.4v0.9c0,0.2-0.2,0.3-0.3,0.3h-1.6
			c-0.9,0-1.6,0.3-1.6,1.1c0,0.4-0.1,9.5-0.1,10V152.6z"/>
		<path class="st0" d="M222.9,151.1c0-1.2,0-11.4-0.1-11.6h-0.2c-0.3,0.6-5.5,12.6-6,13.7c-0.6,1.3-4.8,11-5,11.4
			c-0.2,0.3-0.5,0.9-0.9,0.9c-0.2,0-0.5-0.2-0.7-0.7c-0.2-0.2-5.5-13.1-5.8-13.7c-0.7-1.9-4.5-11.1-5-11.6
			c-0.2,0.6-0.2,10.9-0.2,11.4s0,7.5,0.2,10.2c0.2,1.9,0.7,3.5,2,3.5h1.8c0.2,0,0.3,0.2,0.3,0.3v1c0,0.2-0.1,0.3-0.4,0.3
			c-0.4,0-1.6-0.1-4.7-0.1c-3.5,0-4.9,0.1-5.3,0.1c-0.3,0-0.3-0.1-0.3-0.4v-1c0-0.1,0-0.2,0.2-0.2h1.9c1.4,0,1.9-1.5,2.1-2.9
			c0.4-2.9,0.6-13,0.6-13.7v-7c0-1.5-0.2-2.4-2-2.4h-1.8c-0.2,0-0.3-0.2-0.3-0.3V137c0-0.1,0.1-0.2,0.3-0.2c0.4,0,1.5,0.1,5.8,0.1
			c2,0,3.1-0.1,3.6-0.1c0.5,0,0.8,0.2,1,0.7c1.5,3.9,7.2,17.5,8.5,20.9c0.4-0.7,3.3-7.5,4.4-10c0.7-1.7,4.4-10.2,4.6-11
			c0.1-0.4,0.6-0.5,1.6-0.5c6,0,7.4-0.1,7.9-0.1c0.2,0,0.2,0.2,0.2,0.4v0.9c0,0.2-0.1,0.4-0.3,0.4h-1.8c-1.1,0-1.2,0.7-1.2,1.6
			c0,0.9,0,9.1,0,10.2v2.9c0,2.5,0.1,8.5,0.1,9.2c0,1.6,0.4,2.2,1.2,2.2h2.2c0.2,0,0.2,0.2,0.2,0.3v0.9c0,0.2,0,0.4-0.3,0.4
			c-0.5,0-2.5-0.1-6.1-0.1c-4,0-5.6,0.1-6.2,0.1c-0.2,0-0.3-0.2-0.3-0.4v-0.9c0-0.2,0.1-0.3,0.3-0.3h2.6c0.7,0,1.1-0.2,1.2-1.4
			c0-0.4,0.1-6.3,0.1-9.6V151.1z"/>
		<path class="st0" d="M257.8,139.5c3.1,2.5,5.6,6.6,5.6,12.2c0,3-0.8,6.3-3,9.1c-2.6,3.3-6.2,5.8-12.3,5.8c-2.5,0-6-0.7-9.3-2.7
			c-2.9-1.8-6-6.3-6-12.2c0-2.5,0.7-6.4,3.8-10.2c3.6-4.4,8.1-5.3,11.6-5.3C251.2,136.2,254.5,136.8,257.8,139.5z M242,140.3
			c-2.5,2.4-3.7,6.7-3.7,10c0,10.7,6.6,14.5,10,14.5c8.3,0,9.6-9.2,9.6-12.7c0-9-6.1-14.1-10-14.1C247.2,138,244.8,137.6,242,140.3z
			"/>
		<path class="st0" d="M272.6,155.2c0,2.5,0.1,7.1,0.2,7.7c0.1,0.8,0.4,1.6,1.1,1.6h2.1c0.2,0,0.3,0.1,0.3,0.3v1
			c0,0.3-0.1,0.4-0.5,0.4c-0.5,0-1.4-0.1-5.6-0.1c-4,0-5,0.1-5.4,0.1c-0.2,0-0.3-0.1-0.3-0.4v-0.9c0-0.2,0.1-0.3,0.2-0.3h1.4
			c0.9,0,1.6-0.2,1.6-1.4c0.1-4.1,0.1-8,0.1-11.8v-10.8c0-1.4-0.6-2.1-1.3-2.1h-1.6c-0.2,0-0.3-0.1-0.3-0.2V137
			c0-0.2,0.1-0.3,0.3-0.3c0.3,0,1.6,0.1,5.6,0.1c2.3,0,6.1-0.1,7.3-0.1c3.3,0,5.8,1.1,7.5,2.6c1.5,1.3,2.2,3,2.2,4.6
			c0,5.2-3.1,7.3-7.7,8.1v0.2c1.2,0.4,1.9,1.2,2.5,1.9c0.5,0.7,3,4.5,3.4,5c0.2,0.4,2.9,4.1,3.5,4.7c0.8,0.7,1.9,0.8,2.9,0.8
			c0.2,0,0.3,0.1,0.3,0.3v0.9c0,0.3-0.1,0.4-0.3,0.4c-0.3,0-1.4-0.1-4-0.1c-1.2,0-2.7,0.1-3.6,0.1c-0.5-0.4-1.3-1.5-1.8-2.3
			c-0.7-1.2-2.3-4.1-2.7-4.8c-0.4-0.7-1.6-2.6-2.2-3.5c-1-1.4-2-2.6-3.7-2.6c-0.2,0-0.9,0-1.3,0.1V155.2z M272.6,151.5
			c0.6,0.1,1.1,0.2,1.6,0.2c6.4,0,7.7-5.2,7.7-7.1s-0.8-3.7-1.8-4.6c-1.5-1.3-3.4-1.8-5.4-1.8c-0.7,0-1.2,0-1.5,0.2
			s-0.5,0.7-0.5,1.2L272.6,151.5z"/>
		<path class="st0" d="M300,154c0,2.2,0.1,6.3,0.1,7c0,2.1,0.7,3,1.6,3.2c0.7,0.2,1.6,0.3,3.2,0.3c0.7,0,2.6-0.1,3.5-0.2
			c0.7-0.1,2.3-0.5,3.4-1.4c0.7-0.7,3-3.4,3.8-4.4c0.2-0.2,0.3-0.2,0.5-0.2l0.7,0.4c0.1,0.1,0.2,0.2,0.1,0.4l-2,6.2
			c-0.1,0.4-0.4,0.6-0.9,0.6c-0.2,0-1.1,0-3.7-0.1c-2.6,0-6.8,0-13.7,0c-1.5,0-2.6,0-3.5,0c-0.8,0-1.4,0.1-1.8,0.1
			c-0.2,0-0.3-0.1-0.3-0.3v-1c0-0.2,0.1-0.3,0.4-0.3h1.4c1.9,0,2.1-0.2,2.1-1.8v-9.8v-4c0-3.4-0.1-8.5-0.2-9.1
			c-0.2-1.1-0.6-1.4-1.8-1.4h-1.6c-0.2,0-0.2-0.1-0.2-0.3V137c0-0.2,0-0.3,0.2-0.3c0.9,0,2.4,0.2,5.8,0.1h1.2
			c1.8,0,11.3-0.1,13.1-0.1c0.7,0,1.4,0,1.6,0s0.3,0.1,0.3,0.2c0.2,0.5,1.7,6.1,1.9,6.5c0.1,0.2,0,0.4-0.1,0.5l-0.7,0.3
			c-0.1,0-0.2,0-0.4-0.2c-0.2-0.2-3.5-4-4.5-4.6c-0.9-0.5-2-1-3.1-1.1l-6.3-0.2l-0.1,11.9c1.2,0,4.2-0.1,4.7-0.2
			c0.9-0.2,1.4-0.5,1.9-1.5c0.2-0.5,0.7-1.6,0.7-2.3c0-0.2,0.2-0.3,0.3-0.3l1.1,0.1c0.2,0,0.3,0.1,0.2,0.3c-0.1,0.7-0.1,3.4-0.1,4.4
			c0,1.6,0.2,3.6,0.2,4.5c0,0.2-0.1,0.2-0.3,0.3l-0.9,0.2c-0.2,0-0.2,0-0.3-0.3c-0.2-0.7-0.5-1.6-0.7-2.1c-0.4-0.8-1.2-1.4-2.1-1.5
			c-1.5-0.2-3.5-0.2-4.8-0.2L300,154z"/>
	</g>
	<g>
		<polygon class="st1" points="227.6,218.8 233,218.8 233,204.7 227.6,204.7 227.6,203.6 227.1,203.6 227.1,195 226.5,195 
			226.5,188.1 226,188.1 226,185.3 225.4,185.3 225.4,184.8 223.9,177.8 223,177.8 223,177.3 222.5,177.3 222.5,177.1 222,177.1 
			222,177.3 221.9,177.3 221.9,177.8 221.2,177.8 221.2,167.1 220.9,167.1 220.9,177.8 220.6,177.8 220.6,177.2 219.6,177.2 
			219.6,177.8 218.8,177.8 217.3,184.8 217.3,185.3 216.7,185.3 216.7,188.1 216.3,188.1 216.3,195 215.6,195 215.6,203.6 
			215.1,203.6 215.1,204.7 209.7,204.7 209.7,218.8 215.1,218.8 		"/>
		<polygon class="st1" points="308.2,237.9 308.2,205.6 298.7,205.6 298.7,204.3 288.3,204.3 288.3,205.6 287.3,205.6 287.3,237.9 
			269.6,237.9 269.6,225.6 260,225.6 260,237.9 151.3,237.9 151.3,219.8 143.6,219.8 143.6,233 141.5,233 141.5,237.9 130.5,237.9 
			130.5,208.4 109.9,208.4 109.9,237.9 92.3,237.9 92.3,202.5 72.6,202.5 72.6,241.6 73.5,241.6 73.5,246.2 311.9,246.2 
			311.9,237.9 		"/>
	</g>
	<g>
		<rect x="280.4" y="215.1" class="st2" width="9.5" height="27.5"/>
		<rect x="297.5" y="228.8" class="st2" width="8.7" height="13.6"/>
		<polygon class="st2" points="119.5,228.9 121.6,228.9 105.5,212.8 100.6,217.8 95.3,217.8 95.3,223.1 89.5,228.9 92.8,228.9 
			92.8,230.8 85.2,230.8 85.2,243.4 127.1,243.4 127.1,230.8 119.5,230.8 		"/>
		<path class="st2" d="M254.6,207.1l-3.7-4.7h-2v-4.2h-2.1v-0.2V190h0.7v0.6h0.4v-22.2h-0.4v14.8h-0.7v-2.9l-3,3.3v14.3v4.4v4.7v2.3
			h-3v-0.8h-3.3v0.8h-0.7V242h7.1v1.3h7.1h1.2h2.5h1.8v-1.8h0.1v-26.8h-2V207.1z M246.8,188.3v-0.8h0.7v0.8H246.8z M247.4,184.9v0.8
			h-0.7v-0.8H247.4z"/>
		<polygon class="st2" points="216.1,200.9 214.2,200.9 214.2,200.3 210.3,200.3 210.3,199.8 209.8,199.8 209.8,200.3 209.4,200.3 
			209.4,200.9 208.2,200.9 208.2,200.1 207.1,200.1 207.1,200.9 204,200.9 204,201.3 202.3,201.3 202.3,203.1 197.1,203.1 
			197.1,201.3 186.4,201.3 186.4,203.1 180.8,203.1 180.8,242.2 217.8,242.2 217.8,206.2 217.8,203.1 217.8,201.3 216.1,201.3 		"/>
		<rect x="72.6" y="228.8" class="st2" width="8.7" height="13.6"/>
	</g>
	<g>
		<path class="st0" d="M77.8,272.8c0,1.6,0.1,4.6,0.1,5c0.1,0.5,0.3,1,0.7,1H80c0.2,0,0.2,0.1,0.2,0.2v0.6c0,0.2-0.1,0.2-0.3,0.2
			c-0.3,0-0.9-0.1-3.7-0.1c-2.6,0-3.3,0.1-3.5,0.1c-0.2,0-0.2-0.1-0.2-0.2V279c0-0.1,0.1-0.2,0.2-0.2h0.9c0.6,0,1-0.2,1-0.9
			c0.1-2.7,0.1-5.2,0.1-7.7v-7.1c0-0.9-0.4-1.3-0.9-1.3h-1c-0.1,0-0.2-0.1-0.2-0.2v-0.7c0-0.1,0.1-0.2,0.2-0.2c0.2,0,1,0.1,3.7,0.1
			c1.5,0,4-0.1,4.8-0.1c2.1,0,3.8,0.7,4.9,1.7c1,0.9,1.4,2,1.4,3c0,3.4-2,4.8-5,5.3v0.1c0.8,0.3,1.2,0.8,1.6,1.2
			c0.3,0.4,2,3,2.2,3.3c0.2,0.3,1.9,2.7,2.3,3.1c0.5,0.5,1.3,0.5,1.9,0.5c0.2,0,0.2,0.1,0.2,0.2v0.6c0,0.2-0.1,0.3-0.2,0.3
			c-0.2,0-0.9-0.1-2.6-0.1c-0.8,0-1.8,0.1-2.4,0.1c-0.3-0.2-0.8-1-1.2-1.5c-0.5-0.8-1.5-2.7-1.8-3.1c-0.3-0.5-1-1.7-1.4-2.3
			c-0.7-0.9-1.3-1.7-2.4-1.7c-0.1,0-0.6,0-0.9,0.1V272.8z M77.9,270.4c0.4,0.1,0.7,0.1,1,0.1c4.2,0,5-3.4,5-4.6c0-1.2-0.5-2.4-1.2-3
			c-1-0.9-2.2-1.2-3.5-1.2c-0.4,0-0.8,0-1,0.2s-0.3,0.5-0.3,0.8L77.9,270.4z"/>
		<path class="st0" d="M97,272c0,1.4,0.1,4.1,0.1,4.6c0,1.4,0.5,1.9,1.1,2.1c0.4,0.1,1.1,0.2,2.1,0.2c0.5,0,1.7-0.1,2.3-0.1
			c0.5-0.1,1.5-0.3,2.2-0.9c0.5-0.4,2-2.2,2.5-2.8c0.1-0.1,0.2-0.2,0.3-0.1l0.4,0.3c0.1,0.1,0.1,0.1,0.1,0.3l-1.3,4
			c-0.1,0.2-0.3,0.4-0.6,0.4c-0.1,0-0.7,0-2.4-0.1c-1.7,0-4.5,0-8.9,0c-1,0-1.7,0-2.3,0c-0.5,0-0.9,0.1-1.2,0.1
			c-0.2,0-0.2-0.1-0.2-0.2V279c0-0.2,0.1-0.2,0.3-0.2h0.9c1.2,0,1.3-0.2,1.3-1.2v-6.4v-2.6c0-2.2-0.1-5.5-0.1-5.9
			c-0.1-0.7-0.4-0.9-1.2-0.9h-1c-0.1,0-0.2-0.1-0.2-0.2v-0.7c0-0.1,0-0.2,0.2-0.2c0.6,0,1.6,0.1,3.8,0.1h0.8c1.2,0,7.4-0.1,8.5-0.1
			c0.4,0,0.9,0,1.1,0s0.2,0.1,0.2,0.2c0.1,0.3,1.1,4,1.2,4.3c0.1,0.2,0,0.2-0.1,0.3l-0.5,0.2c-0.1,0-0.2,0-0.2-0.1
			c-0.1-0.2-2.3-2.6-3-3c-0.6-0.3-1.3-0.7-2-0.7l-4.1-0.1l-0.1,7.8c0.8,0,2.7-0.1,3.1-0.1c0.6-0.1,0.9-0.3,1.2-1
			c0.2-0.3,0.4-1,0.4-1.5c0-0.2,0.1-0.2,0.2-0.2l0.7,0.1c0.1,0,0.2,0.1,0.2,0.2c-0.1,0.4-0.1,2.2-0.1,2.9c0,1.1,0.1,2.4,0.2,3
			c0,0.1-0.1,0.2-0.2,0.2l-0.6,0.1c-0.1,0-0.2,0-0.2-0.2c-0.1-0.4-0.3-1-0.4-1.3c-0.2-0.5-0.8-0.9-1.3-1c-1-0.1-2.3-0.2-3.1-0.2
			L97,272z"/>
		<path class="st0" d="M111,273.8c0.1,0,0.2,0.1,0.2,0.2c0.1,0.9,0.3,1.9,1,3.1c0.8,1.3,2.2,1.9,3.5,1.9c1.4,0,3.5-0.9,3.5-3.1
			c0-2.5-1.1-3.3-4-4.3c-0.9-0.3-2.6-1.1-3.9-2.3c-0.9-0.9-1.3-2.2-1.3-3.8c0-1.5,0.6-2.7,1.9-3.8c1.1-0.9,2.3-1.3,3.8-1.3
			c1.8,0,2.8,0.4,3.4,0.6c0.3,0.1,0.4,0.1,0.6-0.1l0.3-0.3c0.1-0.1,0.2-0.2,0.4-0.2s0.2,0.2,0.2,0.4c0,0.4,0.4,4.2,0.4,4.5
			c0,0.1-0.1,0.2-0.2,0.2l-0.4,0.1c-0.1,0-0.2,0-0.3-0.2c-0.3-0.8-0.7-1.8-1.7-2.8c-0.7-0.8-1.6-1.1-2.8-1.1c-2.1,0-3,1.7-3,2.7
			c0,0.9,0.1,1.7,0.8,2.4c0.7,0.7,2.2,1.3,3.3,1.7c1.6,0.5,2.8,1,3.9,2.1c0.9,0.9,1.3,2,1.3,3.8c0,3.3-2.1,6-5.7,6
			c-2.2,0-3.5-0.5-4.6-1.3c-0.3-0.2-0.5-0.3-0.6-0.3c-0.2,0-0.3,0.2-0.4,0.5s-0.3,0.3-0.5,0.3s-0.3-0.2-0.3-0.4
			c0.1-0.3,0.4-4.7,0.5-5c0-0.2,0.1-0.2,0.2-0.2L111,273.8z"/>
		<path class="st0" d="M142.4,275.4c0.1,0.1,0.1,0.2,0.1,0.3c-1.6,2.3-4.2,4.5-8,4.5c-3.4,0-5.4-1-7-2.5c-2-1.8-2.9-4.9-2.9-7.2
			c0-2.6,0.9-5.2,2.7-7.2c1.4-1.6,3.8-2.8,7-2.8c2.5,0,4.5,0.8,5.4,1.3c0.4,0.2,0.5,0.2,0.5,0l0.2-0.7c0.1-0.2,0.1-0.2,0.4-0.2
			c0.3,0,0.4,0.1,0.4,0.4c0,0.5,0.5,4.8,0.6,5.6c0,0.2,0,0.2-0.1,0.3l-0.5,0.2c-0.1,0.1-0.2-0.1-0.3-0.3c-0.3-1-1-2.3-2.1-3.5
			c-1.2-1.1-2.6-2-4.7-2c-4.3,0-6.1,3.9-6.1,7.7c0,1.7,0.5,4.8,2.5,7c1.8,1.9,3.3,2.1,4.6,2.1c3,0,5.3-1.5,6.4-3.1
			c0.1-0.2,0.2-0.3,0.3-0.2L142.4,275.4z"/>
		<path class="st0" d="M145.9,263.1c0-0.9-0.2-1.3-0.9-1.3h-1.2c-0.2,0-0.2-0.1-0.2-0.2v-0.6c0-0.2,0.1-0.2,0.3-0.2
			c0.3,0,1.6,0.1,4.1,0.1c2.3,0,3.5-0.1,3.9-0.1c0.2,0,0.2,0.1,0.2,0.2v0.7c0,0.2-0.1,0.2-0.2,0.2h-1.1c-0.8,0-1.3,0.5-1.3,1
			c0,0.3-0.1,1.9-0.1,3.5v3.3c0,1.3,0,3.2,0.1,4.1c0.1,1.2,0.3,2.5,0.9,3.3c0.9,1.2,2.4,1.7,3.7,1.7c1.2,0,2.7-0.5,3.6-1.3
			c1-1,1.6-2.6,1.6-4.5v-4.8c0-2.1-0.2-4.5-0.3-5.1c-0.1-0.7-0.5-1.2-1.1-1.2h-1c-0.2,0-0.2-0.1-0.2-0.2v-0.7c0-0.2,0.1-0.2,0.2-0.2
			c0.3,0,1.5,0.1,3.3,0.1c1.7,0,2.5-0.1,2.7-0.1c0.2,0,0.3,0.1,0.3,0.2v0.6c0,0.2,0,0.2-0.2,0.2h-1c-1,0-1.1,0.8-1.1,1
			c-0.1,0.3-0.1,4.1-0.1,4.4c0,0.4-0.1,5-0.2,6.1c-0.2,2.2-0.8,3.9-2.3,5.2c-1.1,1-2.8,1.7-4.9,1.7c-1.3,0-2.8-0.2-3.9-0.6
			c-1.6-0.6-2.6-1.9-3.2-3.6c-0.4-1.2-0.5-3-0.5-6.5V263.1z"/>
		<path class="st0" d="M170.3,272c0,1.4,0.1,4.1,0.1,4.6c0,1.4,0.5,1.9,1.1,2.1c0.4,0.1,1.1,0.2,2.1,0.2c0.5,0,1.7-0.1,2.3-0.1
			c0.5-0.1,1.5-0.3,2.2-0.9c0.5-0.4,2-2.2,2.5-2.8c0.1-0.1,0.2-0.2,0.3-0.1l0.4,0.3c0.1,0.1,0.1,0.1,0.1,0.3l-1.3,4
			c-0.1,0.2-0.3,0.4-0.6,0.4c-0.1,0-0.7,0-2.4-0.1c-1.7,0-4.5,0-8.9,0c-1,0-1.7,0-2.3,0c-0.5,0-0.9,0.1-1.2,0.1
			c-0.2,0-0.2-0.1-0.2-0.2V279c0-0.2,0.1-0.2,0.3-0.2h0.9c1.2,0,1.3-0.2,1.3-1.2v-6.4v-2.6c0-2.2-0.1-5.5-0.1-5.9
			c-0.1-0.7-0.4-0.9-1.2-0.9h-1c-0.1,0-0.2-0.1-0.2-0.2v-0.7c0-0.1,0-0.2,0.2-0.2c0.6,0,1.6,0.1,3.8,0.1h0.8c1.2,0,7.4-0.1,8.5-0.1
			c0.4,0,0.9,0,1.1,0s0.2,0.1,0.2,0.2c0.1,0.3,1.1,4,1.2,4.3c0.1,0.2,0,0.2-0.1,0.3l-0.5,0.2c-0.1,0-0.2,0-0.2-0.1
			c-0.1-0.2-2.3-2.6-3-3c-0.6-0.3-1.3-0.7-2-0.7l-4.1-0.1l-0.1,7.8c0.8,0,2.7-0.1,3.1-0.1c0.6-0.1,0.9-0.3,1.2-1
			c0.2-0.3,0.4-1,0.4-1.5c0-0.2,0.1-0.2,0.2-0.2l0.7,0.1c0.1,0,0.2,0.1,0.2,0.2c-0.1,0.4-0.1,2.2-0.1,2.9c0,1.1,0.1,2.4,0.2,3
			c0,0.1-0.1,0.2-0.2,0.2l-0.6,0.1c-0.1,0-0.2,0-0.2-0.2c-0.1-0.4-0.3-1-0.4-1.3c-0.2-0.5-0.8-0.9-1.3-1c-1-0.1-2.3-0.2-3.1-0.2
			L170.3,272z"/>
		<path class="st0" d="M207.4,270.1c0-0.8,0-7.5-0.1-7.6h-0.1c-0.2,0.4-3.6,8.2-3.9,8.9c-0.4,0.9-3.1,7.2-3.3,7.5
			c-0.1,0.2-0.3,0.6-0.6,0.6c-0.2,0-0.3-0.2-0.4-0.5c-0.1-0.2-3.6-8.5-3.8-9c-0.5-1.2-3-7.2-3.3-7.6c-0.1,0.4-0.1,7.1-0.1,7.5
			c0,0.3,0,4.9,0.1,6.6c0.1,1.2,0.4,2.3,1.3,2.3h1.2c0.2,0,0.2,0.1,0.2,0.2v0.7c0,0.1-0.1,0.2-0.3,0.2c-0.3,0-1-0.1-3.1-0.1
			c-2.3,0-3.2,0.1-3.5,0.1c-0.2,0-0.2-0.1-0.2-0.2V279c0-0.1,0-0.2,0.2-0.2h1.2c0.9,0,1.2-1,1.3-1.9c0.2-1.9,0.4-8.5,0.4-9v-4.6
			c0-1-0.1-1.6-1.3-1.6h-1.2c-0.2,0-0.2-0.1-0.2-0.2v-0.7c0-0.1,0.1-0.2,0.2-0.2c0.3,0,1,0.1,3.8,0.1c1.3,0,2-0.1,2.4-0.1
			s0.5,0.1,0.6,0.5c1,2.5,4.7,11.4,5.5,13.6c0.2-0.5,2.1-4.9,2.8-6.5c0.5-1.1,2.9-6.7,3-7.2c0.1-0.3,0.4-0.3,1-0.3
			c3.9,0,4.8-0.1,5.2-0.1c0.1,0,0.2,0.1,0.2,0.2v0.6c0,0.2-0.1,0.3-0.2,0.3h-1.2c-0.7,0-0.8,0.5-0.8,1c0,0.6,0,6,0,6.7v1.9
			c0,1.6,0.1,5.5,0.1,6c0,1,0.3,1.4,0.8,1.4h1.4c0.2,0,0.2,0.1,0.2,0.2v0.6c0,0.2,0,0.3-0.2,0.3c-0.3,0-1.6-0.1-4-0.1
			c-2.6,0-3.6,0.1-4,0.1c-0.2,0-0.2-0.1-0.2-0.2V279c0-0.2,0.1-0.2,0.2-0.2h1.7c0.5,0,0.7-0.2,0.8-0.9c0-0.3,0.1-4.1,0.1-6.3V270.1z
			"/>
		<path class="st0" d="M221,271.1c0,0.3,0.1,6.4,0.1,6.7c0,0.9,0.4,1,1.1,1h1.1c0.1,0,0.2,0.1,0.2,0.2v0.7c0,0.2-0.1,0.2-0.3,0.2
			c-0.3,0-1.4-0.1-3.9-0.1c-2.7,0-3.9,0.1-4.1,0.1c-0.2,0-0.2-0.1-0.2-0.2V279c0-0.1,0.1-0.2,0.2-0.2h1.1c0.5,0,1.1-0.1,1.2-0.8
			c0.1-0.4,0.1-6.2,0.1-7.6v-1.9c0-0.6-0.1-5.5-0.1-5.8c-0.1-0.6-0.3-0.9-1.1-0.9h-1.4c-0.2,0-0.2-0.1-0.2-0.2v-0.7
			c0-0.1,0.1-0.2,0.2-0.2c0.3,0,1.7,0.1,4.3,0.1c2.6,0,3.4-0.1,3.8-0.1c0.2,0,0.2,0.1,0.2,0.2v0.6c0,0.2-0.1,0.2-0.2,0.2h-1
			c-0.6,0-1,0.2-1,0.7c0,0.3-0.1,6.2-0.1,6.5V271.1z"/>
		<path class="st0" d="M227.1,273.8c0.1,0,0.2,0.1,0.2,0.2c0.1,0.9,0.3,1.9,1,3.1c0.8,1.3,2.2,1.9,3.5,1.9c1.4,0,3.5-0.9,3.5-3.1
			c0-2.5-1.1-3.3-4-4.3c-0.9-0.3-2.6-1.1-3.9-2.3c-0.9-0.9-1.3-2.2-1.3-3.8c0-1.5,0.6-2.7,1.9-3.8c1.1-0.9,2.3-1.3,3.8-1.3
			c1.8,0,2.8,0.4,3.4,0.6c0.3,0.1,0.4,0.1,0.6-0.1l0.3-0.3c0.1-0.1,0.2-0.2,0.4-0.2s0.2,0.2,0.2,0.4c0,0.4,0.4,4.2,0.4,4.5
			c0,0.1-0.1,0.2-0.2,0.2l-0.4,0.1c-0.1,0-0.2,0-0.3-0.2c-0.3-0.8-0.7-1.8-1.7-2.8c-0.7-0.8-1.6-1.1-2.8-1.1c-2.1,0-3,1.7-3,2.7
			c0,0.9,0.1,1.7,0.8,2.4c0.7,0.7,2.2,1.3,3.3,1.7c1.6,0.5,2.8,1,3.9,2.1c0.9,0.9,1.3,2,1.3,3.8c0,3.3-2.1,6-5.7,6
			c-2.2,0-3.5-0.5-4.6-1.3c-0.3-0.2-0.5-0.3-0.6-0.3c-0.2,0-0.3,0.2-0.4,0.5s-0.3,0.3-0.5,0.3s-0.3-0.2-0.3-0.4
			c0.1-0.3,0.4-4.7,0.5-5c0-0.2,0.1-0.2,0.2-0.2L227.1,273.8z"/>
		<path class="st0" d="M241.9,273.8c0.1,0,0.2,0.1,0.2,0.2c0.1,0.9,0.3,1.9,1,3.1c0.8,1.3,2.2,1.9,3.5,1.9c1.4,0,3.5-0.9,3.5-3.1
			c0-2.5-1.1-3.3-4-4.3c-0.9-0.3-2.6-1.1-3.9-2.3c-0.9-0.9-1.3-2.2-1.3-3.8c0-1.5,0.6-2.7,1.9-3.8c1.1-0.9,2.3-1.3,3.8-1.3
			c1.8,0,2.8,0.4,3.4,0.6c0.3,0.1,0.4,0.1,0.6-0.1l0.3-0.3c0.1-0.1,0.2-0.2,0.4-0.2s0.2,0.2,0.2,0.4c0,0.4,0.4,4.2,0.4,4.5
			c0,0.1-0.1,0.2-0.2,0.2l-0.4,0.1c-0.1,0-0.2,0-0.3-0.2c-0.3-0.8-0.7-1.8-1.7-2.8c-0.7-0.8-1.6-1.1-2.8-1.1c-2.1,0-3,1.7-3,2.7
			c0,0.9,0.1,1.7,0.8,2.4c0.7,0.7,2.2,1.3,3.3,1.7c1.6,0.5,2.8,1,3.9,2.1c0.9,0.9,1.3,2,1.3,3.8c0,3.3-2.1,6-5.7,6
			c-2.2,0-3.5-0.5-4.6-1.3c-0.3-0.2-0.5-0.3-0.6-0.3c-0.2,0-0.3,0.2-0.4,0.5s-0.3,0.3-0.5,0.3s-0.3-0.2-0.3-0.4
			c0.1-0.3,0.4-4.7,0.5-5c0-0.2,0.1-0.2,0.2-0.2L241.9,273.8z"/>
		<path class="st0" d="M261,271.1c0,0.3,0.1,6.4,0.1,6.7c0,0.9,0.4,1,1.1,1h1.1c0.1,0,0.2,0.1,0.2,0.2v0.7c0,0.2-0.1,0.2-0.3,0.2
			c-0.3,0-1.4-0.1-3.9-0.1c-2.7,0-3.9,0.1-4.1,0.1c-0.2,0-0.2-0.1-0.2-0.2V279c0-0.1,0.1-0.2,0.2-0.2h1.1c0.5,0,1.1-0.1,1.2-0.8
			c0.1-0.4,0.1-6.2,0.1-7.6v-1.9c0-0.6-0.1-5.5-0.1-5.8c-0.1-0.6-0.3-0.9-1.1-0.9H255c-0.2,0-0.2-0.1-0.2-0.2v-0.7
			c0-0.1,0.1-0.2,0.2-0.2c0.3,0,1.7,0.1,4.3,0.1c2.6,0,3.4-0.1,3.8-0.1c0.2,0,0.2,0.1,0.2,0.2v0.6c0,0.2-0.1,0.2-0.2,0.2h-1
			c-0.6,0-1,0.2-1,0.7c0,0.3-0.1,6.2-0.1,6.5V271.1z"/>
		<path class="st0" d="M282.4,262.6c2,1.6,3.7,4.3,3.7,7.9c0,2-0.5,4.1-2,5.9c-1.7,2.1-4,3.8-8.1,3.8c-1.6,0-3.9-0.5-6.1-1.8
			c-1.9-1.2-3.9-4.1-3.9-7.9c0-1.6,0.5-4.2,2.5-6.7c2.4-2.9,5.3-3.4,7.6-3.4C278,260.4,280.2,260.8,282.4,262.6z M272.1,263.1
			c-1.6,1.6-2.4,4.3-2.4,6.5c0,7,4.3,9.4,6.5,9.4c5.4,0,6.3-6,6.3-8.3c0-5.9-4-9.2-6.5-9.2C275.5,261.6,273.9,261.3,272.1,263.1z"/>
		<path class="st0" d="M292,267.7c0,4.6,0.2,8.3,0.3,9.2c0.1,1.3,0.4,2,1.3,2h0.7c0.2,0,0.2,0.1,0.2,0.2v0.6c0,0.2,0,0.2-0.2,0.2
			c-0.3,0-1.9-0.1-2.9-0.1c-0.7,0-2.5,0.1-2.8,0.1c-0.1,0-0.2-0.1-0.2-0.2V279c0-0.1,0.1-0.2,0.2-0.2h0.9c0.7,0,1.1-0.6,1.2-2.2
			c0-0.5,0.2-4.2,0.2-8.5v-3.4c0-1.6-0.9-2.8-2.1-2.8H288c-0.1,0-0.2-0.1-0.2-0.2v-0.7c0-0.1,0.1-0.2,0.2-0.2c0.1,0,0.3,0,0.8,0.1
			c0.5,0,1.2,0,2.4,0c0.5,0,0.9,0,1.2-0.1c0.3,0,0.6,0,0.8,0c0.3,0,0.5,0.1,0.6,0.2c0.3,0.3,5.5,6.9,6.1,7.6c0.4,0.4,4.6,5.6,5,6.2
			h0.1V272c0-2.4,0-3.7-0.1-5c-0.1-1-0.2-3.7-0.3-4.1c-0.2-0.6-0.8-1-1.4-1h-0.9c-0.2,0-0.2-0.1-0.2-0.2v-0.6c0-0.2,0-0.2,0.2-0.2
			c0.3,0,1.2,0.1,3,0.1c1.6,0,2.3-0.1,2.6-0.1c0.2,0,0.3,0.1,0.3,0.2v0.6c0,0.2-0.1,0.3-0.2,0.3h-0.8c-0.5,0-0.8,0.4-0.9,1.4
			c-0.1,1.8-0.4,6.3-0.4,9.1v7.1c0,0.4,0,0.8-0.3,0.8c-0.4,0-0.7-0.2-0.9-0.4c-0.2-0.3-1.7-1.9-3.3-3.9c-1.9-2.3-4-4.8-4.3-5.3
			c-0.4-0.4-4.7-5.7-5-6.1H292V267.7z"/>
	</g>
	<path class="st3" d="M309.6,241.3V239h-1.3v-4.9h-4.1v4.9h-4.4V233h-4.5v-1.5h-6.1v1.5h-3.4v-56.1h-20.7v58.3h-3.1V233h-3.1v8.3
		h-1.5v-10H254V229h-5.8v2.4h-0.1v10h-5.3V237h-2.5v-12.6l-1.7-1.9h-0.3v-4.4l-1.6-1.7h-5.1v-12.6H229v12.6h-2.7v-12.6h-2.5v12.6
		H221v-12.6h-2.5v12.6h-2.7v-12.6h-2.5v12.6h-2.6l-1.6,1.7v4.4h-0.4l-1.7,1.9v11.9h-1v-3.1h-2.1v3.1h-0.4v5h-1.7v-9.4h-4.5v-2.3
		h-3.5v2.3h-0.4v9.4h-1.3v-5.6h-0.8v-1h-5.9v1h-3.2v-33.9h0.7V201h-2.1v-7.7h0.7v-0.8h-4.9v-6.1h0.8v-0.8h-1.7v-3.4l-2.8-5.2
		c0-17.2-0.1-35.1,0.2-50.7c9.6,0,20.9,0,31.2,0c0-4.9,0-9.9,0-14.8c-10.5,0-20.9,0-31.4,0c0-10.5,0-20.9,0-31.4
		c-4.9,0-9.9,0-14.8,0c0,10.5,0,20.9,0,31.4c-10.5,0-20.9,0-31.4,0c0,4.9,0,9.9,0,14.8c10.5,0,20.9,0,31.4,0c0,16.9,0,33.8,0,50.7
		l-2.8,5.2v3.4h-1.7v0.8h0.8v6.1h-4.9v0.8h0.7v7.7H148v0.8h0.7V238h-5.9v3.3h-3.1l-1.9-42.9h-4.2l-1.5,39.9h-3.4v3h-2.8v-1.6h-0.5
		v-2.8h-5.8v2.8h-5.3v1.6h-5.9v-6.9h-2.2v-1.3h-3.1v1.3h-1.5v-0.5H97v0.5h-1.5v-3.1h3.2v-8.5h-3.2h-7.4v8.5v10h-3.8V239h-3.9v-4.9
		h-4.1v4.9h-1.4v2.3h-2.2v2.4v1.2v5.7h239.3v-5.7v-1.2v-2.4H309.6z"/>
	<g>
		<path class="st0" d="M15.9,149.6l2.8,1.3l-0.2,0.9l-1.9-0.5l-0.4,0.2c-0.2,0.2-0.3,0.5-0.5,0.8c-0.1,0.3-0.2,0.6-0.3,0.8
			c-0.2,0.9-0.1,1.7,0.3,2.4c0.4,0.7,0.9,1.1,1.7,1.3c0.9,0.2,1.9-0.4,3-1.9l0.1-0.2c0.8-1,1.5-1.7,2-2c0.6-0.3,1.2-0.4,1.9-0.2
			c1.2,0.3,2.1,1,2.7,2.1c0.6,1.2,0.7,2.5,0.4,4.1c-0.1,0.7-0.4,1.3-0.6,1.8c-0.3,0.6-0.6,1.1-1,1.6l-3-1.3l0.2-1l2.2,0.7l0.3-0.1
			c0.3-0.3,0.5-0.7,0.7-1c0.2-0.3,0.3-0.7,0.4-1c0.2-1,0.1-1.9-0.3-2.6c-0.4-0.7-1-1.2-1.9-1.4c-0.8-0.2-1.6,0.3-2.5,1.4
			c-0.1,0.1-0.2,0.2-0.2,0.3c-1,1.2-1.8,2-2.3,2.3s-1.2,0.4-1.8,0.3c-1.2-0.3-2.1-0.9-2.7-2c-0.6-1.1-0.7-2.3-0.4-3.7
			c0.1-0.6,0.3-1.1,0.5-1.6C15.3,150.6,15.6,150.1,15.9,149.6z"/>
		<path class="st0" d="M16.6,140.9l0.2-0.6c0.4,0.2,0.8,0.5,1.4,0.8c0.5,0.3,1.1,0.6,1.8,1l3.1,1.6c-0.4-1-0.6-1.8-0.8-2.5
			c-0.1-0.7-0.1-1.3,0-1.8c0.1-0.5,0.4-0.8,0.8-1.1c0.4-0.2,0.8-0.2,1.3-0.1c0.2,0.1,0.4,0.1,0.6,0.2c0.2,0.1,0.6,0.3,1,0.5l2.8,1.6
			c0.3,0.2,0.5,0.3,0.7,0.4s0.3,0.1,0.5,0.2c0.3,0.1,0.6,0.1,0.8,0c0.2-0.1,0.4-0.3,0.5-0.7c0-0.1,0.1-0.3,0.1-0.5
			c0-0.2,0-0.4,0.1-0.6l0.5,0.2c0,0.5,0.1,1,0,1.5c0,0.4-0.1,0.8-0.1,1c-0.1,0.5-0.3,0.8-0.6,1c-0.3,0.2-0.6,0.2-1,0.1
			c-0.1,0-0.3-0.1-0.5-0.2s-0.3-0.2-0.5-0.3l-3.3-1.9c-0.2-0.1-0.5-0.3-0.7-0.4c-0.2-0.1-0.4-0.2-0.5-0.2c-0.4-0.1-0.8-0.1-1,0
			c-0.2,0.1-0.4,0.3-0.5,0.7c-0.1,0.3-0.1,0.8,0,1.4c0.1,0.6,0.4,1.2,0.7,1.9l6.1,3.1l-0.5,1.6l-12.1-6.5l-0.7,1.8l-0.5-0.1
			L16.6,140.9z"/>
		<path class="st0" d="M27.4,125.3l0.4-1c0.2,0.2,0.4,0.4,0.9,0.7c0.4,0.3,0.9,0.6,1.5,1l3,1.9c0.3,0.2,0.5,0.3,0.7,0.4
			c0.2,0.1,0.4,0.2,0.5,0.3c0.3,0.1,0.5,0.1,0.7,0c0.2-0.1,0.4-0.3,0.5-0.7c0-0.1,0.1-0.2,0.1-0.3c0-0.1,0.1-0.4,0.1-0.8l0.6,0.2
			c0,0.6,0,1.1,0,1.5c0,0.4-0.1,0.8-0.2,1c-0.2,0.4-0.4,0.6-0.7,0.7c-0.3,0.1-0.7,0-1.2-0.1l-0.2-0.1c0.3,0.7,0.5,1.3,0.6,1.9
			c0.1,0.6,0,1.1-0.1,1.5c-0.3,0.8-0.8,1.3-1.6,1.5c-0.8,0.2-1.6,0.2-2.7-0.2c-0.6-0.2-1.2-0.5-1.7-0.9s-1-0.8-1.4-1.4
			c-0.6-0.8-1-1.6-1.1-2.5c-0.1-0.9,0-1.8,0.3-2.7c0.1-0.3,0.3-0.5,0.4-0.8c0.2-0.3,0.4-0.5,0.6-0.7L27.4,125.3z M27.4,127.3
			l-0.1,0.3c-0.4,1.1-0.3,2.2,0.4,3.3c0.7,1.1,1.7,1.9,3.2,2.5c0.7,0.3,1.4,0.4,1.8,0.2c0.5-0.1,0.8-0.5,1-1
			c0.1-0.4,0.2-0.8,0.1-1.2s-0.2-0.9-0.5-1.5l-4.5-2.9L27.4,127.3z"/>
		<path class="st0" d="M31,117l0.2-0.4l2.2,1.7c-0.5-0.9-0.9-1.8-1-2.5c-0.2-0.8-0.1-1.4,0.1-1.8c0.1-0.3,0.3-0.5,0.6-0.6
			c0.3-0.1,0.5-0.1,0.8,0c0.4,0.2,0.6,0.4,0.7,0.7c0.1,0.3,0.1,0.7-0.1,1l-0.1,0.1l-1.2,0c-0.1,0.9,0,1.7,0.3,2.4
			c0.3,0.6,0.9,1.2,1.7,1.8l3.9,2.8l-0.7,1.5l-6.7-5l-1,1.4l-0.5-0.2L31,117z"/>
		<path class="st0" d="M32.4,104.5c0.1-0.3,0.4-0.4,0.6-0.5c0.3-0.1,0.6-0.1,0.8,0.1c0.3,0.1,0.4,0.4,0.5,0.6
			c0.1,0.3,0.1,0.6-0.1,0.8c-0.1,0.3-0.4,0.4-0.6,0.5c-0.3,0.1-0.6,0.1-0.8-0.1c-0.3-0.1-0.4-0.4-0.5-0.6
			C32.2,105.1,32.3,104.8,32.4,104.5z M36.1,107l0.2-0.5l5.9,4.8c0.1,0.1,0.2,0.1,0.2,0.2c0.1,0,0.1,0.1,0.2,0.1
			c0.2,0.1,0.4,0.1,0.6,0.1c0.2-0.1,0.4-0.3,0.5-0.5c0.1-0.2,0.2-0.4,0.2-0.6c0.1-0.2,0.1-0.5,0.2-0.8l0.5,0.3
			c-0.1,0.6-0.2,1.1-0.3,1.6c-0.1,0.5-0.3,0.9-0.5,1.2c-0.2,0.4-0.5,0.6-0.7,0.7c-0.3,0.1-0.6,0-1-0.2c-0.1-0.1-0.2-0.1-0.4-0.2
			c-0.1-0.1-0.3-0.2-0.5-0.4l-4.7-3.9l-1,1.3l-0.5-0.3L36.1,107z"/>
		<path class="st0" d="M40.6,99.3l0.3-0.4l1.4,1.3c-0.1-1.1-0.1-1.9-0.1-2.6s0.2-1.3,0.5-1.7c0.3-0.4,0.6-0.7,1-0.8
			c0.4-0.1,0.8,0,1.2,0.2c0.2,0.1,0.3,0.2,0.5,0.4c0.2,0.2,0.5,0.4,0.8,0.8l2.2,2.2c0,0,0.1,0.1,0.1,0.1c0.4,0.4,0.7,0.7,0.9,0.8
			c0.3,0.2,0.5,0.2,0.8,0.2c0.2-0.1,0.4-0.2,0.6-0.5c0.1-0.1,0.1-0.3,0.2-0.4c0.1-0.2,0.1-0.4,0.2-0.6l0.5,0.3
			c-0.1,0.5-0.2,1-0.4,1.4c-0.1,0.4-0.3,0.7-0.4,0.9c-0.3,0.4-0.5,0.7-0.8,0.8c-0.3,0.1-0.6,0-1-0.2c-0.1-0.1-0.2-0.2-0.4-0.3
			c-0.1-0.1-0.3-0.3-0.5-0.4l-2.7-2.7c-0.2-0.2-0.3-0.3-0.5-0.5c-0.2-0.1-0.3-0.3-0.5-0.3c-0.4-0.2-0.7-0.3-0.9-0.3
			c-0.3,0-0.5,0.2-0.7,0.5c-0.2,0.3-0.3,0.8-0.4,1.4c0,0.6,0,1.3,0.2,2l5,4.7l-0.9,1.4l-6-5.8l-1.1,1.2l-0.4-0.3L40.6,99.3z"/>
		<path class="st0" d="M51,85.1l1.7-2.3l0.7,0.5L52.2,85c0.2,0.1,0.4,0.2,0.6,0.3s0.4,0.2,0.6,0.3c0.9,0.6,1.3,1.5,1.5,2.5
			c0.1,1-0.1,2-0.8,2.8c0,0.1-0.1,0.1-0.1,0.2c0,0.1-0.1,0.1-0.2,0.2c0.1,0.2,0.2,0.3,0.3,0.5c0.1,0.1,0.2,0.3,0.4,0.4l0.1,0.1
			l3.1-1.7c0.5-0.3,1-0.4,1.4-0.4c0.4,0,0.8,0.1,1.1,0.4c0.6,0.5,0.9,1.3,0.8,2.4c-0.1,1.1-0.5,2.2-1.3,3.3
			c-0.7,0.9-1.4,1.5-2.2,1.8c-0.8,0.3-1.5,0.1-2.2-0.3c-0.5-0.4-0.8-0.8-0.9-1.4c-0.1-0.6,0-1.4,0.3-2.4c0,0-0.1,0-0.1-0.1
			c0,0-0.1-0.1-0.2-0.1c-0.3-0.2-0.5-0.4-0.6-0.7c-0.2-0.3-0.3-0.6-0.4-1.1c-0.5,0.3-1.1,0.5-1.6,0.5c-0.5,0-1-0.2-1.4-0.5
			c-0.9-0.7-1.4-1.5-1.5-2.6c-0.1-1.1,0.1-2,0.8-2.9c0.2-0.2,0.4-0.5,0.6-0.6C50.4,85.5,50.7,85.3,51,85.1z M52.3,86.8
			c-0.5-0.4-0.9-0.5-1.3-0.5c-0.4,0-0.7,0.2-1,0.5c-0.4,0.5-0.4,1.1-0.2,1.9s0.7,1.4,1.5,2c0.4,0.3,0.8,0.5,1.2,0.5
			c0.4,0,0.7-0.2,0.9-0.5c0.4-0.5,0.4-1.1,0.2-1.9C53.5,88,53,87.3,52.3,86.8z M55.4,93.4c-0.2,0.6-0.3,1.1-0.3,1.5
			c0.1,0.5,0.3,0.8,0.7,1.1c0.5,0.4,1.1,0.5,1.7,0.4c0.6-0.2,1.2-0.5,1.7-1.2c0.5-0.7,0.8-1.3,0.8-1.9c0-0.6-0.1-1.1-0.5-1.4
			c-0.2-0.2-0.5-0.2-0.7-0.2c-0.3,0-0.6,0.1-1,0.3L55.4,93.4z"/>
		<path class="st0" d="M66.6,61.9l1.9,2.6l-0.7,0.8l-1.3-1.4L66,63.7c-0.4,0.1-0.7,0.3-1,0.5c-0.3,0.2-0.6,0.4-0.8,0.6
			c-0.5,0.5-0.8,1-1.1,1.6c-0.3,0.6-0.4,1.3-0.5,2c-0.1,1.1,0.1,2.2,0.6,3.3c0.5,1.1,1.1,2.1,2.1,3c0.9,0.9,1.9,1.4,3,1.4
			c1.1,0,2-0.4,2.9-1.2c0.2-0.2,0.4-0.4,0.6-0.7c0.2-0.3,0.4-0.6,0.7-1l-2.5-3.5l-0.3-0.1l-1,0.9L68,69.9l3.5-3.5l0.5,0.5l-0.8,1
			l0,0.4l2.8,4.1c-0.4,0.7-0.8,1.4-1.2,2s-0.8,1.1-1.2,1.5c-1.2,1.2-2.4,1.8-3.9,1.8c-1.4,0-2.7-0.6-3.9-1.8c-0.9-0.9-1.6-2-2-3.2
			c-0.4-1.2-0.6-2.5-0.4-3.8c0.1-0.9,0.4-1.8,0.8-2.7c0.4-0.8,0.9-1.6,1.6-2.3c0.5-0.5,1-0.9,1.5-1.3C65.6,62.4,66.1,62.1,66.6,61.9
			z"/>
		<path class="st0" d="M76.1,58c0.8-0.7,1.7-1,2.6-0.8c0.9,0.1,1.8,0.7,2.6,1.6c0.5,0.6,0.9,1.3,1.2,2c0.3,0.7,0.4,1.5,0.4,2.3
			c0,0.7-0.1,1.4-0.4,2c-0.3,0.6-0.7,1.1-1.2,1.6c-0.8,0.7-1.6,0.9-2.5,0.8c-0.9-0.1-1.7-0.6-2.5-1.5c-0.5-0.6-0.9-1.3-1.2-2.1
			c-0.3-0.8-0.4-1.5-0.4-2.3c0-0.7,0.2-1.4,0.4-2C75.2,59,75.6,58.5,76.1,58z M76.4,58.8c-0.7,0.6-0.9,1.5-0.7,2.6
			c0.2,1.2,0.8,2.3,1.7,3.5c0.6,0.7,1.2,1.2,1.8,1.3c0.6,0.2,1.1,0.1,1.6-0.3c0.7-0.6,0.9-1.4,0.7-2.6c-0.2-1.2-0.7-2.3-1.7-3.4
			c-0.6-0.7-1.2-1.2-1.8-1.4C77.4,58.3,76.9,58.4,76.4,58.8z"/>
		<path class="st0" d="M86.7,43.4l0.4-0.3L92.5,54c0.1,0.2,0.2,0.4,0.3,0.5c0.1,0.2,0.2,0.3,0.3,0.4c0.2,0.2,0.4,0.4,0.5,0.4
			c0.2,0,0.4,0,0.7-0.2c0.1-0.1,0.2-0.2,0.4-0.3c0.1-0.2,0.3-0.4,0.6-0.6l0.4,0.5c-0.3,0.5-0.6,0.9-0.9,1.2
			c-0.3,0.3-0.5,0.6-0.8,0.7c-0.4,0.3-0.7,0.4-1,0.3c-0.3-0.1-0.6-0.3-0.9-0.7c-0.1-0.1-0.1-0.2-0.1-0.2c0,0-0.1-0.1-0.1-0.1
			c0,0.8-0.2,1.5-0.4,2c-0.2,0.6-0.6,1-1,1.3c-0.7,0.5-1.4,0.6-2.1,0.4s-1.5-0.8-2.1-1.7c-0.4-0.5-0.7-1.1-0.9-1.7
			c-0.2-0.6-0.4-1.2-0.4-1.8c-0.1-1,0.1-1.9,0.5-2.8c0.4-0.9,0.9-1.6,1.6-2.1c0.2-0.2,0.5-0.3,0.7-0.4s0.5-0.2,0.8-0.3l-1.8-3.6
			l-1.5,0.9l-0.3-0.4L86.7,43.4z M87.6,50c0,0-0.1,0.1-0.2,0.1c-0.1,0.1-0.2,0.1-0.2,0.1c-0.8,0.6-1.2,1.5-1.2,2.8
			c0,1.3,0.5,2.6,1.4,3.8c0.5,0.6,0.9,1,1.4,1.2c0.5,0.2,1,0.1,1.4-0.2c0.3-0.2,0.6-0.6,0.7-1.1c0.2-0.5,0.3-1.1,0.3-1.8L89,50.4
			L87.6,50z"/>
		<path class="st0" d="M95.2,44.8l-0.7,0.5c0.3-1,0.4-1.8,0.4-2.5s-0.1-1.2-0.4-1.6l0-0.1l-1.1,0.7c-0.1,0-0.2-0.1-0.2-0.2
			c-0.1-0.1-0.1-0.1-0.2-0.2c-0.2-0.3-0.3-0.6-0.2-1s0.3-0.7,0.6-0.9c0.3-0.2,0.7-0.3,1-0.2c0.3,0.1,0.6,0.3,0.8,0.6
			c0.3,0.5,0.5,1.2,0.5,2C95.7,42.8,95.5,43.8,95.2,44.8z"/>
		<path class="st0" d="M104.9,40.7l-1.3-0.6c-0.1,0-0.2,0-0.3,0c-0.1,0-0.2,0.1-0.3,0.1c-0.3,0.2-0.6,0.5-0.7,0.8
			c-0.1,0.4-0.1,0.7,0.1,1c0.2,0.4,1,0.7,2.2,0.9l0,0c0.1,0,0.2,0,0.3,0c1.4,0.2,2.4,0.6,2.7,1.2c0.4,0.8,0.5,1.6,0.2,2.4
			c-0.3,0.8-0.9,1.5-1.8,2.1c-0.7,0.4-1.4,0.6-1.9,0.6c-0.6,0-1-0.3-1.3-0.8c-0.2-0.3-0.2-0.5-0.1-0.8c0.1-0.3,0.2-0.5,0.5-0.6
			c0.1-0.1,0.2-0.1,0.4-0.1c0.1,0,0.3,0,0.5,0l0.2,1c0.3,0.1,0.5,0.2,0.8,0.1c0.3,0,0.5-0.1,0.8-0.3c0.5-0.3,0.8-0.6,0.9-1.1
			c0.1-0.4,0.1-0.9-0.2-1.3c-0.1-0.3-0.4-0.5-0.6-0.6c-0.3-0.1-0.8-0.2-1.5-0.3l-0.1,0c-1.5-0.2-2.4-0.6-2.8-1.2
			c-0.4-0.7-0.5-1.5-0.2-2.3c0.3-0.8,0.8-1.5,1.7-2c0.5-0.3,0.9-0.4,1.3-0.4c0.4,0,0.7,0.2,0.9,0.5c0.1,0.3,0.2,0.5,0.1,0.8
			C105.4,40.2,105.2,40.5,104.9,40.7z"/>
		<path class="st0" d="M116.2,28.1l4.5-1.9l0.3,0.7l-1.2,0.6l-0.2,0.4l2.5,11.3l3.9-1.7l0.2-0.4l-0.2-2.5l0.9-0.4l0.8,3.6l-8.2,3.5
			l-0.3-0.7l1.1-0.6l0.2-0.4l-2.4-11l-0.3-0.2l-1.2,0.4L116.2,28.1z"/>
		<path class="st0" d="M133.7,25.3c1-0.3,1.9-0.3,2.7,0.2c0.8,0.5,1.4,1.3,1.8,2.4c0.3,0.7,0.4,1.5,0.3,2.3c0,0.8-0.2,1.6-0.5,2.3
			c-0.3,0.7-0.6,1.2-1.1,1.7c-0.5,0.4-1,0.8-1.7,1c-1,0.3-1.9,0.3-2.7-0.2c-0.8-0.4-1.4-1.2-1.8-2.3c-0.3-0.8-0.4-1.5-0.4-2.4
			c0-0.8,0.2-1.6,0.5-2.3c0.3-0.7,0.7-1.2,1.1-1.7C132.5,25.9,133,25.5,133.7,25.3z M133.7,26.1c-0.8,0.3-1.4,1-1.6,2.2
			c-0.3,1.2-0.1,2.4,0.4,3.9c0.3,0.9,0.7,1.5,1.2,1.9c0.5,0.4,1,0.5,1.6,0.3c0.8-0.3,1.4-1,1.6-2.2c0.3-1.2,0.2-2.4-0.3-3.8
			c-0.3-0.9-0.7-1.6-1.2-1.9C134.8,26,134.3,25.9,133.7,26.1z"/>
		<path class="st0" d="M142.8,22.4L142.8,22.4c0.5-0.1,0.9-0.1,1.2,0.1c0.3,0.2,0.6,0.8,0.9,1.7l1.9,5.2c0.5-1.2,0.9-2.2,1.2-3.1
			s0.5-1.7,0.5-2.4l-1-2.3c0.1-0.2,0.3-0.3,0.4-0.4c0.1-0.1,0.3-0.2,0.5-0.2c0.3-0.1,0.6-0.1,0.8,0.1c0.2,0.1,0.4,0.4,0.5,0.7
			c0.2,0.7,0,1.9-0.5,3.6c-0.5,1.7-1.4,3.7-2.6,6.1l-0.9,0.2c0-0.2,0.1-0.4,0.1-0.6c0-0.2,0-0.5-0.1-0.7c0-0.1-0.1-0.2-0.1-0.3
			c0-0.1-0.1-0.2-0.1-0.4l-1.7-4.4c-0.2-0.5-0.4-0.8-0.5-1.1c-0.2-0.2-0.3-0.4-0.5-0.4l-1.5,0.3l-0.1-0.5L142.8,22.4z"/>
		<path class="st0" d="M156,24.6c0,0.1,0,0.3,0,0.4c0,0.2,0,0.3,0.1,0.5c0.2,0.8,0.5,1.4,0.9,1.8c0.5,0.4,1,0.5,1.6,0.4
			c0.5-0.1,0.9-0.3,1.4-0.7c0.5-0.4,1-0.9,1.4-1.5l0.2,0.9c-0.5,0.7-1,1.3-1.6,1.7c-0.6,0.4-1.2,0.7-1.9,0.8c-0.9,0.2-1.7,0-2.4-0.5
			c-0.6-0.5-1.1-1.4-1.3-2.5c-0.2-0.8-0.2-1.7,0-2.5c0.2-0.8,0.5-1.6,0.9-2.3c0.4-0.6,0.8-1.1,1.4-1.5c0.5-0.4,1-0.7,1.6-0.8
			c0.6-0.1,1.1,0,1.6,0.2c0.4,0.3,0.7,0.7,0.8,1.3c0.2,0.9-0.2,1.7-1,2.4C158.9,23.6,157.6,24.2,156,24.6z M155.9,23.9
			c1.1-0.3,2-0.7,2.6-1.4c0.6-0.6,0.9-1.3,0.7-1.9c-0.1-0.3-0.2-0.5-0.4-0.7c-0.2-0.2-0.5-0.2-0.8-0.2c-0.6,0.1-1.1,0.5-1.5,1.3
			C156.2,21.8,156,22.8,155.9,23.9z"/>
		<path class="st0" d="M175.4,16.4h0.7l0.9,7.8l0.2-0.3c1.5-3.2,2.5-5.7,3.1-7.3l1.2-0.2c0.1,0.9,0.2,2,0.4,3.3
			c0.2,1.3,0.4,2.8,0.6,4.5c0.8-1.3,1.5-2.3,2-3.2c0.5-0.9,0.8-1.7,1-2.3l-0.5-2.3c0.1-0.2,0.3-0.3,0.4-0.4c0.2-0.1,0.4-0.1,0.6-0.1
			c0.3,0,0.6,0.1,0.8,0.3c0.2,0.2,0.3,0.5,0.3,0.8c0,0.6-0.3,1.6-0.9,2.9s-1.9,3.3-3.7,5.9l-1.2,0.1l-0.9-6.9
			c-0.3,0.6-0.7,1.6-1.3,2.8c-0.6,1.2-1.3,2.7-2.2,4.4l-1.3,0.1l0.1-0.4l-1-7.9l-1.5-0.1l0-0.5L175.4,16.4z"/>
		<path class="st0" d="M194.3,16l0.5,0l-1.6,7.4c0,0.1,0,0.2-0.1,0.3c0,0.1,0,0.1,0,0.2c0,0.3,0.1,0.4,0.2,0.6
			c0.2,0.1,0.4,0.2,0.7,0.2c0.2,0,0.4,0,0.6-0.1c0.2,0,0.5-0.1,0.8-0.2l0,0.6c-0.6,0.2-1.1,0.4-1.5,0.5c-0.5,0.1-0.9,0.2-1.3,0.2
			c-0.4,0-0.7-0.1-1-0.3c-0.2-0.2-0.3-0.6-0.3-1c0-0.1,0-0.3,0-0.4c0-0.2,0.1-0.4,0.1-0.6l1.3-5.9l-1.6-0.3l0-0.5L194.3,16z
			 M194.8,11.6c0.3,0,0.5,0.1,0.7,0.3c0.2,0.2,0.3,0.5,0.3,0.8c0,0.3-0.1,0.5-0.3,0.8c-0.2,0.2-0.5,0.3-0.8,0.3
			c-0.3,0-0.6-0.1-0.8-0.3c-0.2-0.2-0.3-0.5-0.3-0.8c0-0.3,0.1-0.6,0.3-0.8C194.2,11.7,194.5,11.6,194.8,11.6z"/>
		<path class="st0" d="M203,14.5l0.9,0.1l-0.6,2.2l2.9,0.2l-0.1,0.9l-3-0.2l-1.4,5.3c0,0,0,0.1,0,0.2c-0.1,0.3-0.1,0.6-0.1,0.7
			c0,0.4,0.1,0.7,0.2,0.9c0.2,0.2,0.5,0.4,0.9,0.4c0.2,0,0.5,0,0.8,0c0.3,0,0.7-0.1,1.1-0.2l0,0.6c-0.7,0.2-1.3,0.4-1.8,0.5
			c-0.5,0.1-1,0.2-1.3,0.1c-0.6,0-1-0.2-1.2-0.5c-0.3-0.3-0.4-0.8-0.3-1.4c0-0.2,0-0.4,0.1-0.6c0-0.2,0.1-0.5,0.2-0.7l1.5-5.3
			l-1.2,0l0-0.6l1.5-0.5L203,14.5z"/>
		<path class="st0" d="M214.5,12.5l0.6,0.1c-0.2,0.4-0.4,0.9-0.6,1.5c-0.2,0.5-0.4,1.2-0.7,1.9l-1.1,3.3c0.9-0.5,1.7-0.9,2.3-1.1
			c0.7-0.2,1.2-0.3,1.7-0.2c0.5,0.1,0.9,0.3,1.2,0.6s0.4,0.7,0.3,1.2c0,0.2-0.1,0.4-0.2,0.6c-0.1,0.2-0.2,0.6-0.4,1.1l-1.1,3
			c-0.1,0.3-0.2,0.6-0.3,0.8c-0.1,0.2-0.1,0.4-0.1,0.5c0,0.3,0,0.6,0.2,0.8c0.1,0.2,0.4,0.3,0.7,0.4c0.1,0,0.3,0,0.5,0
			c0.2,0,0.4,0,0.6,0l-0.1,0.5c-0.5,0.1-1,0.2-1.4,0.3c-0.4,0-0.8,0-1,0c-0.5-0.1-0.8-0.2-1.1-0.4c-0.2-0.2-0.3-0.5-0.2-1
			c0-0.1,0.1-0.3,0.1-0.5c0-0.2,0.1-0.4,0.2-0.6l1.4-3.5c0.1-0.3,0.2-0.5,0.3-0.7c0.1-0.2,0.1-0.4,0.1-0.5c0.1-0.4,0-0.8-0.1-1
			s-0.4-0.4-0.8-0.4c-0.4-0.1-0.8,0-1.4,0.2c-0.6,0.2-1.2,0.5-1.8,1l-2.2,6.5l-1.7-0.2l4.6-12.9l-1.8-0.4l0.1-0.5L214.5,12.5z"/>
		<path class="st0" d="M235.6,19.9l0.9,0.2l-1,2.1l2.8,0.7l-0.2,0.8l-2.9-0.8l-2.4,4.9c0,0,0,0.1-0.1,0.2c-0.1,0.3-0.2,0.5-0.3,0.6
			c-0.1,0.4-0.1,0.7,0.1,1c0.1,0.3,0.4,0.4,0.8,0.5c0.2,0.1,0.5,0.1,0.8,0.1c0.3,0,0.7,0,1.1,0l-0.2,0.6c-0.7,0.1-1.4,0.2-1.9,0.2
			c-0.5,0-1,0-1.3-0.1c-0.5-0.1-0.9-0.4-1.1-0.8c-0.2-0.4-0.2-0.8-0.1-1.4c0-0.2,0.1-0.4,0.2-0.6c0.1-0.2,0.2-0.4,0.3-0.7l2.4-5
			l-1.2-0.2l0.2-0.6l1.6-0.3L235.6,19.9z"/>
		<path class="st0" d="M247.3,20.1l0.6,0.2c-0.3,0.4-0.5,0.8-0.8,1.3c-0.3,0.5-0.7,1.1-1,1.8l-1.7,3c1-0.4,1.8-0.6,2.5-0.7
			s1.3-0.1,1.8,0.1c0.5,0.2,0.8,0.4,1,0.8s0.2,0.8,0.1,1.3c-0.1,0.2-0.1,0.4-0.3,0.6c-0.1,0.2-0.3,0.6-0.6,1l-1.6,2.7
			c-0.2,0.3-0.3,0.5-0.4,0.7c-0.1,0.2-0.2,0.3-0.2,0.5c-0.1,0.3-0.1,0.6,0,0.8s0.3,0.4,0.6,0.5c0.1,0,0.3,0.1,0.5,0.1
			s0.4,0.1,0.6,0.1l-0.2,0.5c-0.5,0-1,0-1.5,0c-0.4,0-0.8-0.1-1-0.2c-0.5-0.2-0.8-0.4-1-0.6c-0.2-0.3-0.2-0.6,0-1
			c0-0.1,0.1-0.3,0.2-0.4c0.1-0.2,0.2-0.3,0.3-0.5l2-3.2c0.1-0.2,0.3-0.4,0.4-0.6c0.1-0.2,0.2-0.4,0.2-0.5c0.1-0.4,0.2-0.8,0.1-1
			c-0.1-0.3-0.3-0.4-0.7-0.6c-0.3-0.1-0.8-0.1-1.4,0c-0.6,0.1-1.2,0.3-1.9,0.6l-3.3,6l-1.6-0.5l6.9-11.8l-1.7-0.8l0.2-0.5
			L247.3,20.1z"/>
		<path class="st0" d="M254.9,33.8c-0.1,0.1-0.2,0.2-0.2,0.4s-0.1,0.3-0.2,0.4c-0.3,0.7-0.4,1.4-0.2,2c0.2,0.6,0.5,1,1.1,1.2
			c0.4,0.2,1,0.3,1.6,0.2c0.6,0,1.3-0.2,2-0.5l-0.4,0.9c-0.8,0.3-1.6,0.5-2.3,0.5c-0.7,0-1.4-0.1-2-0.4c-0.9-0.4-1.4-1-1.7-1.7
			c-0.2-0.8-0.1-1.7,0.3-2.8c0.3-0.8,0.8-1.5,1.4-2.1c0.6-0.6,1.3-1.1,2-1.4c0.6-0.3,1.3-0.4,2-0.5s1.2,0,1.7,0.2
			c0.6,0.2,1,0.6,1.2,1.1c0.2,0.5,0.2,1,0,1.5c-0.3,0.8-1.1,1.3-2.2,1.5C257.9,34.6,256.5,34.4,254.9,33.8z M255.2,33.2
			c1.1,0.4,2.1,0.5,2.9,0.3c0.9-0.2,1.4-0.6,1.7-1.2c0.1-0.3,0.1-0.6,0-0.8c-0.1-0.3-0.3-0.5-0.6-0.6c-0.6-0.2-1.2-0.2-1.9,0.2
			S255.9,32.3,255.2,33.2z"/>
		<path class="st0" d="M276.8,34.3l4.2,2.4l-0.4,0.7l-1.2-0.6l-0.4,0.1l-7.5,8.7l3.7,2.1l0.5-0.1l1.9-1.7l0.8,0.5l-2.4,2.8l-7.7-4.4
			l0.4-0.7l1.2,0.6l0.4-0.1l7.4-8.6l0-0.4l-1.1-0.7L276.8,34.3z"/>
		<path class="st0" d="M283.7,48.9c-0.1,0.1-0.2,0.2-0.3,0.3c-0.1,0.1-0.2,0.3-0.3,0.4c-0.4,0.7-0.6,1.3-0.6,1.9
			c0,0.6,0.3,1.1,0.9,1.4c0.4,0.3,0.9,0.4,1.5,0.5s1.3,0,2.1-0.1l-0.5,0.8c-0.8,0.1-1.6,0.2-2.3,0.1c-0.7-0.1-1.3-0.4-1.9-0.7
			c-0.8-0.5-1.2-1.2-1.3-2c-0.1-0.8,0.2-1.7,0.8-2.7c0.5-0.7,1.1-1.3,1.8-1.8s1.5-0.8,2.2-1c0.7-0.1,1.4-0.2,2-0.1s1.2,0.3,1.6,0.6
			c0.5,0.4,0.8,0.8,0.9,1.3c0.1,0.5,0,1-0.3,1.5c-0.5,0.7-1.3,1.1-2.4,1C286.5,50.2,285.2,49.8,283.7,48.9z M284.2,48.4
			c1,0.6,1.9,0.9,2.8,0.9c0.9,0,1.5-0.3,1.9-0.9c0.2-0.3,0.2-0.5,0.2-0.8c-0.1-0.3-0.2-0.5-0.4-0.7c-0.5-0.3-1.2-0.4-2-0.1
			C285.9,47.1,285,47.6,284.2,48.4z"/>
		<path class="st0" d="M301,55.1l0.8,0.6c-0.2,0.1-0.5,0.3-0.9,0.6c-0.4,0.3-0.9,0.7-1.4,1.2l-2.7,2.3c-0.2,0.2-0.5,0.4-0.6,0.6
			c-0.2,0.2-0.3,0.3-0.4,0.4c-0.2,0.2-0.3,0.5-0.2,0.7c0,0.2,0.2,0.5,0.5,0.7c0.1,0,0.2,0.1,0.3,0.2c0.1,0.1,0.4,0.2,0.7,0.4
			l-0.4,0.5c-0.6-0.2-1.1-0.3-1.5-0.5c-0.4-0.2-0.7-0.3-0.9-0.5c-0.3-0.3-0.5-0.5-0.5-0.9c0-0.3,0.2-0.7,0.5-1.1l0.1-0.1
			c-0.8,0.1-1.4,0.1-2,0c-0.6-0.1-1-0.3-1.4-0.6c-0.7-0.5-1-1.2-1-2c0-0.8,0.3-1.6,1-2.5c0.4-0.5,0.9-1,1.4-1.3
			c0.5-0.4,1.1-0.7,1.7-0.9c0.9-0.3,1.8-0.5,2.7-0.3s1.7,0.5,2.5,1.1c0.2,0.2,0.4,0.4,0.6,0.6c0.2,0.2,0.4,0.5,0.5,0.8L301,55.1z
			 M299.1,54.6l-0.2-0.2c-0.9-0.7-2-0.9-3.2-0.6c-1.2,0.3-2.3,1.1-3.3,2.4c-0.5,0.6-0.8,1.2-0.8,1.7c0,0.5,0.2,0.9,0.7,1.3
			c0.3,0.2,0.7,0.4,1.1,0.4c0.4,0.1,1,0.1,1.6,0l4.1-3.5L299.1,54.6z"/>
		<path class="st0" d="M307.7,63.9l0.1-1.4c0-0.1-0.1-0.2-0.1-0.3c-0.1-0.1-0.1-0.2-0.2-0.3c-0.3-0.3-0.6-0.4-1-0.4
			c-0.4,0-0.7,0.2-0.9,0.4c-0.3,0.4-0.4,1.1-0.1,2.3l0,0c0,0.1,0,0.2,0.1,0.3c0.3,1.4,0.2,2.4-0.3,3c-0.6,0.7-1.3,1-2.2,1
			c-0.9,0-1.7-0.4-2.5-1.1c-0.6-0.5-1-1.1-1.1-1.7s0-1,0.3-1.4c0.2-0.2,0.4-0.3,0.7-0.4c0.3,0,0.5,0.1,0.7,0.3
			c0.1,0.1,0.2,0.2,0.2,0.3c0.1,0.1,0.1,0.3,0.2,0.5l-0.9,0.5c0,0.3,0,0.5,0.1,0.8c0.1,0.3,0.3,0.5,0.5,0.7c0.4,0.4,0.9,0.6,1.3,0.6
			c0.4,0,0.8-0.2,1.2-0.6c0.2-0.2,0.3-0.5,0.4-0.8c0-0.3,0-0.8-0.1-1.5l0-0.1c-0.3-1.5-0.2-2.5,0.3-3c0.6-0.6,1.3-0.9,2.2-0.9
			c0.9,0,1.7,0.3,2.4,1c0.4,0.4,0.7,0.8,0.8,1.2c0.1,0.4,0,0.7-0.2,1c-0.2,0.2-0.4,0.3-0.7,0.3C308.3,64.2,308,64.1,307.7,63.9z"/>
		<path class="st0" d="M316.8,66.8l0.6,0.7l-1.9,1.3l2,2l-0.6,0.6l-2.1-2.2l-4.5,3c0,0-0.1,0.1-0.2,0.1c-0.3,0.2-0.5,0.3-0.6,0.4
			c-0.3,0.3-0.4,0.6-0.4,0.9c0,0.3,0.1,0.6,0.4,0.9c0.2,0.2,0.4,0.3,0.6,0.5c0.3,0.2,0.6,0.4,1,0.6l-0.5,0.4
			c-0.7-0.3-1.3-0.5-1.7-0.8c-0.5-0.3-0.8-0.5-1.1-0.8c-0.4-0.4-0.6-0.8-0.6-1.2c0-0.4,0.2-0.8,0.7-1.3c0.1-0.1,0.3-0.3,0.5-0.4
			s0.4-0.3,0.6-0.4l4.6-3l-0.9-0.8l0.4-0.4l1.5,0.6L316.8,66.8z"/>
		<path class="st0" d="M329.1,83.8c0.6,0.8,0.9,1.7,0.7,2.6c-0.2,0.9-0.7,1.7-1.7,2.5c-0.6,0.5-1.3,0.8-2.1,1.1
			c-0.8,0.2-1.5,0.3-2.3,0.3c-0.7,0-1.4-0.2-1.9-0.5c-0.6-0.3-1.1-0.7-1.5-1.3c-0.6-0.8-0.9-1.7-0.7-2.6c0.2-0.9,0.7-1.7,1.6-2.4
			c0.6-0.5,1.3-0.9,2.1-1.1c0.8-0.3,1.6-0.4,2.3-0.3c0.7,0,1.4,0.2,2,0.5C328.2,82.8,328.7,83.2,329.1,83.8z M328.3,84
			c-0.5-0.7-1.4-1-2.6-0.8c-1.2,0.1-2.4,0.7-3.5,1.6c-0.7,0.6-1.2,1.2-1.4,1.8c-0.2,0.6-0.1,1.1,0.3,1.6c0.5,0.7,1.4,1,2.6,0.8
			s2.3-0.6,3.5-1.5c0.8-0.6,1.2-1.2,1.4-1.8C328.8,85.1,328.7,84.5,328.3,84z"/>
		<path class="st0" d="M340,94.2l0.2-2.1c-0.4-0.2-1-0.2-1.8,0c-0.8,0.2-1.8,0.6-3,1.1l1.6,2.3l-0.7,0.5l-1.7-2.5l-5.1,2.6
			c-1,0.5-1.9,0.9-2.6,1.1c-0.7,0.2-1.4,0.3-2,0.3c-0.9,0-1.7-0.1-2.3-0.4c-0.6-0.2-1.1-0.5-1.4-0.9c-0.2-0.3-0.2-0.5-0.2-0.8
			c0-0.3,0.2-0.5,0.5-0.7c0.1-0.1,0.3-0.1,0.4-0.2c0.2,0,0.3,0,0.5,0.1l0.7,2c0.5,0.1,1.2,0,1.9-0.2c0.8-0.2,1.9-0.7,3.5-1.5
			l5.2-2.6l-0.9-1l0.6-0.4l1.4,0.9c1.5-0.7,2.9-1,4.1-0.9c1.2,0.1,2.1,0.5,2.6,1.3c0.3,0.4,0.4,0.8,0.4,1.2c0,0.4-0.1,0.7-0.4,0.9
			c-0.2,0.1-0.4,0.2-0.7,0.2C340.5,94.5,340.2,94.4,340,94.2z"/>
		<path class="st0" d="M347.3,104.3l5,9.5l-2.9,0.9l-0.5-1l1.7-0.8l0.2-0.3l-1.3-2.5l-11.1,3.4l-0.1,0.4l0.5,1.2l-0.7,0.4l-2.3-4.3
			l0.7-0.4l0.7,1.1l0.4,0.2l11.1-3.5l-1.3-2.5l-0.4-0.2l-1.9,0.3l-0.5-1L347.3,104.3z"/>
		<path class="st0" d="M356.4,119.9l0.2,0.6c-0.5,0.1-1,0.2-1.5,0.3c-0.6,0.1-1.3,0.2-2,0.4l-3.4,0.7c0.9,0.5,1.6,1,2.2,1.4
			c0.5,0.5,0.9,0.9,1.1,1.4c0.2,0.5,0.2,0.9,0.1,1.3c-0.1,0.4-0.4,0.7-0.9,0.9c-0.2,0.1-0.4,0.1-0.6,0.2c-0.2,0.1-0.6,0.1-1.1,0.2
			l-3.1,0.6c-0.3,0.1-0.6,0.1-0.8,0.2c-0.2,0-0.4,0.1-0.5,0.2c-0.3,0.1-0.5,0.3-0.6,0.5s-0.1,0.5,0.1,0.8c0.1,0.1,0.1,0.3,0.2,0.4
			c0.1,0.2,0.2,0.3,0.4,0.5l-0.5,0.2c-0.4-0.4-0.7-0.7-1-1.1c-0.3-0.3-0.4-0.6-0.5-0.9c-0.2-0.5-0.3-0.8-0.2-1.1
			c0.1-0.3,0.3-0.5,0.7-0.7c0.1-0.1,0.3-0.1,0.5-0.2c0.2,0,0.4-0.1,0.6-0.1l3.7-0.7c0.3,0,0.5-0.1,0.7-0.1s0.4-0.1,0.5-0.2
			c0.4-0.2,0.7-0.4,0.8-0.6c0.1-0.2,0.1-0.5,0-0.9c-0.1-0.3-0.4-0.7-0.9-1c-0.5-0.4-1.1-0.7-1.8-1l-6.7,1.5l-0.7-1.6l13.4-2.8
			l-0.6-1.8l0.5-0.2L356.4,119.9z"/>
		<path class="st0" d="M351.2,134.6c-0.1,0-0.3,0.1-0.4,0.1s-0.3,0.1-0.5,0.1c-0.8,0.3-1.3,0.6-1.6,1.1c-0.3,0.5-0.4,1.1-0.2,1.7
			c0.2,0.4,0.4,0.9,0.9,1.3c0.4,0.4,1,0.8,1.7,1.2l-0.9,0.3c-0.8-0.4-1.4-0.8-1.9-1.4c-0.5-0.5-0.9-1.1-1.1-1.7
			c-0.3-0.9-0.2-1.7,0.2-2.4c0.4-0.7,1.2-1.3,2.3-1.6c0.8-0.3,1.6-0.4,2.5-0.4c0.9,0,1.7,0.2,2.4,0.6c0.6,0.3,1.2,0.7,1.7,1.1
			c0.5,0.5,0.8,0.9,1,1.4c0.2,0.6,0.2,1.1,0,1.6c-0.2,0.5-0.6,0.8-1.2,1c-0.8,0.3-1.7,0.1-2.5-0.7
			C352.6,137.4,351.9,136.2,351.2,134.6z M351.9,134.5c0.4,1.1,1,1.9,1.7,2.4c0.7,0.5,1.4,0.7,2,0.5c0.3-0.1,0.5-0.3,0.6-0.5
			c0.1-0.3,0.1-0.5,0-0.8c-0.2-0.6-0.7-1-1.5-1.3C354,134.5,353.1,134.4,351.9,134.5z"/>
		<path class="st0" d="M358.4,147.8l0.9-1.1c0-0.1,0.1-0.2,0.1-0.3c0-0.1,0-0.2,0-0.3c-0.1-0.4-0.3-0.7-0.6-0.9
			c-0.3-0.2-0.7-0.2-1-0.1c-0.5,0.1-0.9,0.8-1.4,1.9l0,0c0,0.1-0.1,0.2-0.1,0.3c-0.5,1.4-1.2,2.1-1.9,2.3c-0.9,0.2-1.7,0.1-2.4-0.4
			c-0.7-0.5-1.3-1.3-1.5-2.3c-0.2-0.8-0.2-1.5-0.1-2c0.2-0.5,0.5-0.9,1-1c0.3-0.1,0.6-0.1,0.8,0.1c0.2,0.1,0.4,0.4,0.5,0.7
			c0,0.1,0,0.3,0,0.4s-0.1,0.3-0.1,0.5l-1.1-0.1c-0.2,0.2-0.3,0.5-0.3,0.7s0,0.6,0,0.8c0.2,0.6,0.4,0.9,0.8,1.2
			c0.4,0.2,0.8,0.3,1.3,0.1c0.3-0.1,0.5-0.2,0.7-0.5c0.2-0.2,0.4-0.7,0.7-1.4l0-0.1c0.6-1.4,1.2-2.2,1.9-2.4
			c0.8-0.2,1.6-0.1,2.3,0.4c0.8,0.5,1.2,1.2,1.5,2.1c0.1,0.5,0.2,1,0,1.4c-0.1,0.4-0.4,0.6-0.7,0.7c-0.3,0.1-0.5,0-0.8-0.1
			C358.6,148.4,358.5,148.1,358.4,147.8z"/>
		<path class="st0" d="M357.2,155.4c-0.1,0-0.3,0-0.4,0c-0.2,0-0.3,0-0.5,0.1c-0.8,0.2-1.4,0.5-1.7,0.9c-0.4,0.5-0.5,1-0.4,1.6
			c0.1,0.5,0.3,0.9,0.7,1.4c0.4,0.5,0.9,0.9,1.5,1.4l-0.9,0.2c-0.7-0.5-1.3-1-1.7-1.6c-0.4-0.6-0.7-1.2-0.8-1.9
			c-0.2-0.9,0-1.7,0.5-2.4c0.5-0.6,1.3-1.1,2.5-1.3c0.8-0.2,1.7-0.2,2.5,0c0.8,0.1,1.6,0.4,2.3,0.9c0.6,0.4,1.1,0.8,1.5,1.4
			c0.4,0.5,0.7,1,0.8,1.6c0.1,0.6,0.1,1.1-0.2,1.6c-0.3,0.4-0.7,0.7-1.3,0.8c-0.9,0.2-1.7-0.1-2.4-1
			C358.2,158.3,357.6,157.1,357.2,155.4z M357.9,155.4c0.3,1.1,0.8,2,1.4,2.6c0.6,0.6,1.3,0.8,2,0.7c0.3-0.1,0.5-0.2,0.7-0.5
			c0.2-0.2,0.2-0.5,0.2-0.8c-0.1-0.6-0.6-1.1-1.3-1.5C360,155.6,359,155.4,357.9,155.4z"/>
		<path class="st0" d="M363.4,190.8c0.7,0,1.3,0.3,1.8,0.8c0.5,0.5,0.7,1.1,0.7,1.8c0,0.7-0.3,1.3-0.8,1.8c-0.5,0.5-1.1,0.7-1.8,0.7
			c-0.7,0-1.3-0.3-1.8-0.8c-0.5-0.5-0.8-1.1-0.7-1.8c0-0.7,0.3-1.3,0.8-1.8S362.7,190.8,363.4,190.8z"/>
		<path class="st0" d="M363.9,237.4l-2.8-1.3l0.2-0.9l1.9,0.5l0.4-0.2c0.2-0.2,0.3-0.5,0.5-0.8c0.1-0.3,0.2-0.5,0.3-0.8
			c0.2-0.9,0.1-1.7-0.2-2.4c-0.4-0.7-0.9-1.1-1.7-1.3c-0.9-0.2-1.9,0.4-3,1.8l-0.1,0.2c-0.8,1-1.5,1.7-2.1,2
			c-0.6,0.3-1.2,0.4-1.9,0.2c-1.2-0.3-2.1-1-2.6-2.2c-0.6-1.2-0.7-2.5-0.3-4.1c0.2-0.7,0.4-1.3,0.7-1.8c0.3-0.6,0.6-1.1,1.1-1.6
			l2.9,1.4l-0.2,1l-2.2-0.7l-0.3,0.1c-0.3,0.3-0.5,0.7-0.7,1c-0.2,0.3-0.3,0.7-0.4,1c-0.2,1-0.2,1.9,0.2,2.6c0.4,0.7,1,1.2,1.9,1.4
			c0.8,0.2,1.6-0.3,2.5-1.4c0.1-0.1,0.2-0.2,0.2-0.3c1-1.2,1.8-2,2.4-2.3c0.6-0.3,1.2-0.4,1.8-0.2c1.2,0.3,2.1,1,2.7,2
			c0.6,1.1,0.7,2.3,0.4,3.7c-0.1,0.6-0.3,1.1-0.5,1.6C364.5,236.5,364.2,237,363.9,237.4z"/>
		<path class="st0" d="M363.1,246.1l-0.2,0.6c-0.4-0.2-0.8-0.5-1.3-0.8c-0.5-0.3-1.1-0.6-1.8-1l-3.1-1.7c0.4,1,0.6,1.8,0.7,2.5
			c0.1,0.7,0.1,1.3-0.1,1.8c-0.2,0.5-0.4,0.8-0.8,1c-0.4,0.2-0.8,0.2-1.3,0.1c-0.2-0.1-0.4-0.1-0.6-0.3s-0.6-0.3-1-0.6l-2.7-1.6
			c-0.3-0.2-0.5-0.3-0.7-0.4c-0.2-0.1-0.3-0.2-0.5-0.2c-0.3-0.1-0.6-0.1-0.8,0c-0.2,0.1-0.4,0.3-0.5,0.6c0,0.1-0.1,0.3-0.1,0.5
			s-0.1,0.4-0.1,0.6l-0.5-0.2c0-0.5,0-1,0-1.5c0-0.4,0.1-0.8,0.2-1c0.2-0.5,0.4-0.8,0.6-1c0.3-0.2,0.6-0.2,1-0.1
			c0.1,0,0.3,0.1,0.5,0.2c0.2,0.1,0.3,0.2,0.5,0.3l3.3,1.9c0.2,0.1,0.5,0.3,0.7,0.4c0.2,0.1,0.4,0.2,0.5,0.2c0.4,0.1,0.8,0.1,1,0
			c0.2-0.1,0.4-0.3,0.5-0.7c0.1-0.3,0.1-0.8,0-1.4c-0.1-0.6-0.3-1.2-0.7-1.9l-6.1-3.2l0.5-1.6l11.9,6.7l0.7-1.7l0.5,0.2L363.1,246.1
			z"/>
		<path class="st0" d="M352,261.5l-0.4,1c-0.2-0.2-0.4-0.4-0.8-0.7s-0.9-0.7-1.5-1.1l-3-2c-0.3-0.2-0.5-0.3-0.7-0.5
			c-0.2-0.1-0.4-0.2-0.5-0.3c-0.3-0.1-0.5-0.1-0.7,0c-0.2,0.1-0.4,0.3-0.5,0.7c0,0.1-0.1,0.2-0.1,0.3c0,0.1-0.1,0.4-0.1,0.8
			l-0.6-0.2c0-0.6,0-1.1,0.1-1.5c0-0.4,0.1-0.8,0.2-1c0.2-0.4,0.4-0.6,0.7-0.7c0.3-0.1,0.7,0,1.2,0.2l0.2,0.1
			c-0.3-0.7-0.5-1.4-0.6-1.9c-0.1-0.6,0-1.1,0.2-1.5c0.3-0.8,0.9-1.3,1.6-1.5c0.8-0.2,1.6-0.1,2.7,0.3c0.6,0.2,1.2,0.6,1.7,1
			c0.5,0.4,1,0.9,1.4,1.4c0.6,0.8,0.9,1.6,1.1,2.6c0.1,0.9,0,1.8-0.4,2.7c-0.1,0.3-0.3,0.5-0.4,0.8s-0.4,0.5-0.6,0.7L352,261.5z
			 M352,259.5l0.1-0.3c0.4-1.1,0.3-2.2-0.3-3.3c-0.7-1.1-1.7-1.9-3.2-2.5c-0.7-0.3-1.4-0.4-1.8-0.3c-0.5,0.1-0.8,0.4-1,1
			c-0.1,0.4-0.2,0.7-0.1,1.2c0.1,0.4,0.2,0.9,0.5,1.5l4.5,3L352,259.5z"/>
		<path class="st0" d="M348.2,269.8l-0.2,0.4l-2.2-1.8c0.5,0.9,0.8,1.8,1,2.6c0.2,0.8,0.1,1.4-0.1,1.8c-0.2,0.3-0.4,0.5-0.6,0.6
			c-0.3,0.1-0.5,0.1-0.8-0.1c-0.4-0.2-0.6-0.4-0.7-0.7s-0.1-0.7,0.1-1l0.1-0.1l1.2,0c0.1-0.9,0-1.7-0.3-2.4
			c-0.3-0.6-0.9-1.3-1.7-1.9l-3.8-2.8l0.7-1.5l6.6,5.1l1-1.3l0.5,0.2L348.2,269.8z"/>
		<path class="st0" d="M342.9,279.7l-0.3,0.4l-5.8-4.9c-0.1-0.1-0.2-0.2-0.2-0.2s-0.1-0.1-0.2-0.1c-0.2-0.1-0.4-0.2-0.6-0.1
			c-0.2,0.1-0.4,0.3-0.5,0.5c-0.1,0.2-0.2,0.4-0.3,0.6c-0.1,0.2-0.2,0.5-0.2,0.8l-0.5-0.3c0.1-0.6,0.2-1.1,0.3-1.6
			c0.1-0.5,0.3-0.9,0.5-1.2c0.2-0.4,0.5-0.6,0.8-0.7c0.3-0.1,0.6,0,1,0.2c0.1,0.1,0.2,0.1,0.4,0.3c0.1,0.1,0.3,0.2,0.5,0.4l4.6,4
			l1.1-1.3l0.5,0.3L342.9,279.7z M346.6,282.2c-0.1,0.2-0.4,0.4-0.7,0.5c-0.3,0.1-0.6,0-0.8-0.1c-0.3-0.1-0.4-0.4-0.5-0.7
			s0-0.6,0.1-0.8c0.2-0.3,0.4-0.4,0.6-0.5c0.3-0.1,0.6,0,0.8,0.1c0.3,0.1,0.4,0.4,0.5,0.7C346.8,281.7,346.7,282,346.6,282.2z"/>
		<path class="st0" d="M338.3,287.3l-0.3,0.4l-1.4-1.4c0.1,1.1,0.1,1.9,0,2.6c-0.1,0.7-0.3,1.2-0.5,1.7c-0.3,0.4-0.6,0.7-1,0.8
			c-0.4,0.1-0.8,0-1.2-0.3c-0.2-0.1-0.3-0.2-0.5-0.4c-0.2-0.2-0.5-0.4-0.8-0.8l-2.2-2.3c0,0-0.1-0.1-0.1-0.1
			c-0.4-0.4-0.7-0.7-0.8-0.8c-0.3-0.2-0.5-0.2-0.8-0.2c-0.2,0.1-0.5,0.2-0.6,0.5c-0.1,0.1-0.2,0.3-0.2,0.4c-0.1,0.2-0.2,0.4-0.2,0.6
			l-0.5-0.3c0.1-0.5,0.2-1,0.4-1.4c0.1-0.4,0.3-0.7,0.4-0.9c0.3-0.4,0.6-0.7,0.9-0.8s0.6,0,1,0.2c0.1,0.1,0.2,0.2,0.4,0.3
			c0.1,0.1,0.3,0.3,0.4,0.4l2.6,2.8c0.2,0.2,0.3,0.4,0.5,0.5c0.2,0.1,0.3,0.3,0.5,0.4c0.4,0.2,0.7,0.4,0.9,0.3s0.5-0.2,0.7-0.5
			c0.2-0.3,0.3-0.8,0.4-1.3c0-0.6,0-1.3-0.1-2l-5-4.8l0.9-1.4l5.9,5.9l1.1-1.2l0.4,0.3L338.3,287.3z"/>
		<path class="st0" d="M327.7,301.3l-1.8,2.3l-0.7-0.5l1.3-1.6c-0.2-0.1-0.4-0.2-0.6-0.3s-0.4-0.2-0.6-0.3c-0.8-0.7-1.3-1.5-1.4-2.5
			c-0.1-1,0.2-2,0.8-2.8c0-0.1,0.1-0.1,0.1-0.2c0.1-0.1,0.1-0.1,0.2-0.2c-0.1-0.2-0.2-0.3-0.3-0.5c-0.1-0.1-0.2-0.3-0.4-0.4
			l-0.1-0.1l-3.1,1.6c-0.5,0.3-1,0.4-1.4,0.4c-0.4,0-0.8-0.1-1.1-0.4c-0.6-0.5-0.9-1.3-0.8-2.4c0.1-1.1,0.6-2.2,1.4-3.2
			c0.7-0.9,1.5-1.5,2.3-1.7c0.8-0.2,1.5-0.1,2.2,0.4c0.5,0.4,0.8,0.9,0.9,1.5c0.1,0.6,0,1.4-0.3,2.4c0,0,0.1,0,0.1,0.1
			c0,0,0.1,0.1,0.2,0.1c0.3,0.2,0.5,0.4,0.6,0.7c0.2,0.3,0.3,0.7,0.4,1.1c0.5-0.3,1.1-0.5,1.6-0.5c0.5,0,1,0.2,1.4,0.5
			c0.9,0.7,1.4,1.5,1.5,2.6c0.1,1.1-0.1,2-0.8,2.9c-0.2,0.2-0.4,0.4-0.7,0.6C328.3,300.9,328,301.1,327.7,301.3z M323.4,292.9
			c0.3-0.6,0.4-1.1,0.3-1.5c-0.1-0.5-0.3-0.8-0.7-1.1c-0.5-0.4-1.1-0.5-1.7-0.4c-0.6,0.1-1.2,0.5-1.7,1.2c-0.5,0.6-0.8,1.3-0.8,1.9
			c-0.1,0.6,0.1,1.1,0.5,1.4c0.2,0.2,0.4,0.2,0.7,0.2c0.3,0,0.6-0.1,1-0.3L323.4,292.9z M326.4,299.6c0.5,0.4,0.9,0.5,1.3,0.6
			c0.4,0,0.7-0.2,1-0.5c0.4-0.5,0.4-1.1,0.2-1.9c-0.2-0.8-0.7-1.4-1.4-2c-0.4-0.3-0.8-0.5-1.2-0.5s-0.7,0.2-1,0.5
			c-0.4,0.5-0.5,1.1-0.2,1.9C325.2,298.4,325.7,299.1,326.4,299.6z"/>
		<path class="st0" d="M311.7,324.3l-1.8-2.7l0.8-0.7l1.3,1.4l0.4,0.2c0.4-0.1,0.7-0.3,1-0.4c0.3-0.2,0.6-0.4,0.8-0.6
			c0.5-0.5,0.8-1,1.1-1.6c0.3-0.6,0.5-1.3,0.5-2c0.1-1.1-0.1-2.2-0.5-3.3c-0.4-1.1-1.1-2.1-2-3c-0.9-0.9-1.9-1.4-3-1.4
			c-1.1-0.1-2,0.3-2.9,1.2c-0.2,0.2-0.4,0.4-0.6,0.7c-0.2,0.3-0.5,0.6-0.7,1l2.4,3.6l0.3,0.1l1-0.8l0.5,0.6l-3.5,3.4l-0.5-0.6l0.8-1
			l0-0.4l-2.7-4.1c0.4-0.7,0.8-1.4,1.3-2c0.4-0.6,0.8-1.1,1.3-1.5c1.2-1.2,2.5-1.7,3.9-1.7c1.4,0,2.7,0.6,3.9,1.8
			c0.9,0.9,1.6,2,2,3.2c0.4,1.2,0.5,2.5,0.3,3.8c-0.1,0.9-0.4,1.8-0.8,2.6c-0.4,0.8-1,1.6-1.6,2.2c-0.5,0.5-1,0.9-1.5,1.2
			C312.7,323.8,312.2,324,311.7,324.3z"/>
		<path class="st0" d="M302.1,327.9c-0.8,0.7-1.7,0.9-2.6,0.8s-1.8-0.7-2.5-1.6c-0.5-0.6-0.9-1.3-1.1-2c-0.3-0.7-0.4-1.5-0.4-2.3
			c0-0.7,0.2-1.4,0.5-1.9c0.3-0.6,0.7-1.1,1.2-1.5c0.8-0.7,1.7-0.9,2.6-0.8c0.9,0.1,1.7,0.7,2.5,1.5c0.5,0.6,0.9,1.3,1.2,2.1
			c0.3,0.8,0.4,1.5,0.4,2.3c0,0.7-0.2,1.4-0.5,2C303,327,302.6,327.5,302.1,327.9z M301.8,327.1c0.7-0.6,0.9-1.4,0.8-2.6
			c-0.2-1.2-0.7-2.3-1.7-3.5c-0.6-0.7-1.2-1.2-1.8-1.4c-0.6-0.2-1.1-0.1-1.6,0.3c-0.7,0.6-0.9,1.4-0.8,2.6s0.7,2.3,1.6,3.5
			c0.6,0.7,1.2,1.2,1.8,1.4C300.8,327.6,301.3,327.5,301.8,327.1z"/>
		<path class="st0" d="M291.2,342.4l-0.4,0.3l-5.2-11c-0.1-0.2-0.2-0.4-0.3-0.5c-0.1-0.2-0.2-0.3-0.3-0.4c-0.2-0.2-0.3-0.4-0.5-0.4
			s-0.4,0-0.7,0.2c-0.1,0.1-0.2,0.2-0.4,0.3c-0.2,0.2-0.3,0.3-0.6,0.6l-0.3-0.5c0.3-0.5,0.6-0.8,0.9-1.2c0.3-0.3,0.5-0.6,0.8-0.7
			c0.4-0.3,0.7-0.4,1-0.3c0.3,0.1,0.6,0.3,0.9,0.7c0.1,0.1,0.1,0.2,0.1,0.2c0,0,0.1,0.1,0.1,0.1c0-0.8,0.2-1.4,0.4-2
			c0.3-0.6,0.6-1,1-1.3c0.7-0.5,1.4-0.6,2.1-0.3c0.7,0.2,1.4,0.8,2.1,1.7c0.4,0.6,0.7,1.1,0.9,1.7c0.2,0.6,0.3,1.2,0.4,1.8
			c0,1-0.1,1.9-0.5,2.8c-0.4,0.9-0.9,1.5-1.6,2c-0.2,0.2-0.5,0.3-0.7,0.4c-0.2,0.1-0.5,0.2-0.8,0.2l1.7,3.7l1.6-0.9l0.3,0.5
			L291.2,342.4z M290.5,335.7c0,0,0.1-0.1,0.2-0.1c0.1,0,0.2-0.1,0.2-0.1c0.8-0.6,1.2-1.5,1.2-2.8c0-1.3-0.5-2.6-1.3-3.8
			c-0.4-0.6-0.9-1-1.4-1.2c-0.5-0.2-1-0.1-1.4,0.2c-0.3,0.2-0.6,0.6-0.8,1.1c-0.2,0.5-0.3,1.1-0.3,1.8l2.2,4.7L290.5,335.7z"/>
		<path class="st0" d="M282.8,340.8l0.7-0.5c-0.3,1-0.4,1.8-0.4,2.5c0,0.7,0.1,1.2,0.4,1.6l0,0.1l1.1-0.7c0.1,0,0.2,0.1,0.2,0.2
			c0.1,0.1,0.1,0.1,0.2,0.2c0.2,0.3,0.2,0.7,0.1,1c-0.1,0.4-0.3,0.7-0.6,0.9c-0.3,0.2-0.7,0.3-1,0.2c-0.3-0.1-0.6-0.3-0.8-0.6
			c-0.3-0.5-0.5-1.2-0.5-2.1S282.4,341.8,282.8,340.8z"/>
		<path class="st0" d="M273,344.8l1.3,0.6c0.1,0,0.2,0,0.3,0s0.2-0.1,0.3-0.1c0.4-0.2,0.6-0.5,0.7-0.8c0.1-0.4,0.1-0.7-0.1-1
			c-0.2-0.4-1-0.7-2.2-0.9l0,0c-0.1,0-0.2,0-0.3,0c-1.4-0.2-2.3-0.6-2.7-1.3c-0.4-0.8-0.5-1.6-0.2-2.4c0.3-0.8,0.9-1.5,1.9-2
			c0.7-0.4,1.4-0.6,1.9-0.5c0.6,0,1,0.3,1.3,0.8c0.1,0.3,0.2,0.5,0.1,0.8c-0.1,0.3-0.3,0.5-0.5,0.6c-0.1,0.1-0.2,0.1-0.4,0.1
			c-0.1,0-0.3,0-0.5,0l-0.2-1c-0.2-0.1-0.5-0.2-0.8-0.2c-0.3,0-0.5,0.1-0.8,0.2c-0.5,0.3-0.8,0.6-1,1c-0.1,0.4-0.1,0.9,0.2,1.3
			c0.1,0.3,0.4,0.5,0.6,0.6c0.3,0.1,0.8,0.3,1.5,0.4l0.1,0c1.5,0.2,2.4,0.6,2.8,1.3c0.4,0.7,0.5,1.5,0.2,2.4c-0.3,0.8-0.9,1.5-1.7,2
			c-0.5,0.3-0.9,0.4-1.3,0.4c-0.4,0-0.7-0.2-0.9-0.5c-0.1-0.3-0.2-0.5-0.1-0.8C272.5,345.2,272.7,345,273,344.8z"/>
		<path class="st0" d="M261.4,357.1l-4.5,1.8l-0.3-0.7l1.2-0.6l0.2-0.4l-2.3-11.3l-3.9,1.6l-0.2,0.4l0.2,2.5l-0.9,0.4l-0.7-3.6
			l8.3-3.4l0.3,0.7l-1.1,0.6l-0.2,0.4l2.2,11.1l0.3,0.2l1.2-0.4L261.4,357.1z"/>
		<path class="st0" d="M244,359.6c-1,0.3-1.9,0.2-2.7-0.2c-0.8-0.5-1.4-1.3-1.8-2.4c-0.2-0.7-0.3-1.5-0.3-2.3c0-0.8,0.2-1.6,0.5-2.3
			c0.3-0.7,0.7-1.2,1.1-1.6c0.5-0.4,1.1-0.8,1.7-1c1-0.3,1.9-0.2,2.7,0.2c0.8,0.5,1.4,1.2,1.7,2.3c0.2,0.8,0.4,1.6,0.3,2.4
			c0,0.8-0.2,1.6-0.5,2.3c-0.3,0.7-0.7,1.2-1.2,1.7C245.2,359.1,244.6,359.4,244,359.6z M244,358.8c0.8-0.3,1.4-1,1.7-2.1
			c0.3-1.1,0.2-2.4-0.3-3.9c-0.3-0.9-0.7-1.5-1.2-1.9c-0.5-0.4-1-0.5-1.6-0.3c-0.8,0.3-1.4,1-1.7,2.1c-0.3,1.1-0.2,2.4,0.3,3.8
			c0.3,0.9,0.7,1.6,1.2,2C242.8,358.9,243.4,359,244,358.8z"/>
		<path class="st0" d="M234.8,362.3L234.8,362.3c-0.5,0.1-0.9,0.1-1.2-0.2c-0.3-0.2-0.6-0.8-0.9-1.7l-1.8-5.2
			c-0.5,1.2-0.9,2.2-1.2,3.1c-0.3,0.9-0.5,1.7-0.6,2.4l1,2.3c-0.1,0.2-0.3,0.3-0.4,0.4c-0.2,0.1-0.3,0.2-0.5,0.2
			c-0.3,0.1-0.6,0-0.8-0.1c-0.2-0.1-0.4-0.4-0.5-0.8c-0.2-0.7,0-1.9,0.6-3.6c0.6-1.7,1.5-3.7,2.7-6l0.9-0.2
			c-0.1,0.2-0.1,0.4-0.1,0.6c0,0.2,0,0.5,0.1,0.7c0,0.1,0,0.2,0.1,0.3c0,0.1,0.1,0.2,0.1,0.4l1.6,4.4c0.2,0.5,0.3,0.8,0.5,1.1
			c0.2,0.2,0.3,0.4,0.5,0.4l1.5-0.3l0.1,0.5L234.8,362.3z"/>
		<path class="st0" d="M221.6,359.9c0-0.1,0-0.3,0-0.4c0-0.2,0-0.3-0.1-0.5c-0.1-0.8-0.4-1.4-0.9-1.8c-0.4-0.4-1-0.5-1.6-0.4
			c-0.5,0.1-0.9,0.3-1.4,0.7c-0.5,0.4-1,0.9-1.4,1.5L216,358c0.5-0.7,1.1-1.2,1.6-1.6c0.6-0.4,1.2-0.7,1.9-0.8
			c0.9-0.2,1.7,0,2.4,0.6c0.6,0.5,1,1.4,1.2,2.5c0.1,0.8,0.1,1.7,0,2.5c-0.2,0.8-0.5,1.6-0.9,2.3c-0.4,0.6-0.9,1.1-1.4,1.5
			c-0.5,0.4-1.1,0.6-1.6,0.7c-0.6,0.1-1.1,0-1.6-0.3c-0.4-0.3-0.7-0.7-0.8-1.3c-0.2-0.9,0.2-1.7,1-2.4S219.9,360.3,221.6,359.9z
			 M221.6,360.6c-1.1,0.3-2,0.7-2.7,1.3c-0.6,0.6-0.9,1.3-0.8,1.9c0.1,0.3,0.2,0.5,0.4,0.7c0.2,0.2,0.5,0.2,0.8,0.2
			c0.6-0.1,1.1-0.5,1.5-1.3C221.3,362.7,221.6,361.8,221.6,360.6z"/>
		<path class="st0" d="M202,367.7l-0.7,0l-0.7-7.9l-0.2,0.3c-1.5,3.2-2.6,5.6-3.2,7.2l-1.2,0.2c-0.1-0.9-0.2-2-0.3-3.3
			c-0.1-1.3-0.3-2.8-0.5-4.5c-0.9,1.3-1.5,2.3-2,3.2c-0.5,0.9-0.8,1.6-1,2.3l0.5,2.3c-0.1,0.2-0.3,0.3-0.4,0.4
			c-0.2,0.1-0.4,0.1-0.6,0.1c-0.3,0-0.6-0.1-0.8-0.3s-0.3-0.5-0.3-0.8c0-0.6,0.3-1.6,1-2.9s2-3.2,3.8-5.9l1.2,0l0.7,7
			c0.3-0.6,0.7-1.6,1.3-2.8c0.6-1.2,1.4-2.7,2.2-4.3l1.3,0l-0.1,0.4l0.8,7.9l1.5,0.1l0,0.5L202,367.7z"/>
		<path class="st0" d="M182.6,372.3c-0.3,0-0.5-0.1-0.7-0.4s-0.3-0.5-0.3-0.8c0-0.3,0.1-0.5,0.3-0.7c0.2-0.2,0.5-0.3,0.8-0.3
			c0.3,0,0.6,0.1,0.8,0.3c0.2,0.2,0.3,0.5,0.3,0.8c0,0.3-0.1,0.6-0.3,0.8S182.9,372.3,182.6,372.3z M183.2,367.8l-0.5,0l1.7-7.4
			c0-0.1,0.1-0.2,0.1-0.3c0-0.1,0-0.1,0-0.2c0-0.3-0.1-0.5-0.2-0.6c-0.2-0.1-0.4-0.2-0.7-0.2c-0.2,0-0.4,0-0.6,0
			c-0.2,0-0.5,0.1-0.8,0.2l0-0.6c0.6-0.2,1.1-0.4,1.6-0.5c0.5-0.1,0.9-0.1,1.3-0.1c0.4,0,0.7,0.1,0.9,0.4c0.2,0.2,0.3,0.6,0.3,1
			c0,0.1,0,0.3-0.1,0.4s-0.1,0.4-0.1,0.6l-1.4,5.9l1.6,0.4l0,0.5L183.2,367.8z"/>
		<path class="st0" d="M174.4,369.2l-0.9-0.1l0.6-2.2l-2.9-0.3l0.1-0.9l3,0.3l1.5-5.2c0,0,0-0.1,0-0.2c0.1-0.3,0.1-0.6,0.1-0.7
			c0-0.4,0-0.7-0.2-0.9c-0.2-0.2-0.5-0.4-0.9-0.4c-0.2,0-0.5,0-0.8,0c-0.3,0-0.7,0.1-1.1,0.2l0.1-0.6c0.7-0.2,1.3-0.4,1.8-0.5
			c0.5-0.1,1-0.1,1.3-0.1c0.6,0.1,1,0.2,1.2,0.6c0.2,0.3,0.3,0.8,0.3,1.4c0,0.2,0,0.4-0.1,0.6c0,0.2-0.1,0.5-0.2,0.7l-1.6,5.3l1.2,0
			l-0.1,0.6l-1.5,0.5L174.4,369.2z"/>
		<path class="st0" d="M162.9,370.9l-0.6-0.1c0.2-0.4,0.4-0.9,0.6-1.4c0.2-0.5,0.5-1.2,0.7-1.9l1.2-3.3c-0.9,0.5-1.7,0.9-2.3,1.1
			s-1.2,0.3-1.8,0.2c-0.5-0.1-0.9-0.3-1.1-0.6c-0.3-0.3-0.3-0.7-0.3-1.2c0-0.2,0.1-0.4,0.2-0.6c0.1-0.2,0.2-0.6,0.4-1.1l1.2-2.9
			c0.1-0.3,0.2-0.6,0.3-0.8s0.1-0.4,0.1-0.5c0-0.3,0-0.6-0.1-0.8c-0.1-0.2-0.4-0.3-0.7-0.4c-0.1,0-0.3,0-0.5,0c-0.2,0-0.4,0-0.6,0
			l0.1-0.5c0.5-0.1,1-0.2,1.4-0.2c0.4,0,0.8,0,1,0c0.5,0.1,0.8,0.2,1,0.5s0.3,0.6,0.2,1c0,0.1-0.1,0.3-0.1,0.5s-0.1,0.4-0.2,0.5
			l-1.4,3.5c-0.1,0.3-0.2,0.5-0.3,0.7c-0.1,0.2-0.1,0.4-0.1,0.5c-0.1,0.4,0,0.8,0.1,1c0.1,0.2,0.4,0.4,0.8,0.4
			c0.4,0.1,0.8,0,1.4-0.2s1.2-0.5,1.8-0.9l2.3-6.5l1.7,0.3l-4.8,12.8l1.8,0.5l-0.1,0.5L162.9,370.9z"/>
		<path class="st0" d="M141.9,363.2l-0.9-0.2l1-2.1l-2.8-0.8l0.2-0.8l2.9,0.8l2.5-4.9c0,0,0-0.1,0.1-0.2c0.1-0.3,0.2-0.5,0.3-0.6
			c0.1-0.4,0.1-0.7-0.1-1s-0.4-0.4-0.8-0.6c-0.2-0.1-0.5-0.1-0.8-0.1c-0.3,0-0.7,0-1.1,0l0.2-0.6c0.7-0.1,1.4-0.1,1.9-0.2
			c0.5,0,1,0,1.3,0.1c0.5,0.2,0.9,0.4,1.1,0.8c0.2,0.4,0.2,0.8,0,1.4c-0.1,0.2-0.1,0.4-0.2,0.6c-0.1,0.2-0.2,0.4-0.3,0.6l-2.5,4.9
			l1.2,0.2l-0.2,0.6l-1.6,0.2L141.9,363.2z"/>
		<path class="st0" d="M130.2,362.8l-0.6-0.2c0.3-0.4,0.5-0.8,0.9-1.3c0.3-0.5,0.7-1.1,1.1-1.8l1.8-3c-1,0.3-1.8,0.5-2.5,0.6
			c-0.7,0.1-1.3,0-1.8-0.1c-0.5-0.2-0.8-0.4-1-0.8c-0.2-0.4-0.2-0.8,0-1.3c0.1-0.2,0.2-0.4,0.3-0.6c0.1-0.2,0.3-0.6,0.6-1l1.7-2.7
			c0.2-0.3,0.3-0.5,0.4-0.7s0.2-0.3,0.2-0.5c0.1-0.3,0.1-0.6,0-0.8c-0.1-0.2-0.3-0.4-0.6-0.5c-0.1,0-0.3-0.1-0.5-0.1
			c-0.2,0-0.4-0.1-0.6-0.1l0.2-0.5c0.5,0,1,0,1.5,0c0.4,0,0.8,0.1,1,0.2c0.5,0.2,0.8,0.4,0.9,0.6c0.2,0.3,0.2,0.6,0,1
			c0,0.1-0.1,0.3-0.2,0.4c-0.1,0.2-0.2,0.3-0.3,0.5l-2.1,3.2c-0.2,0.2-0.3,0.4-0.4,0.6c-0.1,0.2-0.2,0.4-0.2,0.5
			c-0.1,0.4-0.2,0.8-0.1,1c0.1,0.3,0.3,0.4,0.7,0.6c0.3,0.1,0.8,0.1,1.4,0c0.6-0.1,1.2-0.3,2-0.6l3.4-6l1.6,0.6l-7.1,11.7l1.7,0.8
			l-0.2,0.5L130.2,362.8z"/>
		<path class="st0" d="M122.9,348.9c0.1-0.1,0.2-0.2,0.2-0.4c0.1-0.1,0.1-0.3,0.2-0.4c0.3-0.7,0.4-1.4,0.3-2c-0.2-0.6-0.5-1-1.1-1.3
			c-0.4-0.2-0.9-0.3-1.6-0.2c-0.6,0-1.3,0.2-2,0.4l0.4-0.9c0.8-0.3,1.6-0.4,2.3-0.5c0.7,0,1.4,0.1,2,0.4c0.9,0.4,1.4,1,1.6,1.8
			s0.1,1.7-0.4,2.8c-0.3,0.8-0.8,1.5-1.4,2.1c-0.6,0.6-1.3,1.1-2,1.4c-0.6,0.3-1.3,0.4-2,0.4c-0.7,0-1.2-0.1-1.7-0.3
			c-0.6-0.3-1-0.6-1.2-1.1c-0.2-0.5-0.2-1,0.1-1.5c0.4-0.8,1.1-1.3,2.2-1.4C119.9,348.1,121.3,348.4,122.9,348.9z M122.5,349.5
			c-1.1-0.4-2.1-0.5-2.9-0.4c-0.9,0.2-1.4,0.5-1.7,1.2c-0.1,0.3-0.1,0.6,0,0.8c0.1,0.3,0.3,0.5,0.6,0.6c0.6,0.2,1.2,0.2,1.9-0.2
			S121.8,350.5,122.5,349.5z"/>
		<path class="st0" d="M101,348.1l-4.2-2.5l0.4-0.7l1.2,0.6l0.4-0.1l7.7-8.6l-3.6-2.2l-0.5,0.1l-1.9,1.7l-0.8-0.5l2.5-2.8l7.7,4.6
			l-0.4,0.7l-1.1-0.6l-0.4,0.1l-7.5,8.4l0,0.4l1.1,0.7L101,348.1z"/>
		<path class="st0" d="M94.3,333.3c0.1-0.1,0.2-0.2,0.3-0.3c0.1-0.1,0.2-0.3,0.3-0.4c0.5-0.7,0.7-1.3,0.6-1.9c0-0.6-0.3-1.1-0.8-1.4
			c-0.4-0.3-0.9-0.4-1.5-0.5c-0.6-0.1-1.3-0.1-2.1,0l0.5-0.8c0.8-0.1,1.6-0.1,2.3,0c0.7,0.1,1.3,0.4,1.9,0.8
			c0.8,0.5,1.2,1.2,1.3,2.1s-0.2,1.7-0.9,2.6c-0.5,0.7-1.1,1.3-1.8,1.8c-0.7,0.5-1.5,0.8-2.3,1c-0.7,0.1-1.4,0.1-2,0.1
			c-0.7-0.1-1.2-0.3-1.6-0.6c-0.5-0.4-0.8-0.8-0.9-1.3c-0.1-0.5,0-1,0.4-1.5c0.5-0.7,1.3-1,2.4-1C91.6,331.9,92.9,332.4,94.3,333.3z
			 M93.9,333.8c-1-0.6-1.9-0.9-2.8-0.9c-0.9,0-1.5,0.3-1.9,0.8c-0.2,0.3-0.2,0.5-0.2,0.8c0,0.3,0.2,0.5,0.4,0.7
			c0.5,0.4,1.2,0.4,2,0.2S93,334.6,93.9,333.8z"/>
		<path class="st0" d="M77.1,326.8l-0.8-0.7c0.2-0.1,0.5-0.3,0.9-0.6c0.4-0.3,0.9-0.7,1.5-1.1l2.8-2.3c0.2-0.2,0.5-0.4,0.6-0.5
			c0.2-0.2,0.3-0.3,0.4-0.4c0.2-0.2,0.3-0.5,0.2-0.7c0-0.2-0.2-0.5-0.5-0.7c-0.1,0-0.2-0.1-0.3-0.2c-0.1-0.1-0.4-0.2-0.7-0.4
			l0.4-0.5c0.6,0.2,1.1,0.3,1.5,0.5c0.4,0.2,0.7,0.3,0.9,0.5c0.3,0.3,0.5,0.6,0.5,0.9s-0.2,0.7-0.5,1.1l-0.1,0.1
			c0.8-0.1,1.4-0.1,2,0c0.6,0.1,1,0.3,1.4,0.6c0.7,0.5,1,1.2,1,2c0,0.8-0.4,1.6-1,2.5c-0.4,0.5-0.9,1-1.4,1.3
			c-0.5,0.4-1.1,0.7-1.7,0.9c-0.9,0.3-1.8,0.4-2.7,0.3c-0.9-0.2-1.7-0.5-2.5-1.2c-0.2-0.2-0.4-0.4-0.6-0.7c-0.2-0.3-0.4-0.5-0.5-0.8
			L77.1,326.8z M79.1,327.4l0.2,0.2c0.9,0.7,2,1,3.2,0.7c1.2-0.3,2.3-1.1,3.3-2.3c0.5-0.6,0.8-1.2,0.8-1.7c0-0.5-0.2-0.9-0.6-1.3
			c-0.3-0.2-0.7-0.4-1.1-0.5c-0.4-0.1-1-0.1-1.6,0l-4.1,3.4L79.1,327.4z"/>
		<path class="st0" d="M70.6,317.9l-0.2,1.4c0,0.1,0.1,0.2,0.1,0.3c0.1,0.1,0.1,0.2,0.2,0.3c0.3,0.3,0.6,0.4,1,0.4
			c0.4,0,0.7-0.1,0.9-0.4c0.3-0.3,0.4-1.1,0.2-2.3l0,0c0-0.1,0-0.2-0.1-0.3c-0.2-1.4-0.1-2.4,0.4-3c0.6-0.7,1.4-1,2.3-0.9
			c0.9,0,1.7,0.4,2.5,1.2c0.6,0.6,1,1.1,1.1,1.7c0.1,0.6,0,1-0.4,1.4c-0.2,0.2-0.4,0.3-0.7,0.3c-0.3,0-0.5-0.1-0.7-0.3
			c-0.1-0.1-0.2-0.2-0.2-0.3c-0.1-0.1-0.1-0.3-0.1-0.5l0.9-0.5c0-0.3,0-0.5-0.1-0.8c-0.1-0.3-0.3-0.5-0.5-0.7
			c-0.4-0.4-0.8-0.6-1.3-0.6c-0.4,0-0.8,0.2-1.2,0.6c-0.2,0.2-0.3,0.5-0.4,0.8c0,0.3,0,0.8,0.1,1.5l0,0.1c0.3,1.5,0.1,2.5-0.4,3
			c-0.6,0.6-1.3,0.9-2.2,0.9c-0.9,0-1.7-0.4-2.4-1c-0.4-0.4-0.7-0.8-0.7-1.2c-0.1-0.4,0-0.7,0.2-1c0.2-0.2,0.4-0.3,0.7-0.3
			C70.1,317.6,70.3,317.7,70.6,317.9z"/>
		<path class="st0" d="M61.6,314.8l-0.6-0.7l1.9-1.3l-2-2.1l0.6-0.6l2.1,2.2l4.6-2.9c0,0,0.1-0.1,0.2-0.1c0.3-0.2,0.5-0.3,0.6-0.4
			c0.3-0.3,0.4-0.6,0.5-0.9c0-0.3-0.1-0.6-0.4-0.9c-0.2-0.2-0.4-0.3-0.6-0.5c-0.3-0.2-0.6-0.4-1-0.6l0.5-0.4
			c0.7,0.3,1.3,0.6,1.7,0.8c0.5,0.3,0.8,0.5,1.1,0.8c0.4,0.4,0.6,0.8,0.5,1.2c0,0.4-0.3,0.8-0.7,1.2c-0.1,0.1-0.3,0.3-0.5,0.4
			c-0.2,0.1-0.4,0.3-0.6,0.4l-4.7,3l0.9,0.8l-0.4,0.4l-1.5-0.6L61.6,314.8z"/>
		<path class="st0" d="M49.6,297.7c-0.6-0.8-0.9-1.7-0.7-2.6c0.2-0.9,0.8-1.7,1.7-2.5c0.6-0.5,1.3-0.8,2.1-1
			c0.8-0.2,1.5-0.3,2.3-0.3c0.7,0.1,1.3,0.2,1.9,0.5c0.6,0.3,1.1,0.7,1.5,1.3c0.6,0.8,0.8,1.7,0.7,2.6c-0.2,0.9-0.7,1.7-1.7,2.4
			c-0.6,0.5-1.4,0.8-2.1,1.1c-0.8,0.2-1.6,0.3-2.3,0.3c-0.7-0.1-1.4-0.2-2-0.5C50.5,298.7,50,298.2,49.6,297.7z M50.4,297.4
			c0.5,0.7,1.4,1,2.6,0.9c1.2-0.1,2.4-0.6,3.6-1.5c0.8-0.6,1.2-1.1,1.4-1.7c0.2-0.6,0.1-1.1-0.2-1.6c-0.5-0.7-1.4-1-2.6-0.9
			s-2.4,0.6-3.5,1.5c-0.8,0.6-1.3,1.2-1.5,1.8C49.9,296.4,50,296.9,50.4,297.4z"/>
		<path class="st0" d="M38.9,287.1l-0.2,2.1c0.4,0.2,1,0.2,1.8,0c0.8-0.2,1.8-0.5,3-1.1l-1.6-2.4l0.8-0.5l1.6,2.5l5.2-2.5
			c1-0.5,1.9-0.8,2.6-1c0.7-0.2,1.4-0.3,2-0.3c0.9,0,1.7,0.2,2.3,0.4c0.6,0.2,1.1,0.6,1.3,1c0.2,0.3,0.2,0.5,0.2,0.8
			c0,0.3-0.2,0.5-0.5,0.7c-0.1,0.1-0.3,0.1-0.4,0.1c-0.2,0-0.3,0-0.5-0.1l-0.7-2c-0.5-0.1-1.2,0-1.9,0.2c-0.8,0.2-1.9,0.7-3.5,1.4
			l-5.3,2.5l0.9,1l-0.6,0.4l-1.3-0.9c-1.5,0.6-2.9,0.9-4.1,0.8c-1.2-0.1-2.1-0.6-2.6-1.4c-0.3-0.4-0.4-0.8-0.4-1.2
			c0-0.4,0.2-0.7,0.4-0.9c0.2-0.1,0.5-0.2,0.7-0.2C38.4,286.7,38.7,286.9,38.9,287.1z"/>
		<path class="st0" d="M31.8,276.8l-4.9-9.6l2.9-0.8l0.5,1l-1.7,0.8l-0.2,0.3l1.3,2.5l11.2-3.2l0.1-0.4l-0.5-1.2l0.7-0.3l2.2,4.4
			l-0.7,0.3l-0.7-1.1l-0.4-0.2l-11.2,3.3l1.3,2.5l0.4,0.2l2-0.3l0.5,1L31.8,276.8z"/>
		<path class="st0" d="M22.9,261.1l-0.2-0.6c0.5-0.1,1-0.1,1.6-0.2c0.6-0.1,1.3-0.2,2-0.4l3.4-0.7c-0.9-0.5-1.6-1-2.1-1.4
			c-0.5-0.5-0.9-0.9-1.1-1.4c-0.2-0.5-0.2-0.9-0.1-1.3c0.2-0.4,0.5-0.7,0.9-0.9c0.2-0.1,0.4-0.1,0.6-0.2c0.3-0.1,0.6-0.1,1.1-0.2
			l3.1-0.5c0.3-0.1,0.6-0.1,0.8-0.2c0.2,0,0.4-0.1,0.5-0.2c0.3-0.1,0.5-0.3,0.6-0.5c0.1-0.2,0.1-0.5,0-0.8c-0.1-0.1-0.1-0.3-0.2-0.4
			c-0.1-0.2-0.2-0.3-0.4-0.5l0.5-0.2c0.4,0.4,0.7,0.8,0.9,1.1c0.3,0.3,0.4,0.6,0.5,0.9c0.2,0.5,0.2,0.8,0.1,1.1
			c-0.1,0.3-0.3,0.5-0.7,0.7c-0.1,0.1-0.3,0.1-0.5,0.2c-0.2,0-0.4,0.1-0.6,0.1l-3.8,0.6c-0.3,0-0.5,0.1-0.7,0.1
			c-0.2,0-0.4,0.1-0.5,0.2c-0.4,0.2-0.7,0.4-0.8,0.6c-0.1,0.2-0.1,0.5,0,0.9c0.1,0.3,0.4,0.7,0.9,1.1c0.5,0.4,1,0.7,1.7,1.1l6.7-1.4
			l0.6,1.6l-13.4,2.5l0.6,1.8l-0.5,0.2L22.9,261.1z"/>
		<path class="st0" d="M28.4,246.4c0.1,0,0.3,0,0.4-0.1c0.2,0,0.3-0.1,0.5-0.1c0.8-0.2,1.3-0.6,1.6-1.1c0.3-0.5,0.4-1.1,0.2-1.7
			c-0.1-0.4-0.4-0.9-0.9-1.3c-0.4-0.4-1-0.8-1.7-1.2l0.9-0.3c0.8,0.4,1.4,0.9,1.9,1.4c0.5,0.5,0.8,1.1,1,1.7
			c0.3,0.9,0.2,1.7-0.2,2.4c-0.4,0.7-1.2,1.2-2.3,1.6c-0.8,0.3-1.6,0.4-2.5,0.3c-0.9-0.1-1.7-0.3-2.4-0.6c-0.6-0.3-1.2-0.7-1.6-1.2
			c-0.5-0.5-0.8-1-0.9-1.5c-0.2-0.6-0.2-1.1,0-1.6c0.2-0.5,0.6-0.8,1.2-1c0.8-0.3,1.7,0,2.5,0.7C27,243.6,27.7,244.8,28.4,246.4z
			 M27.7,246.5c-0.4-1.1-1-1.9-1.7-2.4c-0.7-0.5-1.4-0.7-2-0.5c-0.3,0.1-0.5,0.3-0.6,0.5c-0.1,0.3-0.2,0.5-0.1,0.8
			c0.2,0.6,0.7,1,1.5,1.3C25.6,246.5,26.5,246.6,27.7,246.5z"/>
		<path class="st0" d="M21.5,233.1l-0.9,1.1c0,0.1-0.1,0.2-0.1,0.3c0,0.1,0,0.2,0,0.3c0.1,0.4,0.3,0.7,0.6,0.9
			c0.3,0.2,0.7,0.2,1,0.1c0.5-0.1,0.9-0.7,1.4-1.9l0,0c0-0.1,0.1-0.2,0.1-0.3c0.6-1.3,1.2-2.1,1.9-2.3c0.9-0.2,1.7-0.1,2.4,0.4
			c0.7,0.5,1.2,1.3,1.5,2.3c0.2,0.8,0.2,1.5,0,2c-0.2,0.5-0.5,0.9-1.1,1c-0.3,0.1-0.6,0-0.8-0.1c-0.2-0.1-0.4-0.4-0.5-0.7
			c0-0.1,0-0.3,0-0.4c0-0.1,0.1-0.3,0.2-0.5l1.1,0.1c0.2-0.2,0.3-0.4,0.4-0.7c0.1-0.3,0-0.6,0-0.8c-0.1-0.6-0.4-1-0.8-1.2
			c-0.4-0.2-0.8-0.3-1.3-0.2c-0.3,0.1-0.5,0.2-0.7,0.5c-0.2,0.2-0.4,0.7-0.7,1.3l0,0.1c-0.6,1.4-1.2,2.2-1.9,2.4
			c-0.8,0.2-1.6,0.1-2.3-0.5s-1.2-1.2-1.5-2.1c-0.1-0.5-0.1-1,0-1.4c0.1-0.4,0.4-0.6,0.7-0.7c0.3-0.1,0.5,0,0.8,0.1
			C21.2,232.6,21.4,232.8,21.5,233.1z"/>
		<path class="st0" d="M22.8,225.5c0.1,0,0.3,0,0.4,0c0.2,0,0.3,0,0.5-0.1c0.8-0.1,1.4-0.4,1.8-0.9c0.4-0.5,0.5-1,0.4-1.6
			c-0.1-0.5-0.3-0.9-0.7-1.4c-0.4-0.5-0.9-1-1.5-1.4l0.9-0.2c0.7,0.5,1.3,1,1.7,1.6c0.4,0.6,0.7,1.2,0.8,1.9c0.2,0.9,0,1.7-0.5,2.4
			s-1.4,1.1-2.5,1.3c-0.8,0.2-1.7,0.2-2.5,0c-0.8-0.2-1.6-0.5-2.3-0.9c-0.6-0.4-1.1-0.8-1.5-1.4c-0.4-0.5-0.7-1.1-0.7-1.6
			c-0.1-0.6,0-1.1,0.3-1.6c0.3-0.4,0.7-0.7,1.3-0.8c0.9-0.2,1.7,0.2,2.4,1C21.8,222.6,22.4,223.9,22.8,225.5z M22.1,225.6
			c-0.3-1.1-0.7-2-1.3-2.6c-0.6-0.6-1.3-0.9-1.9-0.7c-0.3,0.1-0.5,0.2-0.7,0.4c-0.2,0.2-0.2,0.5-0.2,0.8c0.1,0.6,0.5,1.1,1.3,1.5
			S20.9,225.5,22.1,225.6z"/>
		<path class="st0" d="M17.3,196.2c-0.7,0-1.3-0.2-1.8-0.7c-0.5-0.5-0.8-1.1-0.8-1.8c0-0.7,0.2-1.3,0.7-1.8s1.1-0.8,1.8-0.8
			c0.7,0,1.3,0.2,1.8,0.8c0.5,0.5,0.8,1.1,0.8,1.8c0,0.7-0.2,1.3-0.7,1.8C18.6,196,18,196.2,17.3,196.2z"/>
	</g>
	<g>
		<path class="st0" d="M191.9,383.8c-51.3,0-99.4-20-135.7-56.2S0,243.2,0,191.9c0-51.3,20-99.4,56.2-135.7S140.6,0,191.9,0
			c51.3,0,99.4,20,135.7,56.2s56.2,84.4,56.2,135.7c0,51.3-20,99.4-56.2,135.7S243.1,383.8,191.9,383.8z M191.9,0.5
			c-51.1,0-99.2,19.9-135.3,56.1C20.4,92.7,0.5,140.8,0.5,191.9s19.9,99.2,56.1,135.3c36.1,36.1,84.2,56.1,135.3,56.1
			s99.2-19.9,135.3-56.1c36.1-36.1,56.1-84.2,56.1-135.3s-19.9-99.2-56.1-135.3C291.1,20.4,243,0.5,191.9,0.5z"/>
	</g>
	<g>
		<path class="st0" d="M191.7,349.7c-42.1,0-81.7-16.4-111.4-46.2s-46.2-69.3-46.2-111.4s16.4-81.7,46.2-111.4s69.3-46.2,111.4-46.2
			s81.7,16.4,111.4,46.2s46.2,69.3,46.2,111.4s-16.4,81.7-46.2,111.4S233.8,349.7,191.7,349.7z M191.7,35c-42,0-81.4,16.3-111.1,46
			c-29.7,29.7-46,69.1-46,111.1s16.3,81.4,46,111.1c29.7,29.7,69.1,46,111.1,46s81.4-16.3,111.1-46c29.7-29.7,46-69.1,46-111.1
			s-16.3-81.4-46-111.1C273.2,51.4,233.7,35,191.7,35z"/>
	</g>
</g>
</svg>